%TF.GenerationSoftware,KiCad,Pcbnew,(7.0.0)*%
%TF.CreationDate,2023-02-28T10:19:26+09:00*%
%TF.ProjectId,feather-m4_e220_dbg_board,66656174-6865-4722-9d6d-345f65323230,0.1.1*%
%TF.SameCoordinates,Original*%
%TF.FileFunction,Copper,L2,Bot*%
%TF.FilePolarity,Positive*%
%FSLAX46Y46*%
G04 Gerber Fmt 4.6, Leading zero omitted, Abs format (unit mm)*
G04 Created by KiCad (PCBNEW (7.0.0)) date 2023-02-28 10:19:26*
%MOMM*%
%LPD*%
G01*
G04 APERTURE LIST*
%TA.AperFunction,ComponentPad*%
%ADD10R,1.530000X1.530000*%
%TD*%
%TA.AperFunction,ComponentPad*%
%ADD11C,1.530000*%
%TD*%
%TA.AperFunction,ComponentPad*%
%ADD12O,1.700000X1.700000*%
%TD*%
%TA.AperFunction,ComponentPad*%
%ADD13R,1.700000X1.700000*%
%TD*%
%TA.AperFunction,ViaPad*%
%ADD14C,0.800000*%
%TD*%
%TA.AperFunction,Conductor*%
%ADD15C,0.250000*%
%TD*%
G04 APERTURE END LIST*
D10*
%TO.P,REF\u002A\u002A,1*%
%TO.N,unconnected-(U1-VBAT-PadP2_1)*%
X140959999Y-75349999D03*
D11*
%TO.P,REF\u002A\u002A,2*%
%TO.N,unconnected-(U1-EN-PadP2_2)*%
X143500000Y-75350000D03*
%TO.P,REF\u002A\u002A,3*%
%TO.N,unconnected-(U1-VBUS-PadP2_3)*%
X146040000Y-75350000D03*
%TO.P,REF\u002A\u002A,4*%
%TO.N,unconnected-(U1-D13-PadP2_4)*%
X148580000Y-75350000D03*
%TO.P,REF\u002A\u002A,5*%
%TO.N,unconnected-(U1-D12-PadP2_5)*%
X151120000Y-75350000D03*
%TO.P,REF\u002A\u002A,6*%
%TO.N,unconnected-(U1-D11-PadP2_6)*%
X153660000Y-75350000D03*
%TO.P,REF\u002A\u002A,7*%
%TO.N,unconnected-(U1-D10-PadP2_7)*%
X156200000Y-75350000D03*
%TO.P,REF\u002A\u002A,8*%
%TO.N,unconnected-(U1-D9-PadP2_8)*%
X158740000Y-75350000D03*
%TO.P,REF\u002A\u002A,9*%
%TO.N,Net-(U1-D6)*%
X161280000Y-75350000D03*
%TO.P,REF\u002A\u002A,10*%
%TO.N,Net-(U1-D5)*%
X163820000Y-75350000D03*
%TO.P,REF\u002A\u002A,11*%
%TO.N,unconnected-(U1-SCL-PadP2_11)*%
X166360000Y-75350000D03*
%TO.P,REF\u002A\u002A,12*%
%TO.N,unconnected-(U1-SDA-PadP2_12)*%
X168900000Y-75350000D03*
%TD*%
%TO.P,FEATHER-M4\u002A,P1_1,D4*%
%TO.N,Net-(U1-D4)*%
X168900000Y-99060000D03*
%TO.P,FEATHER-M4\u002A,P1_2,D1*%
%TO.N,Net-(U1-D1)*%
X166360000Y-99060000D03*
%TO.P,FEATHER-M4\u002A,P1_3,D0*%
%TO.N,Net-(U1-D0)*%
X163820000Y-99060000D03*
%TO.P,FEATHER-M4\u002A,P1_4,MISO*%
%TO.N,unconnected-(U1-MISO-PadP1_4)*%
X161280000Y-99060000D03*
%TO.P,FEATHER-M4\u002A,P1_5,MOSI*%
%TO.N,unconnected-(U1-MOSI-PadP1_5)*%
X158740000Y-99060000D03*
%TO.P,FEATHER-M4\u002A,P1_6,SCK*%
%TO.N,unconnected-(U1-SCK-PadP1_6)*%
X156200000Y-99060000D03*
%TO.P,FEATHER-M4\u002A,P1_7,A5*%
%TO.N,unconnected-(U1-A5-PadP1_7)*%
X153660000Y-99060000D03*
%TO.P,FEATHER-M4\u002A,P1_8,A4*%
%TO.N,unconnected-(U1-A4-PadP1_8)*%
X151120000Y-99060000D03*
%TO.P,FEATHER-M4\u002A,P1_9,A3*%
%TO.N,unconnected-(U1-A3-PadP1_9)*%
X148580000Y-99060000D03*
%TO.P,FEATHER-M4\u002A,P1_10,A2*%
%TO.N,unconnected-(U1-A2-PadP1_10)*%
X146040000Y-99060000D03*
%TO.P,FEATHER-M4\u002A,P1_11,A1*%
%TO.N,unconnected-(U1-A1-PadP1_11)*%
X143500000Y-99060000D03*
%TO.P,FEATHER-M4\u002A,P1_12,A0*%
%TO.N,unconnected-(U1-A0-PadP1_12)*%
X140960000Y-99060000D03*
%TO.P,FEATHER-M4\u002A,P1_13,GND*%
%TO.N,GND*%
X138420000Y-99060000D03*
%TO.P,FEATHER-M4\u002A,P1_14,AREF*%
%TO.N,unconnected-(U1-AREF-PadP1_14)*%
X135880000Y-99060000D03*
%TO.P,FEATHER-M4\u002A,P1_15,3V3*%
%TO.N,Net-(U1-3V3)*%
X133340000Y-99060000D03*
%TO.P,FEATHER-M4\u002A,P1_16,~{RESET}*%
%TO.N,unconnected-(U1-~{RESET}-PadP1_16)*%
X130800000Y-99060000D03*
D10*
%TO.P,FEATHER-M4\u002A,P2_1,VBAT*%
%TO.N,unconnected-(U1-VBAT-PadP2_1)*%
X140959999Y-78739999D03*
D11*
%TO.P,FEATHER-M4\u002A,P2_2,EN*%
%TO.N,unconnected-(U1-EN-PadP2_2)*%
X143500000Y-78740000D03*
%TO.P,FEATHER-M4\u002A,P2_3,VBUS*%
%TO.N,unconnected-(U1-VBUS-PadP2_3)*%
X146040000Y-78740000D03*
%TO.P,FEATHER-M4\u002A,P2_4,D13*%
%TO.N,unconnected-(U1-D13-PadP2_4)*%
X148580000Y-78740000D03*
%TO.P,FEATHER-M4\u002A,P2_5,D12*%
%TO.N,unconnected-(U1-D12-PadP2_5)*%
X151120000Y-78740000D03*
%TO.P,FEATHER-M4\u002A,P2_6,D11*%
%TO.N,unconnected-(U1-D11-PadP2_6)*%
X153660000Y-78740000D03*
%TO.P,FEATHER-M4\u002A,P2_7,D10*%
%TO.N,unconnected-(U1-D10-PadP2_7)*%
X156200000Y-78740000D03*
%TO.P,FEATHER-M4\u002A,P2_8,D9*%
%TO.N,unconnected-(U1-D9-PadP2_8)*%
X158740000Y-78740000D03*
%TO.P,FEATHER-M4\u002A,P2_9,D6*%
%TO.N,Net-(U1-D6)*%
X161280000Y-78740000D03*
%TO.P,FEATHER-M4\u002A,P2_10,D5*%
%TO.N,Net-(U1-D5)*%
X163820000Y-78740000D03*
%TO.P,FEATHER-M4\u002A,P2_11,SCL*%
%TO.N,unconnected-(U1-SCL-PadP2_11)*%
X166360000Y-78740000D03*
%TO.P,FEATHER-M4\u002A,P2_12,SDA*%
%TO.N,unconnected-(U1-SDA-PadP2_12)*%
X168900000Y-78740000D03*
%TD*%
%TO.P,REF\u002A\u002A,1*%
%TO.N,Net-(U1-D4)*%
X168940000Y-102500000D03*
%TO.P,REF\u002A\u002A,2*%
%TO.N,Net-(U1-D1)*%
X166400000Y-102500000D03*
%TO.P,REF\u002A\u002A,3*%
%TO.N,Net-(U1-D0)*%
X163860000Y-102500000D03*
%TO.P,REF\u002A\u002A,4*%
%TO.N,unconnected-(U1-MISO-PadP1_4)*%
X161320000Y-102500000D03*
%TO.P,REF\u002A\u002A,5*%
%TO.N,unconnected-(U1-MOSI-PadP1_5)*%
X158780000Y-102500000D03*
%TO.P,REF\u002A\u002A,6*%
%TO.N,unconnected-(U1-SCK-PadP1_6)*%
X156240000Y-102500000D03*
%TO.P,REF\u002A\u002A,7*%
%TO.N,unconnected-(U1-A5-PadP1_7)*%
X153700000Y-102500000D03*
%TO.P,REF\u002A\u002A,8*%
%TO.N,unconnected-(U1-A4-PadP1_8)*%
X151160000Y-102500000D03*
%TO.P,REF\u002A\u002A,9*%
%TO.N,unconnected-(U1-A3-PadP1_9)*%
X148620000Y-102500000D03*
%TO.P,REF\u002A\u002A,10*%
%TO.N,unconnected-(U1-A2-PadP1_10)*%
X146080000Y-102500000D03*
%TO.P,REF\u002A\u002A,11*%
%TO.N,unconnected-(U1-A1-PadP1_11)*%
X143540000Y-102500000D03*
%TO.P,REF\u002A\u002A,12*%
%TO.N,unconnected-(U1-A0-PadP1_12)*%
X141000000Y-102500000D03*
%TO.P,REF\u002A\u002A,13*%
%TO.N,GND*%
X138460000Y-102500000D03*
%TO.P,REF\u002A\u002A,14*%
%TO.N,unconnected-(U1-AREF-PadP1_14)*%
X135920000Y-102500000D03*
%TO.P,REF\u002A\u002A,15*%
%TO.N,Net-(U1-3V3)*%
X133380000Y-102500000D03*
%TO.P,REF\u002A\u002A,16*%
%TO.N,unconnected-(U1-~{RESET}-PadP1_16)*%
X130840000Y-102500000D03*
%TD*%
D12*
%TO.P,E220,1,M0*%
%TO.N,Net-(U1-D4)*%
X134389999Y-109299999D03*
%TO.P,E220,2,M1*%
%TO.N,Net-(U1-D5)*%
X134389999Y-111839999D03*
%TO.P,E220,3,RXD*%
%TO.N,Net-(U1-D1)*%
X134389999Y-114379999D03*
%TO.P,E220,4,TXD*%
%TO.N,Net-(U1-D0)*%
X134389999Y-116919999D03*
%TO.P,E220,5,AUX*%
%TO.N,Net-(U1-D6)*%
X134389999Y-119459999D03*
%TO.P,E220,6,VCC*%
%TO.N,Net-(U1-3V3)*%
X134389999Y-121999999D03*
D13*
%TO.P,E220,7,GND*%
%TO.N,GND*%
X134389999Y-124539999D03*
D12*
%TO.P,E220,8*%
%TO.N,N/C*%
X166139999Y-109299999D03*
%TO.P,E220,9*%
X166139999Y-111869999D03*
%TO.P,E220,10*%
X166139999Y-114409999D03*
%TD*%
D11*
%TO.P,REF\u002A\u002A,1*%
%TO.N,Net-(U1-D4)*%
X130890000Y-109260000D03*
%TO.P,REF\u002A\u002A,2*%
%TO.N,Net-(U1-D5)*%
X130890000Y-111800000D03*
%TO.P,REF\u002A\u002A,3*%
%TO.N,Net-(U1-D1)*%
X130890000Y-114340000D03*
%TO.P,REF\u002A\u002A,4*%
%TO.N,Net-(U1-D0)*%
X130890000Y-116880000D03*
%TO.P,REF\u002A\u002A,5*%
%TO.N,Net-(U1-D6)*%
X130890000Y-119420000D03*
%TO.P,REF\u002A\u002A,6*%
%TO.N,Net-(U1-3V3)*%
X130890000Y-121960000D03*
D10*
%TO.P,REF\u002A\u002A,7*%
%TO.N,GND*%
X130889999Y-124499999D03*
%TD*%
D14*
%TO.N,GND*%
X137860000Y-126260000D03*
X155380000Y-84550000D03*
X154400000Y-105300000D03*
X169500000Y-113000000D03*
X143700000Y-105300000D03*
X150480000Y-80690000D03*
X133780000Y-96870000D03*
X145510000Y-126260000D03*
X150630000Y-93900000D03*
X148620000Y-122840000D03*
X161700000Y-116000000D03*
X134600000Y-84100000D03*
X169400000Y-109500000D03*
X155010000Y-90480000D03*
X144910000Y-84250000D03*
X147400000Y-111600000D03*
X133860000Y-90480000D03*
X139900000Y-111600000D03*
X164200000Y-119600000D03*
X152260000Y-126260000D03*
X145140000Y-90260000D03*
X145510000Y-119500000D03*
X155450000Y-96940000D03*
X130000000Y-80540000D03*
X165100000Y-93820000D03*
X158500000Y-126100000D03*
X167850000Y-81950000D03*
X167700000Y-90480000D03*
X155400000Y-123000000D03*
X161760000Y-96940000D03*
X161690000Y-90560000D03*
X137860000Y-119500000D03*
X134100000Y-105300000D03*
X138980000Y-80390000D03*
X145140000Y-96870000D03*
X152260000Y-119500000D03*
X158640000Y-93900000D03*
X167850000Y-85880000D03*
X158400000Y-119600000D03*
X164500000Y-126200000D03*
X161800000Y-112600000D03*
X161400000Y-123200000D03*
X141650000Y-122840000D03*
X170520000Y-93820000D03*
X139570000Y-93600000D03*
%TD*%
D15*
%TO.N,Net-(U1-D4)*%
X134390000Y-109300000D02*
X162180000Y-109300000D01*
X173500000Y-100500000D02*
X172060000Y-99060000D01*
X162180000Y-109300000D02*
X165480000Y-106000000D01*
X172000000Y-106000000D02*
X173500000Y-104500000D01*
X172060000Y-99060000D02*
X168900000Y-99060000D01*
X165480000Y-106000000D02*
X172000000Y-106000000D01*
X173500000Y-104500000D02*
X173500000Y-100500000D01*
X168900000Y-99060000D02*
X168900000Y-102460000D01*
X168900000Y-102460000D02*
X168940000Y-102500000D01*
%TO.N,Net-(U1-D1)*%
X166360000Y-99060000D02*
X166360000Y-102460000D01*
X166360000Y-102460000D02*
X166400000Y-102500000D01*
%TO.N,Net-(U1-D0)*%
X163820000Y-102460000D02*
X163860000Y-102500000D01*
X163820000Y-99060000D02*
X163820000Y-102460000D01*
%TO.N,unconnected-(U1-MISO-PadP1_4)*%
X161280000Y-99060000D02*
X161280000Y-102460000D01*
X161280000Y-102460000D02*
X161320000Y-102500000D01*
%TO.N,unconnected-(U1-MOSI-PadP1_5)*%
X158740000Y-102460000D02*
X158780000Y-102500000D01*
X158740000Y-99060000D02*
X158740000Y-102460000D01*
%TO.N,unconnected-(U1-SCK-PadP1_6)*%
X156200000Y-102460000D02*
X156240000Y-102500000D01*
X156200000Y-99060000D02*
X156200000Y-102460000D01*
%TO.N,unconnected-(U1-A5-PadP1_7)*%
X153660000Y-102460000D02*
X153700000Y-102500000D01*
X153660000Y-99060000D02*
X153660000Y-102460000D01*
%TO.N,unconnected-(U1-A4-PadP1_8)*%
X151120000Y-99060000D02*
X151120000Y-102460000D01*
X151120000Y-102460000D02*
X151160000Y-102500000D01*
%TO.N,unconnected-(U1-A3-PadP1_9)*%
X148580000Y-99060000D02*
X148580000Y-102460000D01*
X148580000Y-102460000D02*
X148620000Y-102500000D01*
%TO.N,unconnected-(U1-A2-PadP1_10)*%
X146040000Y-102460000D02*
X146080000Y-102500000D01*
X146040000Y-99060000D02*
X146040000Y-102460000D01*
%TO.N,unconnected-(U1-A1-PadP1_11)*%
X143500000Y-99060000D02*
X143500000Y-102460000D01*
X143500000Y-102460000D02*
X143540000Y-102500000D01*
%TO.N,unconnected-(U1-A0-PadP1_12)*%
X140960000Y-99060000D02*
X140960000Y-102460000D01*
X140960000Y-102460000D02*
X141000000Y-102500000D01*
%TO.N,GND*%
X138420000Y-99060000D02*
X138420000Y-102460000D01*
X138420000Y-102460000D02*
X138460000Y-102500000D01*
%TO.N,unconnected-(U1-AREF-PadP1_14)*%
X135880000Y-99060000D02*
X135880000Y-102460000D01*
X135880000Y-102460000D02*
X135920000Y-102500000D01*
%TO.N,Net-(U1-3V3)*%
X133380000Y-102500000D02*
X133380000Y-99100000D01*
X133380000Y-99100000D02*
X133340000Y-99060000D01*
%TO.N,unconnected-(U1-~{RESET}-PadP1_16)*%
X130840000Y-102500000D02*
X130840000Y-99100000D01*
X130840000Y-99100000D02*
X130800000Y-99060000D01*
%TO.N,unconnected-(U1-VBAT-PadP2_1)*%
X140960000Y-75350000D02*
X140960000Y-78740000D01*
%TO.N,unconnected-(U1-EN-PadP2_2)*%
X143500000Y-75350000D02*
X143500000Y-78740000D01*
%TO.N,unconnected-(U1-VBUS-PadP2_3)*%
X146040000Y-75350000D02*
X146040000Y-78740000D01*
%TO.N,unconnected-(U1-D13-PadP2_4)*%
X148580000Y-75350000D02*
X148580000Y-78740000D01*
%TO.N,unconnected-(U1-D12-PadP2_5)*%
X151120000Y-75350000D02*
X151120000Y-78740000D01*
%TO.N,unconnected-(U1-D11-PadP2_6)*%
X153660000Y-75350000D02*
X153660000Y-78740000D01*
%TO.N,unconnected-(U1-D10-PadP2_7)*%
X156200000Y-75350000D02*
X156200000Y-78740000D01*
%TO.N,unconnected-(U1-D9-PadP2_8)*%
X158740000Y-75350000D02*
X158740000Y-78740000D01*
%TO.N,Net-(U1-D6)*%
X130330000Y-115790000D02*
X127000000Y-112460000D01*
X127000000Y-90000000D02*
X131000000Y-86000000D01*
X160500000Y-86000000D02*
X161280000Y-85220000D01*
X131341493Y-115790000D02*
X130330000Y-115790000D01*
X161280000Y-85220000D02*
X161280000Y-78740000D01*
X131980000Y-117050000D02*
X131980000Y-116428507D01*
X131980000Y-116428507D02*
X131341493Y-115790000D01*
X127000000Y-112460000D02*
X127000000Y-90000000D01*
X134390000Y-119460000D02*
X131980000Y-117050000D01*
X161280000Y-75350000D02*
X161280000Y-78740000D01*
X131000000Y-86000000D02*
X160500000Y-86000000D01*
%TO.N,Net-(U1-D5)*%
X133260000Y-110710000D02*
X130210000Y-110710000D01*
X163820000Y-86680000D02*
X163820000Y-78740000D01*
X128500000Y-109000000D02*
X128500000Y-92000000D01*
X130210000Y-110710000D02*
X128500000Y-109000000D01*
X134390000Y-111840000D02*
X133260000Y-110710000D01*
X132000000Y-88500000D02*
X162000000Y-88500000D01*
X162000000Y-88500000D02*
X163820000Y-86680000D01*
X163820000Y-75350000D02*
X163820000Y-78740000D01*
X128500000Y-92000000D02*
X132000000Y-88500000D01*
%TO.N,unconnected-(U1-SCL-PadP2_11)*%
X166360000Y-75350000D02*
X166360000Y-78740000D01*
%TO.N,unconnected-(U1-SDA-PadP2_12)*%
X168900000Y-75350000D02*
X168900000Y-78740000D01*
%TD*%
%TA.AperFunction,Conductor*%
%TO.N,GND*%
G36*
X179127980Y-69876849D02*
G01*
X179173526Y-69922000D01*
X179190422Y-69983867D01*
X179489371Y-129395064D01*
X179472916Y-129457417D01*
X179427375Y-129503074D01*
X179365064Y-129519688D01*
X119433691Y-129370308D01*
X119371822Y-129353592D01*
X119326561Y-129308219D01*
X119310000Y-129246308D01*
X119310000Y-126067765D01*
X121145788Y-126067765D01*
X121146282Y-126072262D01*
X121146283Y-126072267D01*
X121174917Y-126332506D01*
X121174918Y-126332513D01*
X121175414Y-126337018D01*
X121176559Y-126341398D01*
X121176561Y-126341408D01*
X121208830Y-126464838D01*
X121243928Y-126599088D01*
X121245693Y-126603242D01*
X121245696Y-126603250D01*
X121348099Y-126844223D01*
X121349870Y-126848390D01*
X121352226Y-126852251D01*
X121352229Y-126852256D01*
X121488618Y-127075737D01*
X121490982Y-127079610D01*
X121664255Y-127287820D01*
X121667630Y-127290844D01*
X121667631Y-127290845D01*
X121772330Y-127384656D01*
X121865998Y-127468582D01*
X122091910Y-127618044D01*
X122337176Y-127733020D01*
X122596569Y-127811060D01*
X122864561Y-127850500D01*
X123065369Y-127850500D01*
X123067631Y-127850500D01*
X123270156Y-127835677D01*
X123534553Y-127776780D01*
X123787558Y-127680014D01*
X124023777Y-127547441D01*
X124238177Y-127381888D01*
X124426186Y-127186881D01*
X124583799Y-126966579D01*
X124707656Y-126725675D01*
X124795118Y-126469305D01*
X124844319Y-126202933D01*
X124849259Y-126067765D01*
X174145788Y-126067765D01*
X174146282Y-126072262D01*
X174146283Y-126072267D01*
X174174917Y-126332506D01*
X174174918Y-126332513D01*
X174175414Y-126337018D01*
X174176559Y-126341398D01*
X174176561Y-126341408D01*
X174208830Y-126464838D01*
X174243928Y-126599088D01*
X174245693Y-126603242D01*
X174245696Y-126603250D01*
X174348099Y-126844223D01*
X174349870Y-126848390D01*
X174352226Y-126852251D01*
X174352229Y-126852256D01*
X174488618Y-127075737D01*
X174490982Y-127079610D01*
X174664255Y-127287820D01*
X174667630Y-127290844D01*
X174667631Y-127290845D01*
X174772330Y-127384656D01*
X174865998Y-127468582D01*
X175091910Y-127618044D01*
X175337176Y-127733020D01*
X175596569Y-127811060D01*
X175864561Y-127850500D01*
X176065369Y-127850500D01*
X176067631Y-127850500D01*
X176270156Y-127835677D01*
X176534553Y-127776780D01*
X176787558Y-127680014D01*
X177023777Y-127547441D01*
X177238177Y-127381888D01*
X177426186Y-127186881D01*
X177583799Y-126966579D01*
X177707656Y-126725675D01*
X177795118Y-126469305D01*
X177844319Y-126202933D01*
X177854212Y-125932235D01*
X177824586Y-125662982D01*
X177756072Y-125400912D01*
X177650130Y-125151610D01*
X177509018Y-124920390D01*
X177335745Y-124712180D01*
X177230759Y-124618112D01*
X177137382Y-124534446D01*
X177137378Y-124534442D01*
X177134002Y-124531418D01*
X176908090Y-124381956D01*
X176903996Y-124380036D01*
X176903991Y-124380034D01*
X176666929Y-124268904D01*
X176666925Y-124268902D01*
X176662824Y-124266980D01*
X176658477Y-124265672D01*
X176658474Y-124265671D01*
X176407772Y-124190246D01*
X176407771Y-124190245D01*
X176403431Y-124188940D01*
X176398957Y-124188281D01*
X176398950Y-124188280D01*
X176139913Y-124150158D01*
X176139907Y-124150157D01*
X176135439Y-124149500D01*
X175932369Y-124149500D01*
X175930120Y-124149664D01*
X175930109Y-124149665D01*
X175734363Y-124163992D01*
X175734359Y-124163992D01*
X175729844Y-124164323D01*
X175725426Y-124165307D01*
X175725420Y-124165308D01*
X175469877Y-124222232D01*
X175469861Y-124222236D01*
X175465447Y-124223220D01*
X175461216Y-124224838D01*
X175461210Y-124224840D01*
X175216673Y-124318367D01*
X175216663Y-124318371D01*
X175212442Y-124319986D01*
X175208494Y-124322201D01*
X175208489Y-124322204D01*
X174980176Y-124450340D01*
X174980171Y-124450343D01*
X174976223Y-124452559D01*
X174972639Y-124455325D01*
X174972635Y-124455329D01*
X174765407Y-124615343D01*
X174765394Y-124615354D01*
X174761823Y-124618112D01*
X174758685Y-124621366D01*
X174758678Y-124621373D01*
X174576958Y-124809857D01*
X174576952Y-124809864D01*
X174573814Y-124813119D01*
X174571189Y-124816787D01*
X174571179Y-124816800D01*
X174418834Y-125029740D01*
X174418830Y-125029745D01*
X174416201Y-125033421D01*
X174414132Y-125037444D01*
X174414129Y-125037450D01*
X174294416Y-125270293D01*
X174294411Y-125270304D01*
X174292344Y-125274325D01*
X174290884Y-125278602D01*
X174290879Y-125278616D01*
X174206348Y-125526395D01*
X174206344Y-125526407D01*
X174204882Y-125530695D01*
X174204057Y-125535159D01*
X174204057Y-125535161D01*
X174156504Y-125792606D01*
X174156502Y-125792619D01*
X174155681Y-125797067D01*
X174155515Y-125801593D01*
X174155515Y-125801599D01*
X174150576Y-125936762D01*
X174145788Y-126067765D01*
X124849259Y-126067765D01*
X124854212Y-125932235D01*
X124824586Y-125662982D01*
X124756072Y-125400912D01*
X124717234Y-125309518D01*
X129625000Y-125309518D01*
X129625353Y-125316114D01*
X129630573Y-125364667D01*
X129634111Y-125379641D01*
X129678547Y-125498777D01*
X129686962Y-125514189D01*
X129762498Y-125615092D01*
X129774907Y-125627501D01*
X129875810Y-125703037D01*
X129891222Y-125711452D01*
X130010358Y-125755888D01*
X130025332Y-125759426D01*
X130073885Y-125764646D01*
X130080482Y-125765000D01*
X130623674Y-125765000D01*
X130636549Y-125761549D01*
X130640000Y-125748674D01*
X131140000Y-125748674D01*
X131143450Y-125761549D01*
X131156326Y-125765000D01*
X131699518Y-125765000D01*
X131706114Y-125764646D01*
X131754667Y-125759426D01*
X131769641Y-125755888D01*
X131888777Y-125711452D01*
X131904189Y-125703037D01*
X132005092Y-125627501D01*
X132017501Y-125615092D01*
X132093037Y-125514189D01*
X132101452Y-125498777D01*
X132125420Y-125434518D01*
X133040000Y-125434518D01*
X133040353Y-125441114D01*
X133045573Y-125489667D01*
X133049111Y-125504641D01*
X133093547Y-125623777D01*
X133101962Y-125639189D01*
X133177498Y-125740092D01*
X133189907Y-125752501D01*
X133290810Y-125828037D01*
X133306222Y-125836452D01*
X133425358Y-125880888D01*
X133440332Y-125884426D01*
X133488885Y-125889646D01*
X133495482Y-125890000D01*
X134123674Y-125890000D01*
X134136549Y-125886549D01*
X134140000Y-125873674D01*
X134640000Y-125873674D01*
X134643450Y-125886549D01*
X134656326Y-125890000D01*
X135284518Y-125890000D01*
X135291114Y-125889646D01*
X135339667Y-125884426D01*
X135354641Y-125880888D01*
X135473777Y-125836452D01*
X135489189Y-125828037D01*
X135590092Y-125752501D01*
X135602501Y-125740092D01*
X135678037Y-125639189D01*
X135686452Y-125623777D01*
X135730888Y-125504641D01*
X135734426Y-125489667D01*
X135739646Y-125441114D01*
X135740000Y-125434518D01*
X135740000Y-124806326D01*
X135736549Y-124793450D01*
X135723674Y-124790000D01*
X134656326Y-124790000D01*
X134643450Y-124793450D01*
X134640000Y-124806326D01*
X134640000Y-125873674D01*
X134140000Y-125873674D01*
X134140000Y-124806326D01*
X134136549Y-124793450D01*
X134123674Y-124790000D01*
X133056326Y-124790000D01*
X133043450Y-124793450D01*
X133040000Y-124806326D01*
X133040000Y-125434518D01*
X132125420Y-125434518D01*
X132145888Y-125379641D01*
X132149426Y-125364667D01*
X132154646Y-125316114D01*
X132155000Y-125309518D01*
X132155000Y-124766326D01*
X132151549Y-124753450D01*
X132138674Y-124750000D01*
X131156326Y-124750000D01*
X131143450Y-124753450D01*
X131140000Y-124766326D01*
X131140000Y-125748674D01*
X130640000Y-125748674D01*
X130640000Y-124766326D01*
X130636549Y-124753450D01*
X130623674Y-124750000D01*
X129641326Y-124750000D01*
X129628450Y-124753450D01*
X129625000Y-124766326D01*
X129625000Y-125309518D01*
X124717234Y-125309518D01*
X124650130Y-125151610D01*
X124509018Y-124920390D01*
X124335745Y-124712180D01*
X124230759Y-124618112D01*
X124137382Y-124534446D01*
X124137378Y-124534442D01*
X124134002Y-124531418D01*
X123908090Y-124381956D01*
X123903996Y-124380036D01*
X123903991Y-124380034D01*
X123666929Y-124268904D01*
X123666925Y-124268902D01*
X123662824Y-124266980D01*
X123658477Y-124265672D01*
X123658474Y-124265671D01*
X123407772Y-124190246D01*
X123407771Y-124190245D01*
X123403431Y-124188940D01*
X123398957Y-124188281D01*
X123398950Y-124188280D01*
X123139913Y-124150158D01*
X123139907Y-124150157D01*
X123135439Y-124149500D01*
X122932369Y-124149500D01*
X122930120Y-124149664D01*
X122930109Y-124149665D01*
X122734363Y-124163992D01*
X122734359Y-124163992D01*
X122729844Y-124164323D01*
X122725426Y-124165307D01*
X122725420Y-124165308D01*
X122469877Y-124222232D01*
X122469861Y-124222236D01*
X122465447Y-124223220D01*
X122461216Y-124224838D01*
X122461210Y-124224840D01*
X122216673Y-124318367D01*
X122216663Y-124318371D01*
X122212442Y-124319986D01*
X122208494Y-124322201D01*
X122208489Y-124322204D01*
X121980176Y-124450340D01*
X121980171Y-124450343D01*
X121976223Y-124452559D01*
X121972639Y-124455325D01*
X121972635Y-124455329D01*
X121765407Y-124615343D01*
X121765394Y-124615354D01*
X121761823Y-124618112D01*
X121758685Y-124621366D01*
X121758678Y-124621373D01*
X121576958Y-124809857D01*
X121576952Y-124809864D01*
X121573814Y-124813119D01*
X121571189Y-124816787D01*
X121571179Y-124816800D01*
X121418834Y-125029740D01*
X121418830Y-125029745D01*
X121416201Y-125033421D01*
X121414132Y-125037444D01*
X121414129Y-125037450D01*
X121294416Y-125270293D01*
X121294411Y-125270304D01*
X121292344Y-125274325D01*
X121290884Y-125278602D01*
X121290879Y-125278616D01*
X121206348Y-125526395D01*
X121206344Y-125526407D01*
X121204882Y-125530695D01*
X121204057Y-125535159D01*
X121204057Y-125535161D01*
X121156504Y-125792606D01*
X121156502Y-125792619D01*
X121155681Y-125797067D01*
X121155515Y-125801593D01*
X121155515Y-125801599D01*
X121150576Y-125936762D01*
X121145788Y-126067765D01*
X119310000Y-126067765D01*
X119310000Y-89980196D01*
X126369840Y-89980196D01*
X126370574Y-89987961D01*
X126370574Y-89987964D01*
X126373950Y-90023676D01*
X126374500Y-90035345D01*
X126374500Y-112382225D01*
X126373978Y-112393280D01*
X126372327Y-112400667D01*
X126372571Y-112408453D01*
X126372571Y-112408461D01*
X126374439Y-112467873D01*
X126374500Y-112471768D01*
X126374500Y-112499350D01*
X126374988Y-112503219D01*
X126374989Y-112503225D01*
X126375004Y-112503343D01*
X126375918Y-112514966D01*
X126377045Y-112550830D01*
X126377046Y-112550837D01*
X126377291Y-112558627D01*
X126379467Y-112566119D01*
X126379468Y-112566121D01*
X126382879Y-112577862D01*
X126386825Y-112596915D01*
X126389336Y-112616792D01*
X126392206Y-112624042D01*
X126392208Y-112624048D01*
X126405414Y-112657404D01*
X126409197Y-112668451D01*
X126421382Y-112710390D01*
X126425353Y-112717105D01*
X126425354Y-112717107D01*
X126431581Y-112727637D01*
X126440136Y-112745099D01*
X126444642Y-112756480D01*
X126444643Y-112756483D01*
X126447514Y-112763732D01*
X126469440Y-112793912D01*
X126473181Y-112799060D01*
X126479593Y-112808822D01*
X126497856Y-112839702D01*
X126497859Y-112839707D01*
X126501830Y-112846420D01*
X126507345Y-112851935D01*
X126515990Y-112860580D01*
X126528626Y-112875374D01*
X126535819Y-112885275D01*
X126535823Y-112885279D01*
X126540406Y-112891587D01*
X126546415Y-112896558D01*
X126546416Y-112896559D01*
X126574058Y-112919426D01*
X126582699Y-112927289D01*
X129763566Y-116108157D01*
X129791124Y-116150056D01*
X129799833Y-116199444D01*
X129788268Y-116248242D01*
X129707873Y-116420651D01*
X129696277Y-116445520D01*
X129694880Y-116450730D01*
X129694877Y-116450741D01*
X129640366Y-116654176D01*
X129640363Y-116654189D01*
X129638965Y-116659409D01*
X129638493Y-116664798D01*
X129638492Y-116664807D01*
X129627802Y-116787000D01*
X129619666Y-116880000D01*
X129620138Y-116885395D01*
X129638492Y-117095192D01*
X129638493Y-117095199D01*
X129638965Y-117100591D01*
X129640364Y-117105812D01*
X129640366Y-117105823D01*
X129694877Y-117309258D01*
X129694879Y-117309265D01*
X129696277Y-117314480D01*
X129789858Y-117515167D01*
X129792965Y-117519604D01*
X129913762Y-117692120D01*
X129913765Y-117692124D01*
X129916868Y-117696555D01*
X130073445Y-117853132D01*
X130254833Y-117980142D01*
X130378092Y-118037618D01*
X130430268Y-118083375D01*
X130449687Y-118150000D01*
X130430268Y-118216625D01*
X130378092Y-118262382D01*
X130259743Y-118317568D01*
X130259738Y-118317570D01*
X130254833Y-118319858D01*
X130250399Y-118322962D01*
X130250395Y-118322965D01*
X130077879Y-118443762D01*
X130077869Y-118443769D01*
X130073445Y-118446868D01*
X130069619Y-118450693D01*
X130069613Y-118450699D01*
X129920699Y-118599613D01*
X129920693Y-118599619D01*
X129916868Y-118603445D01*
X129913769Y-118607869D01*
X129913762Y-118607879D01*
X129792965Y-118780395D01*
X129792962Y-118780399D01*
X129789858Y-118784833D01*
X129787569Y-118789741D01*
X129787566Y-118789747D01*
X129698563Y-118980616D01*
X129698560Y-118980623D01*
X129696277Y-118985520D01*
X129694880Y-118990730D01*
X129694877Y-118990741D01*
X129640366Y-119194176D01*
X129640363Y-119194189D01*
X129638965Y-119199409D01*
X129638493Y-119204798D01*
X129638492Y-119204807D01*
X129636290Y-119229982D01*
X129619666Y-119420000D01*
X129620138Y-119425395D01*
X129638492Y-119635192D01*
X129638493Y-119635199D01*
X129638965Y-119640591D01*
X129640364Y-119645812D01*
X129640366Y-119645823D01*
X129694877Y-119849258D01*
X129694879Y-119849265D01*
X129696277Y-119854480D01*
X129789858Y-120055167D01*
X129792965Y-120059604D01*
X129913762Y-120232120D01*
X129913765Y-120232124D01*
X129916868Y-120236555D01*
X130073445Y-120393132D01*
X130254833Y-120520142D01*
X130378092Y-120577618D01*
X130430268Y-120623375D01*
X130449687Y-120690000D01*
X130430268Y-120756625D01*
X130378092Y-120802382D01*
X130259743Y-120857568D01*
X130259738Y-120857570D01*
X130254833Y-120859858D01*
X130250399Y-120862962D01*
X130250395Y-120862965D01*
X130077879Y-120983762D01*
X130077869Y-120983769D01*
X130073445Y-120986868D01*
X130069619Y-120990693D01*
X130069613Y-120990699D01*
X129920699Y-121139613D01*
X129920693Y-121139619D01*
X129916868Y-121143445D01*
X129913769Y-121147869D01*
X129913762Y-121147879D01*
X129792965Y-121320395D01*
X129792962Y-121320399D01*
X129789858Y-121324833D01*
X129787569Y-121329741D01*
X129787566Y-121329747D01*
X129698563Y-121520616D01*
X129698560Y-121520623D01*
X129696277Y-121525520D01*
X129694880Y-121530730D01*
X129694877Y-121530741D01*
X129640366Y-121734176D01*
X129640363Y-121734189D01*
X129638965Y-121739409D01*
X129638493Y-121744798D01*
X129638492Y-121744807D01*
X129636290Y-121769982D01*
X129619666Y-121960000D01*
X129620138Y-121965395D01*
X129638492Y-122175192D01*
X129638493Y-122175199D01*
X129638965Y-122180591D01*
X129640364Y-122185812D01*
X129640366Y-122185823D01*
X129694877Y-122389258D01*
X129694879Y-122389265D01*
X129696277Y-122394480D01*
X129789858Y-122595167D01*
X129792965Y-122599604D01*
X129913762Y-122772120D01*
X129913765Y-122772124D01*
X129916868Y-122776555D01*
X130073445Y-122933132D01*
X130077877Y-122936235D01*
X130077879Y-122936237D01*
X130182402Y-123009425D01*
X130222729Y-123056642D01*
X130235108Y-123117490D01*
X130216436Y-123176710D01*
X130171394Y-123219453D01*
X130111278Y-123235000D01*
X130080482Y-123235000D01*
X130073885Y-123235353D01*
X130025332Y-123240573D01*
X130010358Y-123244111D01*
X129891222Y-123288547D01*
X129875810Y-123296962D01*
X129774907Y-123372498D01*
X129762498Y-123384907D01*
X129686962Y-123485810D01*
X129678547Y-123501222D01*
X129634111Y-123620358D01*
X129630573Y-123635332D01*
X129625353Y-123683885D01*
X129625000Y-123690482D01*
X129625000Y-124233674D01*
X129628450Y-124246549D01*
X129641326Y-124250000D01*
X132138674Y-124250000D01*
X132151549Y-124246549D01*
X132155000Y-124233674D01*
X132155000Y-123690482D01*
X132154646Y-123683885D01*
X132149426Y-123635332D01*
X132145888Y-123620358D01*
X132101452Y-123501222D01*
X132093037Y-123485810D01*
X132017501Y-123384907D01*
X132005092Y-123372498D01*
X131904189Y-123296962D01*
X131888777Y-123288547D01*
X131769641Y-123244111D01*
X131754667Y-123240573D01*
X131706114Y-123235353D01*
X131699518Y-123235000D01*
X131668722Y-123235000D01*
X131608606Y-123219453D01*
X131563564Y-123176710D01*
X131544892Y-123117490D01*
X131557271Y-123056642D01*
X131597598Y-123009425D01*
X131620037Y-122993713D01*
X131706555Y-122933132D01*
X131863132Y-122776555D01*
X131990142Y-122595167D01*
X132083723Y-122394480D01*
X132141035Y-122180591D01*
X132160334Y-121960000D01*
X132141035Y-121739409D01*
X132083723Y-121525520D01*
X131990142Y-121324833D01*
X131863132Y-121143445D01*
X131706555Y-120986868D01*
X131702124Y-120983765D01*
X131702120Y-120983762D01*
X131529604Y-120862965D01*
X131529605Y-120862965D01*
X131525167Y-120859858D01*
X131401907Y-120802381D01*
X131349732Y-120756625D01*
X131330312Y-120690000D01*
X131349732Y-120623375D01*
X131401908Y-120577618D01*
X131525167Y-120520142D01*
X131706555Y-120393132D01*
X131863132Y-120236555D01*
X131990142Y-120055167D01*
X132083723Y-119854480D01*
X132141035Y-119640591D01*
X132160334Y-119420000D01*
X132141035Y-119199409D01*
X132083723Y-118985520D01*
X131990142Y-118784833D01*
X131863132Y-118603445D01*
X131706555Y-118446868D01*
X131702124Y-118443765D01*
X131702120Y-118443762D01*
X131529604Y-118322965D01*
X131529605Y-118322965D01*
X131525167Y-118319858D01*
X131401907Y-118262381D01*
X131349732Y-118216625D01*
X131330312Y-118150000D01*
X131349732Y-118083375D01*
X131401908Y-118037618D01*
X131525167Y-117980142D01*
X131706555Y-117853132D01*
X131714860Y-117844826D01*
X131770445Y-117812728D01*
X131834637Y-117812724D01*
X131890229Y-117844819D01*
X133049762Y-119004352D01*
X133081856Y-119059939D01*
X133081856Y-119124126D01*
X133056337Y-119219365D01*
X133056335Y-119219370D01*
X133054937Y-119224592D01*
X133034341Y-119460000D01*
X133034813Y-119465395D01*
X133049668Y-119635192D01*
X133054937Y-119695408D01*
X133056336Y-119700630D01*
X133056337Y-119700634D01*
X133114694Y-119918430D01*
X133114697Y-119918438D01*
X133116097Y-119923663D01*
X133118385Y-119928570D01*
X133118386Y-119928572D01*
X133213678Y-120132927D01*
X133213681Y-120132933D01*
X133215965Y-120137830D01*
X133219064Y-120142257D01*
X133219066Y-120142259D01*
X133348399Y-120326966D01*
X133348402Y-120326970D01*
X133351505Y-120331401D01*
X133518599Y-120498495D01*
X133523032Y-120501599D01*
X133523038Y-120501604D01*
X133704158Y-120628425D01*
X133743024Y-120672743D01*
X133757035Y-120730000D01*
X133743024Y-120787257D01*
X133704159Y-120831575D01*
X133523041Y-120958395D01*
X133518599Y-120961505D01*
X133514775Y-120965328D01*
X133514769Y-120965334D01*
X133355334Y-121124769D01*
X133355328Y-121124775D01*
X133351505Y-121128599D01*
X133348402Y-121133029D01*
X133348399Y-121133034D01*
X133219073Y-121317731D01*
X133219068Y-121317738D01*
X133215965Y-121322171D01*
X133213677Y-121327077D01*
X133213675Y-121327081D01*
X133118386Y-121531427D01*
X133118383Y-121531432D01*
X133116097Y-121536337D01*
X133114698Y-121541557D01*
X133114694Y-121541569D01*
X133056337Y-121759365D01*
X133056335Y-121759371D01*
X133054937Y-121764592D01*
X133034341Y-122000000D01*
X133034813Y-122005395D01*
X133049668Y-122175192D01*
X133054937Y-122235408D01*
X133056336Y-122240630D01*
X133056337Y-122240634D01*
X133114694Y-122458430D01*
X133114697Y-122458438D01*
X133116097Y-122463663D01*
X133118385Y-122468570D01*
X133118386Y-122468572D01*
X133213678Y-122672927D01*
X133213681Y-122672933D01*
X133215965Y-122677830D01*
X133219064Y-122682257D01*
X133219066Y-122682259D01*
X133348399Y-122866966D01*
X133348402Y-122866970D01*
X133351505Y-122871401D01*
X133355336Y-122875232D01*
X133473818Y-122993714D01*
X133505114Y-123046460D01*
X133507303Y-123107753D01*
X133479850Y-123162597D01*
X133429471Y-123197576D01*
X133306226Y-123243544D01*
X133290810Y-123251962D01*
X133189907Y-123327498D01*
X133177498Y-123339907D01*
X133101962Y-123440810D01*
X133093547Y-123456222D01*
X133049111Y-123575358D01*
X133045573Y-123590332D01*
X133040353Y-123638885D01*
X133040000Y-123645482D01*
X133040000Y-124273674D01*
X133043450Y-124286549D01*
X133056326Y-124290000D01*
X135723674Y-124290000D01*
X135736549Y-124286549D01*
X135740000Y-124273674D01*
X135740000Y-123645482D01*
X135739646Y-123638885D01*
X135734426Y-123590332D01*
X135730888Y-123575358D01*
X135686452Y-123456222D01*
X135678037Y-123440810D01*
X135602501Y-123339907D01*
X135590092Y-123327498D01*
X135489189Y-123251962D01*
X135473779Y-123243548D01*
X135350528Y-123197577D01*
X135300149Y-123162597D01*
X135272696Y-123107753D01*
X135274885Y-123046460D01*
X135306178Y-122993717D01*
X135428495Y-122871401D01*
X135564035Y-122677830D01*
X135663903Y-122463663D01*
X135725063Y-122235408D01*
X135745659Y-122000000D01*
X135725063Y-121764592D01*
X135663903Y-121536337D01*
X135564035Y-121322171D01*
X135428495Y-121128599D01*
X135261401Y-120961505D01*
X135256968Y-120958401D01*
X135256961Y-120958395D01*
X135075842Y-120831575D01*
X135036976Y-120787257D01*
X135022965Y-120730000D01*
X135036976Y-120672743D01*
X135075842Y-120628425D01*
X135256961Y-120501604D01*
X135256961Y-120501603D01*
X135261401Y-120498495D01*
X135428495Y-120331401D01*
X135564035Y-120137830D01*
X135663903Y-119923663D01*
X135725063Y-119695408D01*
X135745659Y-119460000D01*
X135725063Y-119224592D01*
X135663903Y-118996337D01*
X135564035Y-118782171D01*
X135428495Y-118588599D01*
X135261401Y-118421505D01*
X135256968Y-118418401D01*
X135256961Y-118418395D01*
X135075842Y-118291575D01*
X135036976Y-118247257D01*
X135022965Y-118190000D01*
X135036976Y-118132743D01*
X135075842Y-118088425D01*
X135256961Y-117961604D01*
X135256961Y-117961603D01*
X135261401Y-117958495D01*
X135428495Y-117791401D01*
X135564035Y-117597830D01*
X135663903Y-117383663D01*
X135725063Y-117155408D01*
X135745659Y-116920000D01*
X135725063Y-116684592D01*
X135663903Y-116456337D01*
X135564035Y-116242171D01*
X135428495Y-116048599D01*
X135261401Y-115881505D01*
X135256968Y-115878401D01*
X135256961Y-115878395D01*
X135075842Y-115751575D01*
X135036976Y-115707257D01*
X135022965Y-115650000D01*
X135036976Y-115592743D01*
X135075842Y-115548425D01*
X135256961Y-115421604D01*
X135256961Y-115421603D01*
X135261401Y-115418495D01*
X135428495Y-115251401D01*
X135564035Y-115057830D01*
X135663903Y-114843663D01*
X135725063Y-114615408D01*
X135743034Y-114410000D01*
X164784341Y-114410000D01*
X164784813Y-114415395D01*
X164802769Y-114620634D01*
X164804937Y-114645408D01*
X164806336Y-114650630D01*
X164806337Y-114650634D01*
X164864694Y-114868430D01*
X164864697Y-114868438D01*
X164866097Y-114873663D01*
X164868385Y-114878570D01*
X164868386Y-114878572D01*
X164963678Y-115082927D01*
X164963681Y-115082933D01*
X164965965Y-115087830D01*
X164969064Y-115092257D01*
X164969066Y-115092259D01*
X165098399Y-115276966D01*
X165098402Y-115276970D01*
X165101505Y-115281401D01*
X165268599Y-115448495D01*
X165462170Y-115584035D01*
X165676337Y-115683903D01*
X165904592Y-115745063D01*
X166140000Y-115765659D01*
X166375408Y-115745063D01*
X166603663Y-115683903D01*
X166817830Y-115584035D01*
X167011401Y-115448495D01*
X167178495Y-115281401D01*
X167314035Y-115087830D01*
X167413903Y-114873663D01*
X167475063Y-114645408D01*
X167495659Y-114410000D01*
X167475063Y-114174592D01*
X167413903Y-113946337D01*
X167314035Y-113732171D01*
X167178495Y-113538599D01*
X167011401Y-113371505D01*
X167006968Y-113368401D01*
X167006961Y-113368395D01*
X166825842Y-113241575D01*
X166786976Y-113197257D01*
X166772965Y-113140000D01*
X166786976Y-113082743D01*
X166825842Y-113038425D01*
X167006961Y-112911604D01*
X167006961Y-112911603D01*
X167011401Y-112908495D01*
X167178495Y-112741401D01*
X167314035Y-112547830D01*
X167413903Y-112333663D01*
X167475063Y-112105408D01*
X167495659Y-111870000D01*
X167475063Y-111634592D01*
X167413903Y-111406337D01*
X167314035Y-111192171D01*
X167178495Y-110998599D01*
X167011401Y-110831505D01*
X167006970Y-110828402D01*
X167006966Y-110828399D01*
X166822263Y-110699069D01*
X166822262Y-110699068D01*
X166817830Y-110695965D01*
X166812921Y-110693676D01*
X166810692Y-110692389D01*
X166765303Y-110647001D01*
X166748689Y-110585000D01*
X166765303Y-110522999D01*
X166810692Y-110477611D01*
X166812919Y-110476324D01*
X166817830Y-110474035D01*
X167011401Y-110338495D01*
X167178495Y-110171401D01*
X167314035Y-109977830D01*
X167413903Y-109763663D01*
X167475063Y-109535408D01*
X167495659Y-109300000D01*
X167475063Y-109064592D01*
X167413903Y-108836337D01*
X167314035Y-108622171D01*
X167178495Y-108428599D01*
X167011401Y-108261505D01*
X167006970Y-108258402D01*
X167006966Y-108258399D01*
X166822259Y-108129066D01*
X166822257Y-108129064D01*
X166817830Y-108125965D01*
X166812933Y-108123681D01*
X166812927Y-108123678D01*
X166608572Y-108028386D01*
X166608570Y-108028385D01*
X166603663Y-108026097D01*
X166598438Y-108024697D01*
X166598430Y-108024694D01*
X166380634Y-107966337D01*
X166380630Y-107966336D01*
X166375408Y-107964937D01*
X166370020Y-107964465D01*
X166370017Y-107964465D01*
X166145395Y-107944813D01*
X166140000Y-107944341D01*
X166134605Y-107944813D01*
X165909982Y-107964465D01*
X165909977Y-107964465D01*
X165904592Y-107964937D01*
X165899371Y-107966335D01*
X165899365Y-107966337D01*
X165681569Y-108024694D01*
X165681557Y-108024698D01*
X165676337Y-108026097D01*
X165671432Y-108028383D01*
X165671427Y-108028386D01*
X165467081Y-108123675D01*
X165467077Y-108123677D01*
X165462171Y-108125965D01*
X165457738Y-108129068D01*
X165457731Y-108129073D01*
X165273034Y-108258399D01*
X165273029Y-108258402D01*
X165268599Y-108261505D01*
X165264775Y-108265328D01*
X165264769Y-108265334D01*
X165105334Y-108424769D01*
X165105328Y-108424775D01*
X165101505Y-108428599D01*
X165098402Y-108433029D01*
X165098399Y-108433034D01*
X164969073Y-108617731D01*
X164969068Y-108617738D01*
X164965965Y-108622171D01*
X164963677Y-108627077D01*
X164963675Y-108627081D01*
X164868386Y-108831427D01*
X164868383Y-108831432D01*
X164866097Y-108836337D01*
X164864698Y-108841557D01*
X164864694Y-108841569D01*
X164806337Y-109059365D01*
X164806335Y-109059371D01*
X164804937Y-109064592D01*
X164804465Y-109069977D01*
X164804465Y-109069982D01*
X164793317Y-109197404D01*
X164784341Y-109300000D01*
X164784813Y-109305395D01*
X164799668Y-109475192D01*
X164804937Y-109535408D01*
X164806336Y-109540630D01*
X164806337Y-109540634D01*
X164864694Y-109758430D01*
X164864697Y-109758438D01*
X164866097Y-109763663D01*
X164868385Y-109768570D01*
X164868386Y-109768572D01*
X164963678Y-109972927D01*
X164963681Y-109972933D01*
X164965965Y-109977830D01*
X164969064Y-109982257D01*
X164969066Y-109982259D01*
X165098399Y-110166966D01*
X165098402Y-110166970D01*
X165101505Y-110171401D01*
X165268599Y-110338495D01*
X165462170Y-110474035D01*
X165467079Y-110476324D01*
X165469308Y-110477611D01*
X165514696Y-110522997D01*
X165531311Y-110584997D01*
X165514700Y-110646997D01*
X165469314Y-110692386D01*
X165467078Y-110693676D01*
X165462171Y-110695965D01*
X165457738Y-110699068D01*
X165457731Y-110699073D01*
X165273034Y-110828399D01*
X165273029Y-110828402D01*
X165268599Y-110831505D01*
X165264775Y-110835328D01*
X165264769Y-110835334D01*
X165105334Y-110994769D01*
X165105328Y-110994775D01*
X165101505Y-110998599D01*
X165098402Y-111003029D01*
X165098399Y-111003034D01*
X164969073Y-111187731D01*
X164969068Y-111187738D01*
X164965965Y-111192171D01*
X164963677Y-111197077D01*
X164963675Y-111197081D01*
X164868386Y-111401427D01*
X164868383Y-111401432D01*
X164866097Y-111406337D01*
X164864698Y-111411557D01*
X164864694Y-111411569D01*
X164806337Y-111629365D01*
X164806335Y-111629371D01*
X164804937Y-111634592D01*
X164784341Y-111870000D01*
X164784813Y-111875395D01*
X164802769Y-112080634D01*
X164804937Y-112105408D01*
X164806336Y-112110630D01*
X164806337Y-112110634D01*
X164864694Y-112328430D01*
X164864697Y-112328438D01*
X164866097Y-112333663D01*
X164868385Y-112338570D01*
X164868386Y-112338572D01*
X164963678Y-112542927D01*
X164963681Y-112542933D01*
X164965965Y-112547830D01*
X164969064Y-112552257D01*
X164969066Y-112552259D01*
X165098399Y-112736966D01*
X165098402Y-112736970D01*
X165101505Y-112741401D01*
X165268599Y-112908495D01*
X165273032Y-112911599D01*
X165273038Y-112911604D01*
X165454158Y-113038425D01*
X165493024Y-113082743D01*
X165507035Y-113140000D01*
X165493024Y-113197257D01*
X165454159Y-113241575D01*
X165273041Y-113368395D01*
X165268599Y-113371505D01*
X165264775Y-113375328D01*
X165264769Y-113375334D01*
X165105334Y-113534769D01*
X165105328Y-113534775D01*
X165101505Y-113538599D01*
X165098402Y-113543029D01*
X165098399Y-113543034D01*
X164969073Y-113727731D01*
X164969068Y-113727738D01*
X164965965Y-113732171D01*
X164963677Y-113737077D01*
X164963675Y-113737081D01*
X164868386Y-113941427D01*
X164868383Y-113941432D01*
X164866097Y-113946337D01*
X164864698Y-113951557D01*
X164864694Y-113951569D01*
X164806337Y-114169365D01*
X164806335Y-114169371D01*
X164804937Y-114174592D01*
X164804465Y-114179977D01*
X164804465Y-114179982D01*
X164790937Y-114334605D01*
X164784341Y-114410000D01*
X135743034Y-114410000D01*
X135745659Y-114380000D01*
X135725063Y-114144592D01*
X135663903Y-113916337D01*
X135564035Y-113702171D01*
X135428495Y-113508599D01*
X135261401Y-113341505D01*
X135256968Y-113338401D01*
X135256961Y-113338395D01*
X135075842Y-113211575D01*
X135036976Y-113167257D01*
X135022965Y-113110000D01*
X135036976Y-113052743D01*
X135075842Y-113008425D01*
X135256961Y-112881604D01*
X135256961Y-112881603D01*
X135261401Y-112878495D01*
X135428495Y-112711401D01*
X135564035Y-112517830D01*
X135663903Y-112303663D01*
X135725063Y-112075408D01*
X135745659Y-111840000D01*
X135725063Y-111604592D01*
X135663903Y-111376337D01*
X135564035Y-111162171D01*
X135428495Y-110968599D01*
X135261401Y-110801505D01*
X135256968Y-110798401D01*
X135256961Y-110798395D01*
X135075842Y-110671575D01*
X135036976Y-110627257D01*
X135022965Y-110570000D01*
X135036976Y-110512743D01*
X135075842Y-110468425D01*
X135256961Y-110341604D01*
X135256961Y-110341603D01*
X135261401Y-110338495D01*
X135428495Y-110171401D01*
X135563652Y-109978376D01*
X135607971Y-109939511D01*
X135665228Y-109925500D01*
X162102225Y-109925500D01*
X162113280Y-109926021D01*
X162120667Y-109927673D01*
X162187872Y-109925561D01*
X162191768Y-109925500D01*
X162215448Y-109925500D01*
X162219350Y-109925500D01*
X162223313Y-109924999D01*
X162234963Y-109924080D01*
X162278627Y-109922709D01*
X162297861Y-109917119D01*
X162316917Y-109913174D01*
X162336792Y-109910664D01*
X162377395Y-109894587D01*
X162388450Y-109890802D01*
X162430390Y-109878618D01*
X162447629Y-109868422D01*
X162465103Y-109859862D01*
X162476474Y-109855360D01*
X162476476Y-109855358D01*
X162483732Y-109852486D01*
X162519069Y-109826811D01*
X162528824Y-109820403D01*
X162566420Y-109798170D01*
X162580584Y-109784005D01*
X162595379Y-109771368D01*
X162611587Y-109759594D01*
X162639428Y-109725938D01*
X162647279Y-109717309D01*
X165702770Y-106661819D01*
X165742999Y-106634939D01*
X165790452Y-106625500D01*
X171922225Y-106625500D01*
X171933280Y-106626021D01*
X171940667Y-106627673D01*
X172007872Y-106625561D01*
X172011768Y-106625500D01*
X172035448Y-106625500D01*
X172039350Y-106625500D01*
X172043313Y-106624999D01*
X172054963Y-106624080D01*
X172098627Y-106622709D01*
X172117861Y-106617119D01*
X172136917Y-106613174D01*
X172156792Y-106610664D01*
X172197395Y-106594587D01*
X172208450Y-106590802D01*
X172250390Y-106578618D01*
X172267629Y-106568422D01*
X172285103Y-106559862D01*
X172296474Y-106555360D01*
X172296476Y-106555358D01*
X172303732Y-106552486D01*
X172339069Y-106526811D01*
X172348824Y-106520403D01*
X172386420Y-106498170D01*
X172400584Y-106484005D01*
X172415379Y-106471368D01*
X172431587Y-106459594D01*
X172459428Y-106425938D01*
X172467279Y-106417309D01*
X173887311Y-104997278D01*
X173895481Y-104989844D01*
X173901877Y-104985786D01*
X173947918Y-104936756D01*
X173950535Y-104934054D01*
X173970120Y-104914471D01*
X173972585Y-104911292D01*
X173980167Y-104902416D01*
X174010062Y-104870582D01*
X174019713Y-104853023D01*
X174030390Y-104836770D01*
X174042673Y-104820936D01*
X174060018Y-104780852D01*
X174065151Y-104770371D01*
X174086197Y-104732092D01*
X174091179Y-104712684D01*
X174097482Y-104694276D01*
X174105437Y-104675896D01*
X174112271Y-104632744D01*
X174114633Y-104621338D01*
X174125500Y-104579019D01*
X174125500Y-104558983D01*
X174127027Y-104539585D01*
X174128939Y-104527513D01*
X174128938Y-104527513D01*
X174130160Y-104519804D01*
X174126050Y-104476324D01*
X174125500Y-104464655D01*
X174125500Y-100577775D01*
X174126021Y-100566719D01*
X174127673Y-100559333D01*
X174125561Y-100492113D01*
X174125500Y-100488219D01*
X174125500Y-100464542D01*
X174125500Y-100460650D01*
X174124998Y-100456683D01*
X174124081Y-100445026D01*
X174122710Y-100401373D01*
X174117118Y-100382128D01*
X174113174Y-100363083D01*
X174110664Y-100343208D01*
X174094579Y-100302583D01*
X174090806Y-100291562D01*
X174078618Y-100249610D01*
X174068417Y-100232360D01*
X174059863Y-100214901D01*
X174052486Y-100196268D01*
X174026808Y-100160925D01*
X174020401Y-100151171D01*
X174002142Y-100120296D01*
X174002141Y-100120294D01*
X173998170Y-100113580D01*
X173984005Y-100099415D01*
X173971370Y-100084622D01*
X173959594Y-100068413D01*
X173953583Y-100063440D01*
X173953581Y-100063438D01*
X173925941Y-100040573D01*
X173917300Y-100032710D01*
X172557286Y-98672695D01*
X172549842Y-98664514D01*
X172545786Y-98658123D01*
X172496775Y-98612098D01*
X172493978Y-98609387D01*
X172477227Y-98592636D01*
X172477226Y-98592635D01*
X172474471Y-98589880D01*
X172471290Y-98587412D01*
X172462414Y-98579830D01*
X172436269Y-98555278D01*
X172436267Y-98555276D01*
X172430582Y-98549938D01*
X172423749Y-98546182D01*
X172423743Y-98546177D01*
X172413025Y-98540285D01*
X172396766Y-98529606D01*
X172387095Y-98522104D01*
X172387092Y-98522102D01*
X172380936Y-98517327D01*
X172373779Y-98514229D01*
X172373776Y-98514228D01*
X172340849Y-98499978D01*
X172330363Y-98494841D01*
X172298932Y-98477562D01*
X172298923Y-98477558D01*
X172292092Y-98473803D01*
X172284535Y-98471862D01*
X172284531Y-98471861D01*
X172272688Y-98468820D01*
X172254284Y-98462519D01*
X172243057Y-98457660D01*
X172243050Y-98457658D01*
X172235896Y-98454562D01*
X172228192Y-98453341D01*
X172228190Y-98453341D01*
X172192759Y-98447729D01*
X172181324Y-98445361D01*
X172146571Y-98436438D01*
X172146563Y-98436437D01*
X172139019Y-98434500D01*
X172131223Y-98434500D01*
X172118983Y-98434500D01*
X172099597Y-98432974D01*
X172079804Y-98429840D01*
X172072038Y-98430574D01*
X172072035Y-98430574D01*
X172036324Y-98433950D01*
X172024655Y-98434500D01*
X170071462Y-98434500D01*
X170014205Y-98420489D01*
X169969887Y-98381624D01*
X169876237Y-98247879D01*
X169876235Y-98247877D01*
X169873132Y-98243445D01*
X169716555Y-98086868D01*
X169712124Y-98083765D01*
X169712120Y-98083762D01*
X169539604Y-97962965D01*
X169539605Y-97962965D01*
X169535167Y-97959858D01*
X169530252Y-97957566D01*
X169339383Y-97868563D01*
X169339380Y-97868561D01*
X169334480Y-97866277D01*
X169329265Y-97864879D01*
X169329258Y-97864877D01*
X169125823Y-97810366D01*
X169125812Y-97810364D01*
X169120591Y-97808965D01*
X169115199Y-97808493D01*
X169115192Y-97808492D01*
X168905395Y-97790138D01*
X168900000Y-97789666D01*
X168894605Y-97790138D01*
X168684807Y-97808492D01*
X168684798Y-97808493D01*
X168679409Y-97808965D01*
X168674189Y-97810363D01*
X168674176Y-97810366D01*
X168470741Y-97864877D01*
X168470730Y-97864880D01*
X168465520Y-97866277D01*
X168460623Y-97868560D01*
X168460616Y-97868563D01*
X168269747Y-97957566D01*
X168269741Y-97957569D01*
X168264833Y-97959858D01*
X168260399Y-97962962D01*
X168260395Y-97962965D01*
X168087879Y-98083762D01*
X168087869Y-98083769D01*
X168083445Y-98086868D01*
X168079619Y-98090693D01*
X168079613Y-98090699D01*
X167930699Y-98239613D01*
X167930693Y-98239619D01*
X167926868Y-98243445D01*
X167923769Y-98247869D01*
X167923762Y-98247879D01*
X167802965Y-98420395D01*
X167802962Y-98420399D01*
X167799858Y-98424833D01*
X167797570Y-98429738D01*
X167797568Y-98429743D01*
X167742382Y-98548092D01*
X167696625Y-98600268D01*
X167630000Y-98619687D01*
X167563375Y-98600268D01*
X167517618Y-98548092D01*
X167495182Y-98499978D01*
X167460142Y-98424833D01*
X167333132Y-98243445D01*
X167176555Y-98086868D01*
X167172124Y-98083765D01*
X167172120Y-98083762D01*
X166999604Y-97962965D01*
X166999605Y-97962965D01*
X166995167Y-97959858D01*
X166990252Y-97957566D01*
X166799383Y-97868563D01*
X166799380Y-97868561D01*
X166794480Y-97866277D01*
X166789265Y-97864879D01*
X166789258Y-97864877D01*
X166585823Y-97810366D01*
X166585812Y-97810364D01*
X166580591Y-97808965D01*
X166575199Y-97808493D01*
X166575192Y-97808492D01*
X166365395Y-97790138D01*
X166360000Y-97789666D01*
X166354605Y-97790138D01*
X166144807Y-97808492D01*
X166144798Y-97808493D01*
X166139409Y-97808965D01*
X166134189Y-97810363D01*
X166134176Y-97810366D01*
X165930741Y-97864877D01*
X165930730Y-97864880D01*
X165925520Y-97866277D01*
X165920623Y-97868560D01*
X165920616Y-97868563D01*
X165729747Y-97957566D01*
X165729741Y-97957569D01*
X165724833Y-97959858D01*
X165720399Y-97962962D01*
X165720395Y-97962965D01*
X165547879Y-98083762D01*
X165547869Y-98083769D01*
X165543445Y-98086868D01*
X165539619Y-98090693D01*
X165539613Y-98090699D01*
X165390699Y-98239613D01*
X165390693Y-98239619D01*
X165386868Y-98243445D01*
X165383769Y-98247869D01*
X165383762Y-98247879D01*
X165262965Y-98420395D01*
X165262962Y-98420399D01*
X165259858Y-98424833D01*
X165257570Y-98429738D01*
X165257568Y-98429743D01*
X165202382Y-98548092D01*
X165156625Y-98600268D01*
X165090000Y-98619687D01*
X165023375Y-98600268D01*
X164977618Y-98548092D01*
X164955182Y-98499978D01*
X164920142Y-98424833D01*
X164793132Y-98243445D01*
X164636555Y-98086868D01*
X164632124Y-98083765D01*
X164632120Y-98083762D01*
X164459604Y-97962965D01*
X164459605Y-97962965D01*
X164455167Y-97959858D01*
X164450252Y-97957566D01*
X164259383Y-97868563D01*
X164259380Y-97868561D01*
X164254480Y-97866277D01*
X164249265Y-97864879D01*
X164249258Y-97864877D01*
X164045823Y-97810366D01*
X164045812Y-97810364D01*
X164040591Y-97808965D01*
X164035199Y-97808493D01*
X164035192Y-97808492D01*
X163825395Y-97790138D01*
X163820000Y-97789666D01*
X163814605Y-97790138D01*
X163604807Y-97808492D01*
X163604798Y-97808493D01*
X163599409Y-97808965D01*
X163594189Y-97810363D01*
X163594176Y-97810366D01*
X163390741Y-97864877D01*
X163390730Y-97864880D01*
X163385520Y-97866277D01*
X163380623Y-97868560D01*
X163380616Y-97868563D01*
X163189747Y-97957566D01*
X163189741Y-97957569D01*
X163184833Y-97959858D01*
X163180399Y-97962962D01*
X163180395Y-97962965D01*
X163007879Y-98083762D01*
X163007869Y-98083769D01*
X163003445Y-98086868D01*
X162999619Y-98090693D01*
X162999613Y-98090699D01*
X162850699Y-98239613D01*
X162850693Y-98239619D01*
X162846868Y-98243445D01*
X162843769Y-98247869D01*
X162843762Y-98247879D01*
X162722965Y-98420395D01*
X162722962Y-98420399D01*
X162719858Y-98424833D01*
X162717570Y-98429738D01*
X162717568Y-98429743D01*
X162662382Y-98548092D01*
X162616625Y-98600268D01*
X162550000Y-98619687D01*
X162483375Y-98600268D01*
X162437618Y-98548092D01*
X162415182Y-98499978D01*
X162380142Y-98424833D01*
X162253132Y-98243445D01*
X162096555Y-98086868D01*
X162092124Y-98083765D01*
X162092120Y-98083762D01*
X161919604Y-97962965D01*
X161919605Y-97962965D01*
X161915167Y-97959858D01*
X161910252Y-97957566D01*
X161719383Y-97868563D01*
X161719380Y-97868561D01*
X161714480Y-97866277D01*
X161709265Y-97864879D01*
X161709258Y-97864877D01*
X161505823Y-97810366D01*
X161505812Y-97810364D01*
X161500591Y-97808965D01*
X161495199Y-97808493D01*
X161495192Y-97808492D01*
X161285395Y-97790138D01*
X161280000Y-97789666D01*
X161274605Y-97790138D01*
X161064807Y-97808492D01*
X161064798Y-97808493D01*
X161059409Y-97808965D01*
X161054189Y-97810363D01*
X161054176Y-97810366D01*
X160850741Y-97864877D01*
X160850730Y-97864880D01*
X160845520Y-97866277D01*
X160840623Y-97868560D01*
X160840616Y-97868563D01*
X160649747Y-97957566D01*
X160649741Y-97957569D01*
X160644833Y-97959858D01*
X160640399Y-97962962D01*
X160640395Y-97962965D01*
X160467879Y-98083762D01*
X160467869Y-98083769D01*
X160463445Y-98086868D01*
X160459619Y-98090693D01*
X160459613Y-98090699D01*
X160310699Y-98239613D01*
X160310693Y-98239619D01*
X160306868Y-98243445D01*
X160303769Y-98247869D01*
X160303762Y-98247879D01*
X160182965Y-98420395D01*
X160182962Y-98420399D01*
X160179858Y-98424833D01*
X160177570Y-98429738D01*
X160177568Y-98429743D01*
X160122382Y-98548092D01*
X160076625Y-98600268D01*
X160010000Y-98619687D01*
X159943375Y-98600268D01*
X159897618Y-98548092D01*
X159875182Y-98499978D01*
X159840142Y-98424833D01*
X159713132Y-98243445D01*
X159556555Y-98086868D01*
X159552124Y-98083765D01*
X159552120Y-98083762D01*
X159379604Y-97962965D01*
X159379605Y-97962965D01*
X159375167Y-97959858D01*
X159370252Y-97957566D01*
X159179383Y-97868563D01*
X159179380Y-97868561D01*
X159174480Y-97866277D01*
X159169265Y-97864879D01*
X159169258Y-97864877D01*
X158965823Y-97810366D01*
X158965812Y-97810364D01*
X158960591Y-97808965D01*
X158955199Y-97808493D01*
X158955192Y-97808492D01*
X158745395Y-97790138D01*
X158740000Y-97789666D01*
X158734605Y-97790138D01*
X158524807Y-97808492D01*
X158524798Y-97808493D01*
X158519409Y-97808965D01*
X158514189Y-97810363D01*
X158514176Y-97810366D01*
X158310741Y-97864877D01*
X158310730Y-97864880D01*
X158305520Y-97866277D01*
X158300623Y-97868560D01*
X158300616Y-97868563D01*
X158109747Y-97957566D01*
X158109741Y-97957569D01*
X158104833Y-97959858D01*
X158100399Y-97962962D01*
X158100395Y-97962965D01*
X157927879Y-98083762D01*
X157927869Y-98083769D01*
X157923445Y-98086868D01*
X157919619Y-98090693D01*
X157919613Y-98090699D01*
X157770699Y-98239613D01*
X157770693Y-98239619D01*
X157766868Y-98243445D01*
X157763769Y-98247869D01*
X157763762Y-98247879D01*
X157642965Y-98420395D01*
X157642962Y-98420399D01*
X157639858Y-98424833D01*
X157637570Y-98429738D01*
X157637568Y-98429743D01*
X157582382Y-98548092D01*
X157536625Y-98600268D01*
X157470000Y-98619687D01*
X157403375Y-98600268D01*
X157357618Y-98548092D01*
X157335182Y-98499978D01*
X157300142Y-98424833D01*
X157173132Y-98243445D01*
X157016555Y-98086868D01*
X157012124Y-98083765D01*
X157012120Y-98083762D01*
X156839604Y-97962965D01*
X156839605Y-97962965D01*
X156835167Y-97959858D01*
X156830252Y-97957566D01*
X156639383Y-97868563D01*
X156639380Y-97868561D01*
X156634480Y-97866277D01*
X156629265Y-97864879D01*
X156629258Y-97864877D01*
X156425823Y-97810366D01*
X156425812Y-97810364D01*
X156420591Y-97808965D01*
X156415199Y-97808493D01*
X156415192Y-97808492D01*
X156205395Y-97790138D01*
X156200000Y-97789666D01*
X156194605Y-97790138D01*
X155984807Y-97808492D01*
X155984798Y-97808493D01*
X155979409Y-97808965D01*
X155974189Y-97810363D01*
X155974176Y-97810366D01*
X155770741Y-97864877D01*
X155770730Y-97864880D01*
X155765520Y-97866277D01*
X155760623Y-97868560D01*
X155760616Y-97868563D01*
X155569747Y-97957566D01*
X155569741Y-97957569D01*
X155564833Y-97959858D01*
X155560399Y-97962962D01*
X155560395Y-97962965D01*
X155387879Y-98083762D01*
X155387869Y-98083769D01*
X155383445Y-98086868D01*
X155379619Y-98090693D01*
X155379613Y-98090699D01*
X155230699Y-98239613D01*
X155230693Y-98239619D01*
X155226868Y-98243445D01*
X155223769Y-98247869D01*
X155223762Y-98247879D01*
X155102965Y-98420395D01*
X155102962Y-98420399D01*
X155099858Y-98424833D01*
X155097570Y-98429738D01*
X155097568Y-98429743D01*
X155042382Y-98548092D01*
X154996625Y-98600268D01*
X154930000Y-98619687D01*
X154863375Y-98600268D01*
X154817618Y-98548092D01*
X154795182Y-98499978D01*
X154760142Y-98424833D01*
X154633132Y-98243445D01*
X154476555Y-98086868D01*
X154472124Y-98083765D01*
X154472120Y-98083762D01*
X154299604Y-97962965D01*
X154299605Y-97962965D01*
X154295167Y-97959858D01*
X154290252Y-97957566D01*
X154099383Y-97868563D01*
X154099380Y-97868561D01*
X154094480Y-97866277D01*
X154089265Y-97864879D01*
X154089258Y-97864877D01*
X153885823Y-97810366D01*
X153885812Y-97810364D01*
X153880591Y-97808965D01*
X153875199Y-97808493D01*
X153875192Y-97808492D01*
X153665395Y-97790138D01*
X153660000Y-97789666D01*
X153654605Y-97790138D01*
X153444807Y-97808492D01*
X153444798Y-97808493D01*
X153439409Y-97808965D01*
X153434189Y-97810363D01*
X153434176Y-97810366D01*
X153230741Y-97864877D01*
X153230730Y-97864880D01*
X153225520Y-97866277D01*
X153220623Y-97868560D01*
X153220616Y-97868563D01*
X153029747Y-97957566D01*
X153029741Y-97957569D01*
X153024833Y-97959858D01*
X153020399Y-97962962D01*
X153020395Y-97962965D01*
X152847879Y-98083762D01*
X152847869Y-98083769D01*
X152843445Y-98086868D01*
X152839619Y-98090693D01*
X152839613Y-98090699D01*
X152690699Y-98239613D01*
X152690693Y-98239619D01*
X152686868Y-98243445D01*
X152683769Y-98247869D01*
X152683762Y-98247879D01*
X152562965Y-98420395D01*
X152562962Y-98420399D01*
X152559858Y-98424833D01*
X152557570Y-98429738D01*
X152557568Y-98429743D01*
X152502382Y-98548092D01*
X152456625Y-98600268D01*
X152390000Y-98619687D01*
X152323375Y-98600268D01*
X152277618Y-98548092D01*
X152255182Y-98499978D01*
X152220142Y-98424833D01*
X152093132Y-98243445D01*
X151936555Y-98086868D01*
X151932124Y-98083765D01*
X151932120Y-98083762D01*
X151759604Y-97962965D01*
X151759605Y-97962965D01*
X151755167Y-97959858D01*
X151750252Y-97957566D01*
X151559383Y-97868563D01*
X151559380Y-97868561D01*
X151554480Y-97866277D01*
X151549265Y-97864879D01*
X151549258Y-97864877D01*
X151345823Y-97810366D01*
X151345812Y-97810364D01*
X151340591Y-97808965D01*
X151335199Y-97808493D01*
X151335192Y-97808492D01*
X151125395Y-97790138D01*
X151120000Y-97789666D01*
X151114605Y-97790138D01*
X150904807Y-97808492D01*
X150904798Y-97808493D01*
X150899409Y-97808965D01*
X150894189Y-97810363D01*
X150894176Y-97810366D01*
X150690741Y-97864877D01*
X150690730Y-97864880D01*
X150685520Y-97866277D01*
X150680623Y-97868560D01*
X150680616Y-97868563D01*
X150489747Y-97957566D01*
X150489741Y-97957569D01*
X150484833Y-97959858D01*
X150480399Y-97962962D01*
X150480395Y-97962965D01*
X150307879Y-98083762D01*
X150307869Y-98083769D01*
X150303445Y-98086868D01*
X150299619Y-98090693D01*
X150299613Y-98090699D01*
X150150699Y-98239613D01*
X150150693Y-98239619D01*
X150146868Y-98243445D01*
X150143769Y-98247869D01*
X150143762Y-98247879D01*
X150022965Y-98420395D01*
X150022962Y-98420399D01*
X150019858Y-98424833D01*
X150017570Y-98429738D01*
X150017568Y-98429743D01*
X149962382Y-98548092D01*
X149916625Y-98600268D01*
X149850000Y-98619687D01*
X149783375Y-98600268D01*
X149737618Y-98548092D01*
X149715182Y-98499978D01*
X149680142Y-98424833D01*
X149553132Y-98243445D01*
X149396555Y-98086868D01*
X149392124Y-98083765D01*
X149392120Y-98083762D01*
X149219604Y-97962965D01*
X149219605Y-97962965D01*
X149215167Y-97959858D01*
X149210252Y-97957566D01*
X149019383Y-97868563D01*
X149019380Y-97868561D01*
X149014480Y-97866277D01*
X149009265Y-97864879D01*
X149009258Y-97864877D01*
X148805823Y-97810366D01*
X148805812Y-97810364D01*
X148800591Y-97808965D01*
X148795199Y-97808493D01*
X148795192Y-97808492D01*
X148585395Y-97790138D01*
X148580000Y-97789666D01*
X148574605Y-97790138D01*
X148364807Y-97808492D01*
X148364798Y-97808493D01*
X148359409Y-97808965D01*
X148354189Y-97810363D01*
X148354176Y-97810366D01*
X148150741Y-97864877D01*
X148150730Y-97864880D01*
X148145520Y-97866277D01*
X148140623Y-97868560D01*
X148140616Y-97868563D01*
X147949747Y-97957566D01*
X147949741Y-97957569D01*
X147944833Y-97959858D01*
X147940399Y-97962962D01*
X147940395Y-97962965D01*
X147767879Y-98083762D01*
X147767869Y-98083769D01*
X147763445Y-98086868D01*
X147759619Y-98090693D01*
X147759613Y-98090699D01*
X147610699Y-98239613D01*
X147610693Y-98239619D01*
X147606868Y-98243445D01*
X147603769Y-98247869D01*
X147603762Y-98247879D01*
X147482965Y-98420395D01*
X147482962Y-98420399D01*
X147479858Y-98424833D01*
X147477570Y-98429738D01*
X147477568Y-98429743D01*
X147422382Y-98548092D01*
X147376625Y-98600268D01*
X147310000Y-98619687D01*
X147243375Y-98600268D01*
X147197618Y-98548092D01*
X147175182Y-98499978D01*
X147140142Y-98424833D01*
X147013132Y-98243445D01*
X146856555Y-98086868D01*
X146852124Y-98083765D01*
X146852120Y-98083762D01*
X146679604Y-97962965D01*
X146679605Y-97962965D01*
X146675167Y-97959858D01*
X146670252Y-97957566D01*
X146479383Y-97868563D01*
X146479380Y-97868561D01*
X146474480Y-97866277D01*
X146469265Y-97864879D01*
X146469258Y-97864877D01*
X146265823Y-97810366D01*
X146265812Y-97810364D01*
X146260591Y-97808965D01*
X146255199Y-97808493D01*
X146255192Y-97808492D01*
X146045395Y-97790138D01*
X146040000Y-97789666D01*
X146034605Y-97790138D01*
X145824807Y-97808492D01*
X145824798Y-97808493D01*
X145819409Y-97808965D01*
X145814189Y-97810363D01*
X145814176Y-97810366D01*
X145610741Y-97864877D01*
X145610730Y-97864880D01*
X145605520Y-97866277D01*
X145600623Y-97868560D01*
X145600616Y-97868563D01*
X145409747Y-97957566D01*
X145409741Y-97957569D01*
X145404833Y-97959858D01*
X145400399Y-97962962D01*
X145400395Y-97962965D01*
X145227879Y-98083762D01*
X145227869Y-98083769D01*
X145223445Y-98086868D01*
X145219619Y-98090693D01*
X145219613Y-98090699D01*
X145070699Y-98239613D01*
X145070693Y-98239619D01*
X145066868Y-98243445D01*
X145063769Y-98247869D01*
X145063762Y-98247879D01*
X144942965Y-98420395D01*
X144942962Y-98420399D01*
X144939858Y-98424833D01*
X144937570Y-98429738D01*
X144937568Y-98429743D01*
X144882382Y-98548092D01*
X144836625Y-98600268D01*
X144770000Y-98619687D01*
X144703375Y-98600268D01*
X144657618Y-98548092D01*
X144635182Y-98499978D01*
X144600142Y-98424833D01*
X144473132Y-98243445D01*
X144316555Y-98086868D01*
X144312124Y-98083765D01*
X144312120Y-98083762D01*
X144139604Y-97962965D01*
X144139605Y-97962965D01*
X144135167Y-97959858D01*
X144130252Y-97957566D01*
X143939383Y-97868563D01*
X143939380Y-97868561D01*
X143934480Y-97866277D01*
X143929265Y-97864879D01*
X143929258Y-97864877D01*
X143725823Y-97810366D01*
X143725812Y-97810364D01*
X143720591Y-97808965D01*
X143715199Y-97808493D01*
X143715192Y-97808492D01*
X143505395Y-97790138D01*
X143500000Y-97789666D01*
X143494605Y-97790138D01*
X143284807Y-97808492D01*
X143284798Y-97808493D01*
X143279409Y-97808965D01*
X143274189Y-97810363D01*
X143274176Y-97810366D01*
X143070741Y-97864877D01*
X143070730Y-97864880D01*
X143065520Y-97866277D01*
X143060623Y-97868560D01*
X143060616Y-97868563D01*
X142869747Y-97957566D01*
X142869741Y-97957569D01*
X142864833Y-97959858D01*
X142860399Y-97962962D01*
X142860395Y-97962965D01*
X142687879Y-98083762D01*
X142687869Y-98083769D01*
X142683445Y-98086868D01*
X142679619Y-98090693D01*
X142679613Y-98090699D01*
X142530699Y-98239613D01*
X142530693Y-98239619D01*
X142526868Y-98243445D01*
X142523769Y-98247869D01*
X142523762Y-98247879D01*
X142402965Y-98420395D01*
X142402962Y-98420399D01*
X142399858Y-98424833D01*
X142397570Y-98429738D01*
X142397568Y-98429743D01*
X142342382Y-98548092D01*
X142296625Y-98600268D01*
X142230000Y-98619687D01*
X142163375Y-98600268D01*
X142117618Y-98548092D01*
X142095182Y-98499978D01*
X142060142Y-98424833D01*
X141933132Y-98243445D01*
X141776555Y-98086868D01*
X141772124Y-98083765D01*
X141772120Y-98083762D01*
X141599604Y-97962965D01*
X141599605Y-97962965D01*
X141595167Y-97959858D01*
X141590252Y-97957566D01*
X141399383Y-97868563D01*
X141399380Y-97868561D01*
X141394480Y-97866277D01*
X141389265Y-97864879D01*
X141389258Y-97864877D01*
X141185823Y-97810366D01*
X141185812Y-97810364D01*
X141180591Y-97808965D01*
X141175199Y-97808493D01*
X141175192Y-97808492D01*
X140965395Y-97790138D01*
X140960000Y-97789666D01*
X140954605Y-97790138D01*
X140744807Y-97808492D01*
X140744798Y-97808493D01*
X140739409Y-97808965D01*
X140734189Y-97810363D01*
X140734176Y-97810366D01*
X140530741Y-97864877D01*
X140530730Y-97864880D01*
X140525520Y-97866277D01*
X140520623Y-97868560D01*
X140520616Y-97868563D01*
X140329747Y-97957566D01*
X140329741Y-97957569D01*
X140324833Y-97959858D01*
X140320399Y-97962962D01*
X140320395Y-97962965D01*
X140147879Y-98083762D01*
X140147869Y-98083769D01*
X140143445Y-98086868D01*
X140139619Y-98090693D01*
X140139613Y-98090699D01*
X139990699Y-98239613D01*
X139990693Y-98239619D01*
X139986868Y-98243445D01*
X139983769Y-98247869D01*
X139983762Y-98247879D01*
X139862965Y-98420395D01*
X139862962Y-98420399D01*
X139859858Y-98424833D01*
X139857570Y-98429738D01*
X139857568Y-98429743D01*
X139802106Y-98548683D01*
X139756349Y-98600859D01*
X139689724Y-98620278D01*
X139623099Y-98600858D01*
X139577342Y-98548683D01*
X139521996Y-98429994D01*
X139516598Y-98420644D01*
X139481683Y-98370780D01*
X139473572Y-98363347D01*
X139464293Y-98369258D01*
X138785095Y-99048457D01*
X138778431Y-99060000D01*
X138785095Y-99071542D01*
X139464290Y-99750737D01*
X139473573Y-99756651D01*
X139481682Y-99749220D01*
X139516605Y-99699345D01*
X139521995Y-99690009D01*
X139577342Y-99571317D01*
X139623099Y-99519141D01*
X139689724Y-99499721D01*
X139756349Y-99519140D01*
X139802105Y-99571315D01*
X139859858Y-99695167D01*
X139862965Y-99699604D01*
X139983762Y-99872120D01*
X139983765Y-99872124D01*
X139986868Y-99876555D01*
X140143445Y-100033132D01*
X140147877Y-100036235D01*
X140147879Y-100036237D01*
X140281624Y-100129887D01*
X140320489Y-100174205D01*
X140334500Y-100231462D01*
X140334500Y-101356547D01*
X140320489Y-101413804D01*
X140281624Y-101458122D01*
X140187879Y-101523762D01*
X140187869Y-101523769D01*
X140183445Y-101526868D01*
X140179619Y-101530693D01*
X140179613Y-101530699D01*
X140030699Y-101679613D01*
X140030693Y-101679619D01*
X140026868Y-101683445D01*
X140023769Y-101687869D01*
X140023762Y-101687879D01*
X139902965Y-101860395D01*
X139902962Y-101860399D01*
X139899858Y-101864833D01*
X139897570Y-101869738D01*
X139897568Y-101869743D01*
X139842106Y-101988683D01*
X139796349Y-102040859D01*
X139729724Y-102060278D01*
X139663099Y-102040858D01*
X139617342Y-101988683D01*
X139561996Y-101869994D01*
X139556598Y-101860644D01*
X139521683Y-101810780D01*
X139513572Y-101803347D01*
X139504293Y-101809258D01*
X138825095Y-102488457D01*
X138818431Y-102499999D01*
X138825095Y-102511542D01*
X139504290Y-103190737D01*
X139513573Y-103196651D01*
X139521682Y-103189220D01*
X139556605Y-103139345D01*
X139561995Y-103130009D01*
X139617342Y-103011317D01*
X139663099Y-102959141D01*
X139729724Y-102939721D01*
X139796349Y-102959140D01*
X139842105Y-103011315D01*
X139899858Y-103135167D01*
X139902965Y-103139604D01*
X140023762Y-103312120D01*
X140023765Y-103312124D01*
X140026868Y-103316555D01*
X140183445Y-103473132D01*
X140364833Y-103600142D01*
X140565520Y-103693723D01*
X140570740Y-103695121D01*
X140570741Y-103695122D01*
X140774176Y-103749633D01*
X140774178Y-103749633D01*
X140779409Y-103751035D01*
X141000000Y-103770334D01*
X141220591Y-103751035D01*
X141434480Y-103693723D01*
X141635167Y-103600142D01*
X141816555Y-103473132D01*
X141973132Y-103316555D01*
X142100142Y-103135167D01*
X142157618Y-103011907D01*
X142203375Y-102959732D01*
X142270000Y-102940312D01*
X142336625Y-102959732D01*
X142382381Y-103011907D01*
X142439858Y-103135167D01*
X142442965Y-103139604D01*
X142563762Y-103312120D01*
X142563765Y-103312124D01*
X142566868Y-103316555D01*
X142723445Y-103473132D01*
X142904833Y-103600142D01*
X143105520Y-103693723D01*
X143110740Y-103695121D01*
X143110741Y-103695122D01*
X143314176Y-103749633D01*
X143314178Y-103749633D01*
X143319409Y-103751035D01*
X143540000Y-103770334D01*
X143760591Y-103751035D01*
X143974480Y-103693723D01*
X144175167Y-103600142D01*
X144356555Y-103473132D01*
X144513132Y-103316555D01*
X144640142Y-103135167D01*
X144697618Y-103011907D01*
X144743375Y-102959732D01*
X144810000Y-102940312D01*
X144876625Y-102959732D01*
X144922381Y-103011907D01*
X144979858Y-103135167D01*
X144982965Y-103139604D01*
X145103762Y-103312120D01*
X145103765Y-103312124D01*
X145106868Y-103316555D01*
X145263445Y-103473132D01*
X145444833Y-103600142D01*
X145645520Y-103693723D01*
X145650740Y-103695121D01*
X145650741Y-103695122D01*
X145854176Y-103749633D01*
X145854178Y-103749633D01*
X145859409Y-103751035D01*
X146080000Y-103770334D01*
X146300591Y-103751035D01*
X146514480Y-103693723D01*
X146715167Y-103600142D01*
X146896555Y-103473132D01*
X147053132Y-103316555D01*
X147180142Y-103135167D01*
X147237618Y-103011907D01*
X147283375Y-102959732D01*
X147350000Y-102940312D01*
X147416625Y-102959732D01*
X147462381Y-103011907D01*
X147519858Y-103135167D01*
X147522965Y-103139604D01*
X147643762Y-103312120D01*
X147643765Y-103312124D01*
X147646868Y-103316555D01*
X147803445Y-103473132D01*
X147984833Y-103600142D01*
X148185520Y-103693723D01*
X148190740Y-103695121D01*
X148190741Y-103695122D01*
X148394176Y-103749633D01*
X148394178Y-103749633D01*
X148399409Y-103751035D01*
X148620000Y-103770334D01*
X148840591Y-103751035D01*
X149054480Y-103693723D01*
X149255167Y-103600142D01*
X149436555Y-103473132D01*
X149593132Y-103316555D01*
X149720142Y-103135167D01*
X149777618Y-103011907D01*
X149823375Y-102959732D01*
X149890000Y-102940312D01*
X149956625Y-102959732D01*
X150002381Y-103011907D01*
X150059858Y-103135167D01*
X150062965Y-103139604D01*
X150183762Y-103312120D01*
X150183765Y-103312124D01*
X150186868Y-103316555D01*
X150343445Y-103473132D01*
X150524833Y-103600142D01*
X150725520Y-103693723D01*
X150730740Y-103695121D01*
X150730741Y-103695122D01*
X150934176Y-103749633D01*
X150934178Y-103749633D01*
X150939409Y-103751035D01*
X151160000Y-103770334D01*
X151380591Y-103751035D01*
X151594480Y-103693723D01*
X151795167Y-103600142D01*
X151976555Y-103473132D01*
X152133132Y-103316555D01*
X152260142Y-103135167D01*
X152317618Y-103011907D01*
X152363375Y-102959732D01*
X152430000Y-102940312D01*
X152496625Y-102959732D01*
X152542381Y-103011907D01*
X152599858Y-103135167D01*
X152602965Y-103139604D01*
X152723762Y-103312120D01*
X152723765Y-103312124D01*
X152726868Y-103316555D01*
X152883445Y-103473132D01*
X153064833Y-103600142D01*
X153265520Y-103693723D01*
X153270740Y-103695121D01*
X153270741Y-103695122D01*
X153474176Y-103749633D01*
X153474178Y-103749633D01*
X153479409Y-103751035D01*
X153700000Y-103770334D01*
X153920591Y-103751035D01*
X154134480Y-103693723D01*
X154335167Y-103600142D01*
X154516555Y-103473132D01*
X154673132Y-103316555D01*
X154800142Y-103135167D01*
X154857618Y-103011907D01*
X154903375Y-102959732D01*
X154970000Y-102940312D01*
X155036625Y-102959732D01*
X155082381Y-103011907D01*
X155139858Y-103135167D01*
X155142965Y-103139604D01*
X155263762Y-103312120D01*
X155263765Y-103312124D01*
X155266868Y-103316555D01*
X155423445Y-103473132D01*
X155604833Y-103600142D01*
X155805520Y-103693723D01*
X155810740Y-103695121D01*
X155810741Y-103695122D01*
X156014176Y-103749633D01*
X156014178Y-103749633D01*
X156019409Y-103751035D01*
X156240000Y-103770334D01*
X156460591Y-103751035D01*
X156674480Y-103693723D01*
X156875167Y-103600142D01*
X157056555Y-103473132D01*
X157213132Y-103316555D01*
X157340142Y-103135167D01*
X157397618Y-103011907D01*
X157443375Y-102959732D01*
X157510000Y-102940312D01*
X157576625Y-102959732D01*
X157622381Y-103011907D01*
X157679858Y-103135167D01*
X157682965Y-103139604D01*
X157803762Y-103312120D01*
X157803765Y-103312124D01*
X157806868Y-103316555D01*
X157963445Y-103473132D01*
X158144833Y-103600142D01*
X158345520Y-103693723D01*
X158350740Y-103695121D01*
X158350741Y-103695122D01*
X158554176Y-103749633D01*
X158554178Y-103749633D01*
X158559409Y-103751035D01*
X158780000Y-103770334D01*
X159000591Y-103751035D01*
X159214480Y-103693723D01*
X159415167Y-103600142D01*
X159596555Y-103473132D01*
X159753132Y-103316555D01*
X159880142Y-103135167D01*
X159937618Y-103011907D01*
X159983375Y-102959732D01*
X160050000Y-102940312D01*
X160116625Y-102959732D01*
X160162381Y-103011907D01*
X160219858Y-103135167D01*
X160222965Y-103139604D01*
X160343762Y-103312120D01*
X160343765Y-103312124D01*
X160346868Y-103316555D01*
X160503445Y-103473132D01*
X160684833Y-103600142D01*
X160885520Y-103693723D01*
X160890740Y-103695121D01*
X160890741Y-103695122D01*
X161094176Y-103749633D01*
X161094178Y-103749633D01*
X161099409Y-103751035D01*
X161320000Y-103770334D01*
X161540591Y-103751035D01*
X161754480Y-103693723D01*
X161955167Y-103600142D01*
X162136555Y-103473132D01*
X162293132Y-103316555D01*
X162420142Y-103135167D01*
X162477618Y-103011907D01*
X162523375Y-102959732D01*
X162590000Y-102940312D01*
X162656625Y-102959732D01*
X162702381Y-103011907D01*
X162759858Y-103135167D01*
X162762965Y-103139604D01*
X162883762Y-103312120D01*
X162883765Y-103312124D01*
X162886868Y-103316555D01*
X163043445Y-103473132D01*
X163224833Y-103600142D01*
X163425520Y-103693723D01*
X163430740Y-103695121D01*
X163430741Y-103695122D01*
X163634176Y-103749633D01*
X163634178Y-103749633D01*
X163639409Y-103751035D01*
X163860000Y-103770334D01*
X164080591Y-103751035D01*
X164294480Y-103693723D01*
X164495167Y-103600142D01*
X164676555Y-103473132D01*
X164833132Y-103316555D01*
X164960142Y-103135167D01*
X165017618Y-103011907D01*
X165063375Y-102959732D01*
X165130000Y-102940312D01*
X165196625Y-102959732D01*
X165242381Y-103011907D01*
X165299858Y-103135167D01*
X165302965Y-103139604D01*
X165423762Y-103312120D01*
X165423765Y-103312124D01*
X165426868Y-103316555D01*
X165583445Y-103473132D01*
X165764833Y-103600142D01*
X165965520Y-103693723D01*
X165970740Y-103695121D01*
X165970741Y-103695122D01*
X166174176Y-103749633D01*
X166174178Y-103749633D01*
X166179409Y-103751035D01*
X166400000Y-103770334D01*
X166620591Y-103751035D01*
X166834480Y-103693723D01*
X167035167Y-103600142D01*
X167216555Y-103473132D01*
X167373132Y-103316555D01*
X167500142Y-103135167D01*
X167557618Y-103011907D01*
X167603375Y-102959732D01*
X167670000Y-102940312D01*
X167736625Y-102959732D01*
X167782381Y-103011907D01*
X167839858Y-103135167D01*
X167842965Y-103139604D01*
X167963762Y-103312120D01*
X167963765Y-103312124D01*
X167966868Y-103316555D01*
X168123445Y-103473132D01*
X168304833Y-103600142D01*
X168505520Y-103693723D01*
X168510740Y-103695121D01*
X168510741Y-103695122D01*
X168714176Y-103749633D01*
X168714178Y-103749633D01*
X168719409Y-103751035D01*
X168940000Y-103770334D01*
X169160591Y-103751035D01*
X169374480Y-103693723D01*
X169575167Y-103600142D01*
X169756555Y-103473132D01*
X169913132Y-103316555D01*
X170040142Y-103135167D01*
X170133723Y-102934480D01*
X170191035Y-102720591D01*
X170210334Y-102500000D01*
X170191035Y-102279409D01*
X170133723Y-102065520D01*
X170040142Y-101864833D01*
X169913132Y-101683445D01*
X169756555Y-101526868D01*
X169752124Y-101523765D01*
X169752120Y-101523762D01*
X169578376Y-101402105D01*
X169539511Y-101357787D01*
X169525500Y-101300530D01*
X169525500Y-100231462D01*
X169539511Y-100174205D01*
X169578376Y-100129887D01*
X169711249Y-100036847D01*
X169716555Y-100033132D01*
X169873132Y-99876555D01*
X169922613Y-99805888D01*
X169969887Y-99738376D01*
X170014205Y-99699511D01*
X170071462Y-99685500D01*
X171749548Y-99685500D01*
X171797001Y-99694939D01*
X171837229Y-99721819D01*
X172838181Y-100722771D01*
X172865061Y-100762999D01*
X172874500Y-100810452D01*
X172874500Y-104189547D01*
X172865061Y-104237000D01*
X172838181Y-104277228D01*
X171777228Y-105338181D01*
X171737000Y-105365061D01*
X171689547Y-105374500D01*
X165557775Y-105374500D01*
X165546719Y-105373978D01*
X165539333Y-105372327D01*
X165531545Y-105372571D01*
X165531538Y-105372571D01*
X165472113Y-105374439D01*
X165468219Y-105374500D01*
X165440650Y-105374500D01*
X165436794Y-105374986D01*
X165436791Y-105374987D01*
X165436735Y-105374994D01*
X165436662Y-105375003D01*
X165425044Y-105375917D01*
X165389165Y-105377045D01*
X165389164Y-105377045D01*
X165381373Y-105377290D01*
X165373888Y-105379464D01*
X165373884Y-105379465D01*
X165362125Y-105382881D01*
X165343087Y-105386823D01*
X165330949Y-105388357D01*
X165330941Y-105388358D01*
X165323208Y-105389336D01*
X165315960Y-105392205D01*
X165315954Y-105392207D01*
X165282597Y-105405413D01*
X165271554Y-105409194D01*
X165237100Y-105419205D01*
X165237094Y-105419207D01*
X165229610Y-105421382D01*
X165222898Y-105425351D01*
X165222896Y-105425352D01*
X165212364Y-105431580D01*
X165194904Y-105440134D01*
X165183519Y-105444642D01*
X165183513Y-105444644D01*
X165176268Y-105447514D01*
X165169963Y-105452094D01*
X165169955Y-105452099D01*
X165140932Y-105473185D01*
X165131174Y-105479595D01*
X165100296Y-105497857D01*
X165100290Y-105497861D01*
X165093580Y-105501830D01*
X165088067Y-105507341D01*
X165088060Y-105507348D01*
X165079410Y-105515998D01*
X165064627Y-105528624D01*
X165054726Y-105535817D01*
X165054716Y-105535826D01*
X165048413Y-105540406D01*
X165043444Y-105546411D01*
X165043441Y-105546415D01*
X165020572Y-105574059D01*
X165012711Y-105582697D01*
X161957228Y-108638181D01*
X161917000Y-108665061D01*
X161869547Y-108674500D01*
X135665226Y-108674500D01*
X135607969Y-108660489D01*
X135563651Y-108621623D01*
X135431600Y-108433034D01*
X135428495Y-108428599D01*
X135261401Y-108261505D01*
X135256970Y-108258402D01*
X135256966Y-108258399D01*
X135072259Y-108129066D01*
X135072257Y-108129064D01*
X135067830Y-108125965D01*
X135062933Y-108123681D01*
X135062927Y-108123678D01*
X134858572Y-108028386D01*
X134858570Y-108028385D01*
X134853663Y-108026097D01*
X134848438Y-108024697D01*
X134848430Y-108024694D01*
X134630634Y-107966337D01*
X134630630Y-107966336D01*
X134625408Y-107964937D01*
X134620020Y-107964465D01*
X134620017Y-107964465D01*
X134395395Y-107944813D01*
X134390000Y-107944341D01*
X134384605Y-107944813D01*
X134159982Y-107964465D01*
X134159977Y-107964465D01*
X134154592Y-107964937D01*
X134149371Y-107966335D01*
X134149365Y-107966337D01*
X133931569Y-108024694D01*
X133931557Y-108024698D01*
X133926337Y-108026097D01*
X133921432Y-108028383D01*
X133921427Y-108028386D01*
X133717081Y-108123675D01*
X133717077Y-108123677D01*
X133712171Y-108125965D01*
X133707738Y-108129068D01*
X133707731Y-108129073D01*
X133523034Y-108258399D01*
X133523029Y-108258402D01*
X133518599Y-108261505D01*
X133514775Y-108265328D01*
X133514769Y-108265334D01*
X133355334Y-108424769D01*
X133355328Y-108424775D01*
X133351505Y-108428599D01*
X133348402Y-108433029D01*
X133348399Y-108433034D01*
X133219073Y-108617731D01*
X133219068Y-108617738D01*
X133215965Y-108622171D01*
X133213677Y-108627077D01*
X133213675Y-108627081D01*
X133118386Y-108831427D01*
X133118383Y-108831432D01*
X133116097Y-108836337D01*
X133114698Y-108841557D01*
X133114694Y-108841569D01*
X133056337Y-109059365D01*
X133056335Y-109059371D01*
X133054937Y-109064592D01*
X133054465Y-109069977D01*
X133054465Y-109069982D01*
X133043317Y-109197404D01*
X133034341Y-109300000D01*
X133034813Y-109305395D01*
X133049668Y-109475192D01*
X133054937Y-109535408D01*
X133056336Y-109540630D01*
X133056337Y-109540634D01*
X133114694Y-109758430D01*
X133114697Y-109758438D01*
X133116097Y-109763663D01*
X133118385Y-109768570D01*
X133118386Y-109768572D01*
X133143942Y-109823377D01*
X133177418Y-109895167D01*
X133183447Y-109908095D01*
X133194800Y-109968610D01*
X133175646Y-110027125D01*
X133130708Y-110069214D01*
X133071065Y-110084500D01*
X132095060Y-110084500D01*
X132033061Y-110067888D01*
X131987674Y-110022502D01*
X131971060Y-109960503D01*
X131987587Y-109898815D01*
X131990142Y-109895167D01*
X132083723Y-109694480D01*
X132141035Y-109480591D01*
X132160334Y-109260000D01*
X132141035Y-109039409D01*
X132124058Y-108976052D01*
X132085122Y-108830741D01*
X132085121Y-108830740D01*
X132083723Y-108825520D01*
X131990142Y-108624833D01*
X131863132Y-108443445D01*
X131706555Y-108286868D01*
X131702124Y-108283765D01*
X131702120Y-108283762D01*
X131529604Y-108162965D01*
X131529605Y-108162965D01*
X131525167Y-108159858D01*
X131447572Y-108123675D01*
X131329383Y-108068563D01*
X131329380Y-108068561D01*
X131324480Y-108066277D01*
X131319265Y-108064879D01*
X131319258Y-108064877D01*
X131115823Y-108010366D01*
X131115812Y-108010364D01*
X131110591Y-108008965D01*
X131105199Y-108008493D01*
X131105192Y-108008492D01*
X130895395Y-107990138D01*
X130890000Y-107989666D01*
X130884605Y-107990138D01*
X130674807Y-108008492D01*
X130674798Y-108008493D01*
X130669409Y-108008965D01*
X130664189Y-108010363D01*
X130664176Y-108010366D01*
X130460741Y-108064877D01*
X130460730Y-108064880D01*
X130455520Y-108066277D01*
X130450623Y-108068560D01*
X130450616Y-108068563D01*
X130259747Y-108157566D01*
X130259741Y-108157569D01*
X130254833Y-108159858D01*
X130250399Y-108162962D01*
X130250395Y-108162965D01*
X130077879Y-108283762D01*
X130077869Y-108283769D01*
X130073445Y-108286868D01*
X130069619Y-108290693D01*
X130069613Y-108290699D01*
X129920699Y-108439613D01*
X129920693Y-108439619D01*
X129916868Y-108443445D01*
X129913769Y-108447869D01*
X129913762Y-108447879D01*
X129792965Y-108620395D01*
X129792962Y-108620399D01*
X129789858Y-108624833D01*
X129787569Y-108629741D01*
X129787566Y-108629747D01*
X129698563Y-108820616D01*
X129698560Y-108820623D01*
X129696277Y-108825520D01*
X129694880Y-108830730D01*
X129694877Y-108830741D01*
X129649125Y-109001491D01*
X129617031Y-109057078D01*
X129561443Y-109089172D01*
X129497256Y-109089172D01*
X129441669Y-109057078D01*
X129161819Y-108777228D01*
X129134939Y-108737000D01*
X129125500Y-108689547D01*
X129125500Y-99060000D01*
X129529666Y-99060000D01*
X129530138Y-99065395D01*
X129548492Y-99275192D01*
X129548493Y-99275199D01*
X129548965Y-99280591D01*
X129550364Y-99285812D01*
X129550366Y-99285823D01*
X129604877Y-99489258D01*
X129604879Y-99489265D01*
X129606277Y-99494480D01*
X129608561Y-99499380D01*
X129608563Y-99499383D01*
X129618052Y-99519732D01*
X129699858Y-99695167D01*
X129702965Y-99699604D01*
X129823762Y-99872120D01*
X129823765Y-99872124D01*
X129826868Y-99876555D01*
X129983445Y-100033132D01*
X129987877Y-100036235D01*
X129987879Y-100036237D01*
X130161624Y-100157895D01*
X130200489Y-100202213D01*
X130214500Y-100259470D01*
X130214500Y-101328538D01*
X130200489Y-101385795D01*
X130161624Y-101430113D01*
X130027879Y-101523762D01*
X130027869Y-101523769D01*
X130023445Y-101526868D01*
X130019619Y-101530693D01*
X130019613Y-101530699D01*
X129870699Y-101679613D01*
X129870693Y-101679619D01*
X129866868Y-101683445D01*
X129863769Y-101687869D01*
X129863762Y-101687879D01*
X129742965Y-101860395D01*
X129742962Y-101860399D01*
X129739858Y-101864833D01*
X129737569Y-101869741D01*
X129737566Y-101869747D01*
X129648563Y-102060616D01*
X129648560Y-102060623D01*
X129646277Y-102065520D01*
X129644880Y-102070730D01*
X129644877Y-102070741D01*
X129590366Y-102274176D01*
X129590363Y-102274189D01*
X129588965Y-102279409D01*
X129588493Y-102284798D01*
X129588492Y-102284807D01*
X129570676Y-102488457D01*
X129569666Y-102500000D01*
X129570138Y-102505395D01*
X129588492Y-102715192D01*
X129588493Y-102715199D01*
X129588965Y-102720591D01*
X129590364Y-102725812D01*
X129590366Y-102725823D01*
X129644877Y-102929258D01*
X129644879Y-102929265D01*
X129646277Y-102934480D01*
X129648561Y-102939380D01*
X129648563Y-102939383D01*
X129658052Y-102959732D01*
X129739858Y-103135167D01*
X129742965Y-103139604D01*
X129863762Y-103312120D01*
X129863765Y-103312124D01*
X129866868Y-103316555D01*
X130023445Y-103473132D01*
X130204833Y-103600142D01*
X130405520Y-103693723D01*
X130410740Y-103695121D01*
X130410741Y-103695122D01*
X130614176Y-103749633D01*
X130614178Y-103749633D01*
X130619409Y-103751035D01*
X130840000Y-103770334D01*
X131060591Y-103751035D01*
X131274480Y-103693723D01*
X131475167Y-103600142D01*
X131656555Y-103473132D01*
X131813132Y-103316555D01*
X131940142Y-103135167D01*
X131997618Y-103011907D01*
X132043375Y-102959732D01*
X132110000Y-102940312D01*
X132176625Y-102959732D01*
X132222381Y-103011907D01*
X132279858Y-103135167D01*
X132282965Y-103139604D01*
X132403762Y-103312120D01*
X132403765Y-103312124D01*
X132406868Y-103316555D01*
X132563445Y-103473132D01*
X132744833Y-103600142D01*
X132945520Y-103693723D01*
X132950740Y-103695121D01*
X132950741Y-103695122D01*
X133154176Y-103749633D01*
X133154178Y-103749633D01*
X133159409Y-103751035D01*
X133380000Y-103770334D01*
X133600591Y-103751035D01*
X133814480Y-103693723D01*
X134015167Y-103600142D01*
X134196555Y-103473132D01*
X134353132Y-103316555D01*
X134480142Y-103135167D01*
X134537618Y-103011907D01*
X134583375Y-102959732D01*
X134650000Y-102940312D01*
X134716625Y-102959732D01*
X134762381Y-103011907D01*
X134819858Y-103135167D01*
X134822965Y-103139604D01*
X134943762Y-103312120D01*
X134943765Y-103312124D01*
X134946868Y-103316555D01*
X135103445Y-103473132D01*
X135284833Y-103600142D01*
X135485520Y-103693723D01*
X135490740Y-103695121D01*
X135490741Y-103695122D01*
X135694176Y-103749633D01*
X135694178Y-103749633D01*
X135699409Y-103751035D01*
X135920000Y-103770334D01*
X136140591Y-103751035D01*
X136354480Y-103693723D01*
X136555167Y-103600142D01*
X136621675Y-103553572D01*
X137763347Y-103553572D01*
X137770780Y-103561683D01*
X137820644Y-103596598D01*
X137829994Y-103601996D01*
X138020782Y-103690962D01*
X138030924Y-103694654D01*
X138234269Y-103749139D01*
X138244886Y-103751011D01*
X138454605Y-103769360D01*
X138465395Y-103769360D01*
X138675113Y-103751011D01*
X138685730Y-103749139D01*
X138889075Y-103694654D01*
X138899217Y-103690962D01*
X139090013Y-103601993D01*
X139099345Y-103596605D01*
X139149220Y-103561682D01*
X139156651Y-103553573D01*
X139150737Y-103544290D01*
X138471542Y-102865095D01*
X138460000Y-102858431D01*
X138448457Y-102865095D01*
X137769258Y-103544293D01*
X137763347Y-103553572D01*
X136621675Y-103553572D01*
X136736555Y-103473132D01*
X136893132Y-103316555D01*
X137020142Y-103135167D01*
X137077895Y-103011312D01*
X137123649Y-102959141D01*
X137190274Y-102939721D01*
X137256900Y-102959140D01*
X137302657Y-103011316D01*
X137358003Y-103130005D01*
X137363401Y-103139355D01*
X137398314Y-103189217D01*
X137406427Y-103196651D01*
X137415705Y-103190740D01*
X138094904Y-102511542D01*
X138101568Y-102499999D01*
X138094904Y-102488457D01*
X137415705Y-101809258D01*
X137406426Y-101803347D01*
X137398315Y-101810780D01*
X137363399Y-101860647D01*
X137358004Y-101869992D01*
X137302657Y-101988683D01*
X137256900Y-102040859D01*
X137190274Y-102060278D01*
X137123649Y-102040858D01*
X137077893Y-101988682D01*
X137077618Y-101988092D01*
X137020142Y-101864833D01*
X136893132Y-101683445D01*
X136736555Y-101526868D01*
X136732124Y-101523765D01*
X136732120Y-101523762D01*
X136621673Y-101446426D01*
X137763347Y-101446426D01*
X137769258Y-101455705D01*
X138448457Y-102134904D01*
X138460000Y-102141568D01*
X138471542Y-102134904D01*
X139150740Y-101455705D01*
X139156651Y-101446427D01*
X139149217Y-101438314D01*
X139099355Y-101403401D01*
X139090005Y-101398003D01*
X138899217Y-101309037D01*
X138889075Y-101305345D01*
X138685730Y-101250860D01*
X138675113Y-101248988D01*
X138465395Y-101230640D01*
X138454605Y-101230640D01*
X138244886Y-101248988D01*
X138234269Y-101250860D01*
X138030924Y-101305345D01*
X138020782Y-101309037D01*
X137829992Y-101398004D01*
X137820647Y-101403399D01*
X137770780Y-101438315D01*
X137763347Y-101446426D01*
X136621673Y-101446426D01*
X136558376Y-101402105D01*
X136519511Y-101357787D01*
X136505500Y-101300530D01*
X136505500Y-100231462D01*
X136519511Y-100174205D01*
X136558376Y-100129887D01*
X136581676Y-100113572D01*
X137723347Y-100113572D01*
X137730780Y-100121683D01*
X137780644Y-100156598D01*
X137789994Y-100161996D01*
X137980782Y-100250962D01*
X137990924Y-100254654D01*
X138194269Y-100309139D01*
X138204886Y-100311011D01*
X138414605Y-100329360D01*
X138425395Y-100329360D01*
X138635113Y-100311011D01*
X138645730Y-100309139D01*
X138849075Y-100254654D01*
X138859217Y-100250962D01*
X139050013Y-100161993D01*
X139059345Y-100156605D01*
X139109220Y-100121682D01*
X139116651Y-100113573D01*
X139110737Y-100104290D01*
X138431542Y-99425095D01*
X138420000Y-99418431D01*
X138408457Y-99425095D01*
X137729258Y-100104293D01*
X137723347Y-100113572D01*
X136581676Y-100113572D01*
X136691249Y-100036847D01*
X136696555Y-100033132D01*
X136853132Y-99876555D01*
X136980142Y-99695167D01*
X137037895Y-99571312D01*
X137083649Y-99519141D01*
X137150274Y-99499721D01*
X137216900Y-99519140D01*
X137262657Y-99571316D01*
X137318003Y-99690005D01*
X137323401Y-99699355D01*
X137358314Y-99749217D01*
X137366427Y-99756651D01*
X137375705Y-99750740D01*
X138054904Y-99071542D01*
X138061568Y-99060000D01*
X138054904Y-99048457D01*
X137375705Y-98369258D01*
X137366426Y-98363347D01*
X137358315Y-98370780D01*
X137323399Y-98420647D01*
X137318004Y-98429992D01*
X137262657Y-98548683D01*
X137216900Y-98600859D01*
X137150274Y-98620278D01*
X137083649Y-98600858D01*
X137037893Y-98548682D01*
X137036725Y-98546177D01*
X136980142Y-98424833D01*
X136853132Y-98243445D01*
X136696555Y-98086868D01*
X136692124Y-98083765D01*
X136692120Y-98083762D01*
X136581673Y-98006426D01*
X137723347Y-98006426D01*
X137729258Y-98015705D01*
X138408457Y-98694904D01*
X138420000Y-98701568D01*
X138431542Y-98694904D01*
X139110740Y-98015705D01*
X139116651Y-98006427D01*
X139109217Y-97998314D01*
X139059355Y-97963401D01*
X139050005Y-97958003D01*
X138859217Y-97869037D01*
X138849075Y-97865345D01*
X138645730Y-97810860D01*
X138635113Y-97808988D01*
X138425395Y-97790640D01*
X138414605Y-97790640D01*
X138204886Y-97808988D01*
X138194269Y-97810860D01*
X137990924Y-97865345D01*
X137980782Y-97869037D01*
X137789992Y-97958004D01*
X137780647Y-97963399D01*
X137730780Y-97998315D01*
X137723347Y-98006426D01*
X136581673Y-98006426D01*
X136519604Y-97962965D01*
X136519605Y-97962965D01*
X136515167Y-97959858D01*
X136510252Y-97957566D01*
X136319383Y-97868563D01*
X136319380Y-97868561D01*
X136314480Y-97866277D01*
X136309265Y-97864879D01*
X136309258Y-97864877D01*
X136105823Y-97810366D01*
X136105812Y-97810364D01*
X136100591Y-97808965D01*
X136095199Y-97808493D01*
X136095192Y-97808492D01*
X135885395Y-97790138D01*
X135880000Y-97789666D01*
X135874605Y-97790138D01*
X135664807Y-97808492D01*
X135664798Y-97808493D01*
X135659409Y-97808965D01*
X135654189Y-97810363D01*
X135654176Y-97810366D01*
X135450741Y-97864877D01*
X135450730Y-97864880D01*
X135445520Y-97866277D01*
X135440623Y-97868560D01*
X135440616Y-97868563D01*
X135249747Y-97957566D01*
X135249741Y-97957569D01*
X135244833Y-97959858D01*
X135240399Y-97962962D01*
X135240395Y-97962965D01*
X135067879Y-98083762D01*
X135067869Y-98083769D01*
X135063445Y-98086868D01*
X135059619Y-98090693D01*
X135059613Y-98090699D01*
X134910699Y-98239613D01*
X134910693Y-98239619D01*
X134906868Y-98243445D01*
X134903769Y-98247869D01*
X134903762Y-98247879D01*
X134782965Y-98420395D01*
X134782962Y-98420399D01*
X134779858Y-98424833D01*
X134777570Y-98429738D01*
X134777568Y-98429743D01*
X134722382Y-98548092D01*
X134676625Y-98600268D01*
X134610000Y-98619687D01*
X134543375Y-98600268D01*
X134497618Y-98548092D01*
X134475182Y-98499978D01*
X134440142Y-98424833D01*
X134313132Y-98243445D01*
X134156555Y-98086868D01*
X134152124Y-98083765D01*
X134152120Y-98083762D01*
X133979604Y-97962965D01*
X133979605Y-97962965D01*
X133975167Y-97959858D01*
X133970252Y-97957566D01*
X133779383Y-97868563D01*
X133779380Y-97868561D01*
X133774480Y-97866277D01*
X133769265Y-97864879D01*
X133769258Y-97864877D01*
X133565823Y-97810366D01*
X133565812Y-97810364D01*
X133560591Y-97808965D01*
X133555199Y-97808493D01*
X133555192Y-97808492D01*
X133345395Y-97790138D01*
X133340000Y-97789666D01*
X133334605Y-97790138D01*
X133124807Y-97808492D01*
X133124798Y-97808493D01*
X133119409Y-97808965D01*
X133114189Y-97810363D01*
X133114176Y-97810366D01*
X132910741Y-97864877D01*
X132910730Y-97864880D01*
X132905520Y-97866277D01*
X132900623Y-97868560D01*
X132900616Y-97868563D01*
X132709747Y-97957566D01*
X132709741Y-97957569D01*
X132704833Y-97959858D01*
X132700399Y-97962962D01*
X132700395Y-97962965D01*
X132527879Y-98083762D01*
X132527869Y-98083769D01*
X132523445Y-98086868D01*
X132519619Y-98090693D01*
X132519613Y-98090699D01*
X132370699Y-98239613D01*
X132370693Y-98239619D01*
X132366868Y-98243445D01*
X132363769Y-98247869D01*
X132363762Y-98247879D01*
X132242965Y-98420395D01*
X132242962Y-98420399D01*
X132239858Y-98424833D01*
X132237570Y-98429738D01*
X132237568Y-98429743D01*
X132182382Y-98548092D01*
X132136625Y-98600268D01*
X132070000Y-98619687D01*
X132003375Y-98600268D01*
X131957618Y-98548092D01*
X131935182Y-98499978D01*
X131900142Y-98424833D01*
X131773132Y-98243445D01*
X131616555Y-98086868D01*
X131612124Y-98083765D01*
X131612120Y-98083762D01*
X131439604Y-97962965D01*
X131439605Y-97962965D01*
X131435167Y-97959858D01*
X131430252Y-97957566D01*
X131239383Y-97868563D01*
X131239380Y-97868561D01*
X131234480Y-97866277D01*
X131229265Y-97864879D01*
X131229258Y-97864877D01*
X131025823Y-97810366D01*
X131025812Y-97810364D01*
X131020591Y-97808965D01*
X131015199Y-97808493D01*
X131015192Y-97808492D01*
X130805395Y-97790138D01*
X130800000Y-97789666D01*
X130794605Y-97790138D01*
X130584807Y-97808492D01*
X130584798Y-97808493D01*
X130579409Y-97808965D01*
X130574189Y-97810363D01*
X130574176Y-97810366D01*
X130370741Y-97864877D01*
X130370730Y-97864880D01*
X130365520Y-97866277D01*
X130360623Y-97868560D01*
X130360616Y-97868563D01*
X130169747Y-97957566D01*
X130169741Y-97957569D01*
X130164833Y-97959858D01*
X130160399Y-97962962D01*
X130160395Y-97962965D01*
X129987879Y-98083762D01*
X129987869Y-98083769D01*
X129983445Y-98086868D01*
X129979619Y-98090693D01*
X129979613Y-98090699D01*
X129830699Y-98239613D01*
X129830693Y-98239619D01*
X129826868Y-98243445D01*
X129823769Y-98247869D01*
X129823762Y-98247879D01*
X129702965Y-98420395D01*
X129702962Y-98420399D01*
X129699858Y-98424833D01*
X129697569Y-98429741D01*
X129697566Y-98429747D01*
X129608563Y-98620616D01*
X129608560Y-98620623D01*
X129606277Y-98625520D01*
X129604880Y-98630730D01*
X129604877Y-98630741D01*
X129550366Y-98834176D01*
X129550363Y-98834189D01*
X129548965Y-98839409D01*
X129548493Y-98844798D01*
X129548492Y-98844807D01*
X129530676Y-99048457D01*
X129529666Y-99060000D01*
X129125500Y-99060000D01*
X129125500Y-92310452D01*
X129134939Y-92262999D01*
X129161819Y-92222771D01*
X132222772Y-89161819D01*
X132263000Y-89134939D01*
X132310453Y-89125500D01*
X161922225Y-89125500D01*
X161933280Y-89126021D01*
X161940667Y-89127673D01*
X162007872Y-89125561D01*
X162011768Y-89125500D01*
X162035448Y-89125500D01*
X162039350Y-89125500D01*
X162043313Y-89124999D01*
X162054963Y-89124080D01*
X162098627Y-89122709D01*
X162117861Y-89117119D01*
X162136917Y-89113174D01*
X162156792Y-89110664D01*
X162197395Y-89094587D01*
X162208450Y-89090802D01*
X162250390Y-89078618D01*
X162267629Y-89068422D01*
X162285103Y-89059862D01*
X162296474Y-89055360D01*
X162296476Y-89055358D01*
X162303732Y-89052486D01*
X162339069Y-89026811D01*
X162348824Y-89020403D01*
X162386420Y-88998170D01*
X162400584Y-88984005D01*
X162415379Y-88971368D01*
X162431587Y-88959594D01*
X162459428Y-88925938D01*
X162467279Y-88917309D01*
X164207306Y-87177282D01*
X164215482Y-87169843D01*
X164221877Y-87165786D01*
X164267933Y-87116740D01*
X164270550Y-87114038D01*
X164290120Y-87094470D01*
X164292565Y-87091316D01*
X164300155Y-87082428D01*
X164330062Y-87050582D01*
X164339709Y-87033032D01*
X164350393Y-87016766D01*
X164362674Y-87000936D01*
X164380018Y-86960851D01*
X164385160Y-86950356D01*
X164406197Y-86912092D01*
X164411179Y-86892689D01*
X164417480Y-86874283D01*
X164425438Y-86855895D01*
X164432269Y-86812756D01*
X164434639Y-86801315D01*
X164443560Y-86766574D01*
X164443559Y-86766574D01*
X164445500Y-86759019D01*
X164445500Y-86738983D01*
X164447025Y-86719597D01*
X164450160Y-86699804D01*
X164446050Y-86656324D01*
X164445500Y-86644655D01*
X164445500Y-79911462D01*
X164459511Y-79854205D01*
X164498376Y-79809887D01*
X164587714Y-79747331D01*
X164636555Y-79713132D01*
X164793132Y-79556555D01*
X164920142Y-79375167D01*
X164977618Y-79251907D01*
X165023375Y-79199732D01*
X165090000Y-79180312D01*
X165156625Y-79199732D01*
X165202381Y-79251907D01*
X165259858Y-79375167D01*
X165262965Y-79379604D01*
X165383762Y-79552120D01*
X165383765Y-79552124D01*
X165386868Y-79556555D01*
X165543445Y-79713132D01*
X165724833Y-79840142D01*
X165925520Y-79933723D01*
X165930740Y-79935121D01*
X165930741Y-79935122D01*
X166134176Y-79989633D01*
X166134178Y-79989633D01*
X166139409Y-79991035D01*
X166360000Y-80010334D01*
X166580591Y-79991035D01*
X166794480Y-79933723D01*
X166995167Y-79840142D01*
X167176555Y-79713132D01*
X167333132Y-79556555D01*
X167460142Y-79375167D01*
X167517618Y-79251907D01*
X167563375Y-79199732D01*
X167630000Y-79180312D01*
X167696625Y-79199732D01*
X167742381Y-79251907D01*
X167799858Y-79375167D01*
X167802965Y-79379604D01*
X167923762Y-79552120D01*
X167923765Y-79552124D01*
X167926868Y-79556555D01*
X168083445Y-79713132D01*
X168264833Y-79840142D01*
X168465520Y-79933723D01*
X168470740Y-79935121D01*
X168470741Y-79935122D01*
X168674176Y-79989633D01*
X168674178Y-79989633D01*
X168679409Y-79991035D01*
X168900000Y-80010334D01*
X169120591Y-79991035D01*
X169334480Y-79933723D01*
X169535167Y-79840142D01*
X169716555Y-79713132D01*
X169873132Y-79556555D01*
X170000142Y-79375167D01*
X170093723Y-79174480D01*
X170151035Y-78960591D01*
X170170334Y-78740000D01*
X170151035Y-78519409D01*
X170093723Y-78305520D01*
X170000142Y-78104833D01*
X169899124Y-77960565D01*
X169876237Y-77927879D01*
X169876235Y-77927877D01*
X169873132Y-77923445D01*
X169716555Y-77766868D01*
X169712124Y-77763765D01*
X169712120Y-77763762D01*
X169578376Y-77670113D01*
X169539511Y-77625795D01*
X169525500Y-77568538D01*
X169525500Y-76521462D01*
X169539511Y-76464205D01*
X169578376Y-76419887D01*
X169667714Y-76357331D01*
X169716555Y-76323132D01*
X169873132Y-76166555D01*
X170000142Y-75985167D01*
X170093723Y-75784480D01*
X170151035Y-75570591D01*
X170170334Y-75350000D01*
X170151035Y-75129409D01*
X170148504Y-75119965D01*
X170095122Y-74920741D01*
X170095121Y-74920740D01*
X170093723Y-74915520D01*
X170000142Y-74714833D01*
X169899124Y-74570565D01*
X169876237Y-74537879D01*
X169876235Y-74537877D01*
X169873132Y-74533445D01*
X169716555Y-74376868D01*
X169712124Y-74373765D01*
X169712120Y-74373762D01*
X169539604Y-74252965D01*
X169539605Y-74252965D01*
X169535167Y-74249858D01*
X169502339Y-74234550D01*
X169339383Y-74158563D01*
X169339380Y-74158561D01*
X169334480Y-74156277D01*
X169329265Y-74154879D01*
X169329258Y-74154877D01*
X169125823Y-74100366D01*
X169125812Y-74100364D01*
X169120591Y-74098965D01*
X169115199Y-74098493D01*
X169115192Y-74098492D01*
X168905395Y-74080138D01*
X168900000Y-74079666D01*
X168894605Y-74080138D01*
X168684807Y-74098492D01*
X168684798Y-74098493D01*
X168679409Y-74098965D01*
X168674189Y-74100363D01*
X168674176Y-74100366D01*
X168470741Y-74154877D01*
X168470730Y-74154880D01*
X168465520Y-74156277D01*
X168460623Y-74158560D01*
X168460616Y-74158563D01*
X168269747Y-74247566D01*
X168269741Y-74247569D01*
X168264833Y-74249858D01*
X168260399Y-74252962D01*
X168260395Y-74252965D01*
X168087879Y-74373762D01*
X168087869Y-74373769D01*
X168083445Y-74376868D01*
X168079619Y-74380693D01*
X168079613Y-74380699D01*
X167930699Y-74529613D01*
X167930693Y-74529619D01*
X167926868Y-74533445D01*
X167923769Y-74537869D01*
X167923762Y-74537879D01*
X167802965Y-74710395D01*
X167802962Y-74710399D01*
X167799858Y-74714833D01*
X167797570Y-74719738D01*
X167797568Y-74719743D01*
X167742382Y-74838092D01*
X167696625Y-74890268D01*
X167630000Y-74909687D01*
X167563375Y-74890268D01*
X167517618Y-74838092D01*
X167460142Y-74714833D01*
X167359124Y-74570565D01*
X167336237Y-74537879D01*
X167336235Y-74537877D01*
X167333132Y-74533445D01*
X167176555Y-74376868D01*
X167172124Y-74373765D01*
X167172120Y-74373762D01*
X166999604Y-74252965D01*
X166999605Y-74252965D01*
X166995167Y-74249858D01*
X166962339Y-74234550D01*
X166799383Y-74158563D01*
X166799380Y-74158561D01*
X166794480Y-74156277D01*
X166789265Y-74154879D01*
X166789258Y-74154877D01*
X166585823Y-74100366D01*
X166585812Y-74100364D01*
X166580591Y-74098965D01*
X166575199Y-74098493D01*
X166575192Y-74098492D01*
X166365395Y-74080138D01*
X166360000Y-74079666D01*
X166354605Y-74080138D01*
X166144807Y-74098492D01*
X166144798Y-74098493D01*
X166139409Y-74098965D01*
X166134189Y-74100363D01*
X166134176Y-74100366D01*
X165930741Y-74154877D01*
X165930730Y-74154880D01*
X165925520Y-74156277D01*
X165920623Y-74158560D01*
X165920616Y-74158563D01*
X165729747Y-74247566D01*
X165729741Y-74247569D01*
X165724833Y-74249858D01*
X165720399Y-74252962D01*
X165720395Y-74252965D01*
X165547879Y-74373762D01*
X165547869Y-74373769D01*
X165543445Y-74376868D01*
X165539619Y-74380693D01*
X165539613Y-74380699D01*
X165390699Y-74529613D01*
X165390693Y-74529619D01*
X165386868Y-74533445D01*
X165383769Y-74537869D01*
X165383762Y-74537879D01*
X165262965Y-74710395D01*
X165262962Y-74710399D01*
X165259858Y-74714833D01*
X165257570Y-74719738D01*
X165257568Y-74719743D01*
X165202382Y-74838092D01*
X165156625Y-74890268D01*
X165090000Y-74909687D01*
X165023375Y-74890268D01*
X164977618Y-74838092D01*
X164920142Y-74714833D01*
X164819124Y-74570565D01*
X164796237Y-74537879D01*
X164796235Y-74537877D01*
X164793132Y-74533445D01*
X164636555Y-74376868D01*
X164632124Y-74373765D01*
X164632120Y-74373762D01*
X164459604Y-74252965D01*
X164459605Y-74252965D01*
X164455167Y-74249858D01*
X164422339Y-74234550D01*
X164259383Y-74158563D01*
X164259380Y-74158561D01*
X164254480Y-74156277D01*
X164249265Y-74154879D01*
X164249258Y-74154877D01*
X164045823Y-74100366D01*
X164045812Y-74100364D01*
X164040591Y-74098965D01*
X164035199Y-74098493D01*
X164035192Y-74098492D01*
X163825395Y-74080138D01*
X163820000Y-74079666D01*
X163814605Y-74080138D01*
X163604807Y-74098492D01*
X163604798Y-74098493D01*
X163599409Y-74098965D01*
X163594189Y-74100363D01*
X163594176Y-74100366D01*
X163390741Y-74154877D01*
X163390730Y-74154880D01*
X163385520Y-74156277D01*
X163380623Y-74158560D01*
X163380616Y-74158563D01*
X163189747Y-74247566D01*
X163189741Y-74247569D01*
X163184833Y-74249858D01*
X163180399Y-74252962D01*
X163180395Y-74252965D01*
X163007879Y-74373762D01*
X163007869Y-74373769D01*
X163003445Y-74376868D01*
X162999619Y-74380693D01*
X162999613Y-74380699D01*
X162850699Y-74529613D01*
X162850693Y-74529619D01*
X162846868Y-74533445D01*
X162843769Y-74537869D01*
X162843762Y-74537879D01*
X162722965Y-74710395D01*
X162722962Y-74710399D01*
X162719858Y-74714833D01*
X162717570Y-74719738D01*
X162717568Y-74719743D01*
X162662382Y-74838092D01*
X162616625Y-74890268D01*
X162550000Y-74909687D01*
X162483375Y-74890268D01*
X162437618Y-74838092D01*
X162380142Y-74714833D01*
X162279124Y-74570565D01*
X162256237Y-74537879D01*
X162256235Y-74537877D01*
X162253132Y-74533445D01*
X162096555Y-74376868D01*
X162092124Y-74373765D01*
X162092120Y-74373762D01*
X161919604Y-74252965D01*
X161919605Y-74252965D01*
X161915167Y-74249858D01*
X161882339Y-74234550D01*
X161719383Y-74158563D01*
X161719380Y-74158561D01*
X161714480Y-74156277D01*
X161709265Y-74154879D01*
X161709258Y-74154877D01*
X161505823Y-74100366D01*
X161505812Y-74100364D01*
X161500591Y-74098965D01*
X161495199Y-74098493D01*
X161495192Y-74098492D01*
X161285395Y-74080138D01*
X161280000Y-74079666D01*
X161274605Y-74080138D01*
X161064807Y-74098492D01*
X161064798Y-74098493D01*
X161059409Y-74098965D01*
X161054189Y-74100363D01*
X161054176Y-74100366D01*
X160850741Y-74154877D01*
X160850730Y-74154880D01*
X160845520Y-74156277D01*
X160840623Y-74158560D01*
X160840616Y-74158563D01*
X160649747Y-74247566D01*
X160649741Y-74247569D01*
X160644833Y-74249858D01*
X160640399Y-74252962D01*
X160640395Y-74252965D01*
X160467879Y-74373762D01*
X160467869Y-74373769D01*
X160463445Y-74376868D01*
X160459619Y-74380693D01*
X160459613Y-74380699D01*
X160310699Y-74529613D01*
X160310693Y-74529619D01*
X160306868Y-74533445D01*
X160303769Y-74537869D01*
X160303762Y-74537879D01*
X160182965Y-74710395D01*
X160182962Y-74710399D01*
X160179858Y-74714833D01*
X160177570Y-74719738D01*
X160177568Y-74719743D01*
X160122382Y-74838092D01*
X160076625Y-74890268D01*
X160010000Y-74909687D01*
X159943375Y-74890268D01*
X159897618Y-74838092D01*
X159840142Y-74714833D01*
X159739124Y-74570565D01*
X159716237Y-74537879D01*
X159716235Y-74537877D01*
X159713132Y-74533445D01*
X159556555Y-74376868D01*
X159552124Y-74373765D01*
X159552120Y-74373762D01*
X159379604Y-74252965D01*
X159379605Y-74252965D01*
X159375167Y-74249858D01*
X159342339Y-74234550D01*
X159179383Y-74158563D01*
X159179380Y-74158561D01*
X159174480Y-74156277D01*
X159169265Y-74154879D01*
X159169258Y-74154877D01*
X158965823Y-74100366D01*
X158965812Y-74100364D01*
X158960591Y-74098965D01*
X158955199Y-74098493D01*
X158955192Y-74098492D01*
X158745395Y-74080138D01*
X158740000Y-74079666D01*
X158734605Y-74080138D01*
X158524807Y-74098492D01*
X158524798Y-74098493D01*
X158519409Y-74098965D01*
X158514189Y-74100363D01*
X158514176Y-74100366D01*
X158310741Y-74154877D01*
X158310730Y-74154880D01*
X158305520Y-74156277D01*
X158300623Y-74158560D01*
X158300616Y-74158563D01*
X158109747Y-74247566D01*
X158109741Y-74247569D01*
X158104833Y-74249858D01*
X158100399Y-74252962D01*
X158100395Y-74252965D01*
X157927879Y-74373762D01*
X157927869Y-74373769D01*
X157923445Y-74376868D01*
X157919619Y-74380693D01*
X157919613Y-74380699D01*
X157770699Y-74529613D01*
X157770693Y-74529619D01*
X157766868Y-74533445D01*
X157763769Y-74537869D01*
X157763762Y-74537879D01*
X157642965Y-74710395D01*
X157642962Y-74710399D01*
X157639858Y-74714833D01*
X157637570Y-74719738D01*
X157637568Y-74719743D01*
X157582382Y-74838092D01*
X157536625Y-74890268D01*
X157470000Y-74909687D01*
X157403375Y-74890268D01*
X157357618Y-74838092D01*
X157300142Y-74714833D01*
X157199124Y-74570565D01*
X157176237Y-74537879D01*
X157176235Y-74537877D01*
X157173132Y-74533445D01*
X157016555Y-74376868D01*
X157012124Y-74373765D01*
X157012120Y-74373762D01*
X156839604Y-74252965D01*
X156839605Y-74252965D01*
X156835167Y-74249858D01*
X156802339Y-74234550D01*
X156639383Y-74158563D01*
X156639380Y-74158561D01*
X156634480Y-74156277D01*
X156629265Y-74154879D01*
X156629258Y-74154877D01*
X156425823Y-74100366D01*
X156425812Y-74100364D01*
X156420591Y-74098965D01*
X156415199Y-74098493D01*
X156415192Y-74098492D01*
X156205395Y-74080138D01*
X156200000Y-74079666D01*
X156194605Y-74080138D01*
X155984807Y-74098492D01*
X155984798Y-74098493D01*
X155979409Y-74098965D01*
X155974189Y-74100363D01*
X155974176Y-74100366D01*
X155770741Y-74154877D01*
X155770730Y-74154880D01*
X155765520Y-74156277D01*
X155760623Y-74158560D01*
X155760616Y-74158563D01*
X155569747Y-74247566D01*
X155569741Y-74247569D01*
X155564833Y-74249858D01*
X155560399Y-74252962D01*
X155560395Y-74252965D01*
X155387879Y-74373762D01*
X155387869Y-74373769D01*
X155383445Y-74376868D01*
X155379619Y-74380693D01*
X155379613Y-74380699D01*
X155230699Y-74529613D01*
X155230693Y-74529619D01*
X155226868Y-74533445D01*
X155223769Y-74537869D01*
X155223762Y-74537879D01*
X155102965Y-74710395D01*
X155102962Y-74710399D01*
X155099858Y-74714833D01*
X155097570Y-74719738D01*
X155097568Y-74719743D01*
X155042382Y-74838092D01*
X154996625Y-74890268D01*
X154930000Y-74909687D01*
X154863375Y-74890268D01*
X154817618Y-74838092D01*
X154760142Y-74714833D01*
X154659124Y-74570565D01*
X154636237Y-74537879D01*
X154636235Y-74537877D01*
X154633132Y-74533445D01*
X154476555Y-74376868D01*
X154472124Y-74373765D01*
X154472120Y-74373762D01*
X154299604Y-74252965D01*
X154299605Y-74252965D01*
X154295167Y-74249858D01*
X154262339Y-74234550D01*
X154099383Y-74158563D01*
X154099380Y-74158561D01*
X154094480Y-74156277D01*
X154089265Y-74154879D01*
X154089258Y-74154877D01*
X153885823Y-74100366D01*
X153885812Y-74100364D01*
X153880591Y-74098965D01*
X153875199Y-74098493D01*
X153875192Y-74098492D01*
X153665395Y-74080138D01*
X153660000Y-74079666D01*
X153654605Y-74080138D01*
X153444807Y-74098492D01*
X153444798Y-74098493D01*
X153439409Y-74098965D01*
X153434189Y-74100363D01*
X153434176Y-74100366D01*
X153230741Y-74154877D01*
X153230730Y-74154880D01*
X153225520Y-74156277D01*
X153220623Y-74158560D01*
X153220616Y-74158563D01*
X153029747Y-74247566D01*
X153029741Y-74247569D01*
X153024833Y-74249858D01*
X153020399Y-74252962D01*
X153020395Y-74252965D01*
X152847879Y-74373762D01*
X152847869Y-74373769D01*
X152843445Y-74376868D01*
X152839619Y-74380693D01*
X152839613Y-74380699D01*
X152690699Y-74529613D01*
X152690693Y-74529619D01*
X152686868Y-74533445D01*
X152683769Y-74537869D01*
X152683762Y-74537879D01*
X152562965Y-74710395D01*
X152562962Y-74710399D01*
X152559858Y-74714833D01*
X152557570Y-74719738D01*
X152557568Y-74719743D01*
X152502382Y-74838092D01*
X152456625Y-74890268D01*
X152390000Y-74909687D01*
X152323375Y-74890268D01*
X152277618Y-74838092D01*
X152220142Y-74714833D01*
X152119124Y-74570565D01*
X152096237Y-74537879D01*
X152096235Y-74537877D01*
X152093132Y-74533445D01*
X151936555Y-74376868D01*
X151932124Y-74373765D01*
X151932120Y-74373762D01*
X151759604Y-74252965D01*
X151759605Y-74252965D01*
X151755167Y-74249858D01*
X151722339Y-74234550D01*
X151559383Y-74158563D01*
X151559380Y-74158561D01*
X151554480Y-74156277D01*
X151549265Y-74154879D01*
X151549258Y-74154877D01*
X151345823Y-74100366D01*
X151345812Y-74100364D01*
X151340591Y-74098965D01*
X151335199Y-74098493D01*
X151335192Y-74098492D01*
X151125395Y-74080138D01*
X151120000Y-74079666D01*
X151114605Y-74080138D01*
X150904807Y-74098492D01*
X150904798Y-74098493D01*
X150899409Y-74098965D01*
X150894189Y-74100363D01*
X150894176Y-74100366D01*
X150690741Y-74154877D01*
X150690730Y-74154880D01*
X150685520Y-74156277D01*
X150680623Y-74158560D01*
X150680616Y-74158563D01*
X150489747Y-74247566D01*
X150489741Y-74247569D01*
X150484833Y-74249858D01*
X150480399Y-74252962D01*
X150480395Y-74252965D01*
X150307879Y-74373762D01*
X150307869Y-74373769D01*
X150303445Y-74376868D01*
X150299619Y-74380693D01*
X150299613Y-74380699D01*
X150150699Y-74529613D01*
X150150693Y-74529619D01*
X150146868Y-74533445D01*
X150143769Y-74537869D01*
X150143762Y-74537879D01*
X150022965Y-74710395D01*
X150022962Y-74710399D01*
X150019858Y-74714833D01*
X150017570Y-74719738D01*
X150017568Y-74719743D01*
X149962382Y-74838092D01*
X149916625Y-74890268D01*
X149850000Y-74909687D01*
X149783375Y-74890268D01*
X149737618Y-74838092D01*
X149680142Y-74714833D01*
X149579124Y-74570565D01*
X149556237Y-74537879D01*
X149556235Y-74537877D01*
X149553132Y-74533445D01*
X149396555Y-74376868D01*
X149392124Y-74373765D01*
X149392120Y-74373762D01*
X149219604Y-74252965D01*
X149219605Y-74252965D01*
X149215167Y-74249858D01*
X149182339Y-74234550D01*
X149019383Y-74158563D01*
X149019380Y-74158561D01*
X149014480Y-74156277D01*
X149009265Y-74154879D01*
X149009258Y-74154877D01*
X148805823Y-74100366D01*
X148805812Y-74100364D01*
X148800591Y-74098965D01*
X148795199Y-74098493D01*
X148795192Y-74098492D01*
X148585395Y-74080138D01*
X148580000Y-74079666D01*
X148574605Y-74080138D01*
X148364807Y-74098492D01*
X148364798Y-74098493D01*
X148359409Y-74098965D01*
X148354189Y-74100363D01*
X148354176Y-74100366D01*
X148150741Y-74154877D01*
X148150730Y-74154880D01*
X148145520Y-74156277D01*
X148140623Y-74158560D01*
X148140616Y-74158563D01*
X147949747Y-74247566D01*
X147949741Y-74247569D01*
X147944833Y-74249858D01*
X147940399Y-74252962D01*
X147940395Y-74252965D01*
X147767879Y-74373762D01*
X147767869Y-74373769D01*
X147763445Y-74376868D01*
X147759619Y-74380693D01*
X147759613Y-74380699D01*
X147610699Y-74529613D01*
X147610693Y-74529619D01*
X147606868Y-74533445D01*
X147603769Y-74537869D01*
X147603762Y-74537879D01*
X147482965Y-74710395D01*
X147482962Y-74710399D01*
X147479858Y-74714833D01*
X147477570Y-74719738D01*
X147477568Y-74719743D01*
X147422382Y-74838092D01*
X147376625Y-74890268D01*
X147310000Y-74909687D01*
X147243375Y-74890268D01*
X147197618Y-74838092D01*
X147140142Y-74714833D01*
X147039124Y-74570565D01*
X147016237Y-74537879D01*
X147016235Y-74537877D01*
X147013132Y-74533445D01*
X146856555Y-74376868D01*
X146852124Y-74373765D01*
X146852120Y-74373762D01*
X146679604Y-74252965D01*
X146679605Y-74252965D01*
X146675167Y-74249858D01*
X146642339Y-74234550D01*
X146479383Y-74158563D01*
X146479380Y-74158561D01*
X146474480Y-74156277D01*
X146469265Y-74154879D01*
X146469258Y-74154877D01*
X146265823Y-74100366D01*
X146265812Y-74100364D01*
X146260591Y-74098965D01*
X146255199Y-74098493D01*
X146255192Y-74098492D01*
X146045395Y-74080138D01*
X146040000Y-74079666D01*
X146034605Y-74080138D01*
X145824807Y-74098492D01*
X145824798Y-74098493D01*
X145819409Y-74098965D01*
X145814189Y-74100363D01*
X145814176Y-74100366D01*
X145610741Y-74154877D01*
X145610730Y-74154880D01*
X145605520Y-74156277D01*
X145600623Y-74158560D01*
X145600616Y-74158563D01*
X145409747Y-74247566D01*
X145409741Y-74247569D01*
X145404833Y-74249858D01*
X145400399Y-74252962D01*
X145400395Y-74252965D01*
X145227879Y-74373762D01*
X145227869Y-74373769D01*
X145223445Y-74376868D01*
X145219619Y-74380693D01*
X145219613Y-74380699D01*
X145070699Y-74529613D01*
X145070693Y-74529619D01*
X145066868Y-74533445D01*
X145063769Y-74537869D01*
X145063762Y-74537879D01*
X144942965Y-74710395D01*
X144942962Y-74710399D01*
X144939858Y-74714833D01*
X144937570Y-74719738D01*
X144937568Y-74719743D01*
X144882382Y-74838092D01*
X144836625Y-74890268D01*
X144770000Y-74909687D01*
X144703375Y-74890268D01*
X144657618Y-74838092D01*
X144600142Y-74714833D01*
X144499124Y-74570565D01*
X144476237Y-74537879D01*
X144476235Y-74537877D01*
X144473132Y-74533445D01*
X144316555Y-74376868D01*
X144312124Y-74373765D01*
X144312120Y-74373762D01*
X144139604Y-74252965D01*
X144139605Y-74252965D01*
X144135167Y-74249858D01*
X144102339Y-74234550D01*
X143939383Y-74158563D01*
X143939380Y-74158561D01*
X143934480Y-74156277D01*
X143929265Y-74154879D01*
X143929258Y-74154877D01*
X143725823Y-74100366D01*
X143725812Y-74100364D01*
X143720591Y-74098965D01*
X143715199Y-74098493D01*
X143715192Y-74098492D01*
X143505395Y-74080138D01*
X143500000Y-74079666D01*
X143494605Y-74080138D01*
X143284807Y-74098492D01*
X143284798Y-74098493D01*
X143279409Y-74098965D01*
X143274189Y-74100363D01*
X143274176Y-74100366D01*
X143070741Y-74154877D01*
X143070730Y-74154880D01*
X143065520Y-74156277D01*
X143060623Y-74158560D01*
X143060616Y-74158563D01*
X142869747Y-74247566D01*
X142869741Y-74247569D01*
X142864833Y-74249858D01*
X142860399Y-74252962D01*
X142860395Y-74252965D01*
X142687879Y-74373762D01*
X142687869Y-74373769D01*
X142683445Y-74376868D01*
X142679619Y-74380693D01*
X142679613Y-74380699D01*
X142530699Y-74529613D01*
X142530693Y-74529619D01*
X142526868Y-74533445D01*
X142523769Y-74537869D01*
X142523762Y-74537879D01*
X142451074Y-74641689D01*
X142403857Y-74682016D01*
X142343009Y-74694395D01*
X142283789Y-74675723D01*
X142241046Y-74630681D01*
X142225499Y-74570565D01*
X142225499Y-74540439D01*
X142225499Y-74537128D01*
X142219091Y-74477517D01*
X142168796Y-74342669D01*
X142082546Y-74227454D01*
X141967331Y-74141204D01*
X141854412Y-74099088D01*
X141839752Y-74093620D01*
X141839750Y-74093619D01*
X141832483Y-74090909D01*
X141824770Y-74090079D01*
X141824767Y-74090079D01*
X141776180Y-74084855D01*
X141776169Y-74084854D01*
X141772873Y-74084500D01*
X141769550Y-74084500D01*
X140150439Y-74084500D01*
X140150420Y-74084500D01*
X140147128Y-74084501D01*
X140143850Y-74084853D01*
X140143838Y-74084854D01*
X140095231Y-74090079D01*
X140095225Y-74090080D01*
X140087517Y-74090909D01*
X140080252Y-74093618D01*
X140080246Y-74093620D01*
X139960980Y-74138104D01*
X139960978Y-74138104D01*
X139952669Y-74141204D01*
X139945572Y-74146516D01*
X139945568Y-74146519D01*
X139844550Y-74222141D01*
X139844546Y-74222144D01*
X139837454Y-74227454D01*
X139832144Y-74234546D01*
X139832141Y-74234550D01*
X139756519Y-74335568D01*
X139756516Y-74335572D01*
X139751204Y-74342669D01*
X139748104Y-74350978D01*
X139748104Y-74350980D01*
X139703620Y-74470247D01*
X139703619Y-74470250D01*
X139700909Y-74477517D01*
X139700079Y-74485227D01*
X139700079Y-74485232D01*
X139694855Y-74533819D01*
X139694854Y-74533831D01*
X139694500Y-74537127D01*
X139694500Y-74540448D01*
X139694500Y-74540449D01*
X139694500Y-76159560D01*
X139694500Y-76159578D01*
X139694501Y-76162872D01*
X139694853Y-76166150D01*
X139694854Y-76166161D01*
X139700079Y-76214768D01*
X139700080Y-76214773D01*
X139700909Y-76222483D01*
X139703619Y-76229749D01*
X139703620Y-76229753D01*
X139737019Y-76319300D01*
X139751204Y-76357331D01*
X139837454Y-76472546D01*
X139952669Y-76558796D01*
X140087517Y-76609091D01*
X140147127Y-76615500D01*
X140210500Y-76615500D01*
X140272500Y-76632113D01*
X140317887Y-76677500D01*
X140334500Y-76739500D01*
X140334500Y-77350501D01*
X140317887Y-77412501D01*
X140272500Y-77457888D01*
X140210500Y-77474501D01*
X140147128Y-77474501D01*
X140143850Y-77474853D01*
X140143838Y-77474854D01*
X140095231Y-77480079D01*
X140095225Y-77480080D01*
X140087517Y-77480909D01*
X140080252Y-77483618D01*
X140080246Y-77483620D01*
X139960980Y-77528104D01*
X139960978Y-77528104D01*
X139952669Y-77531204D01*
X139945572Y-77536516D01*
X139945568Y-77536519D01*
X139844550Y-77612141D01*
X139844546Y-77612144D01*
X139837454Y-77617454D01*
X139832144Y-77624546D01*
X139832141Y-77624550D01*
X139756519Y-77725568D01*
X139756516Y-77725572D01*
X139751204Y-77732669D01*
X139748104Y-77740978D01*
X139748104Y-77740980D01*
X139703620Y-77860247D01*
X139703619Y-77860250D01*
X139700909Y-77867517D01*
X139700079Y-77875227D01*
X139700079Y-77875232D01*
X139694855Y-77923819D01*
X139694854Y-77923831D01*
X139694500Y-77927127D01*
X139694500Y-77930448D01*
X139694500Y-77930449D01*
X139694500Y-79549560D01*
X139694500Y-79549578D01*
X139694501Y-79552872D01*
X139694853Y-79556150D01*
X139694854Y-79556161D01*
X139700079Y-79604768D01*
X139700080Y-79604773D01*
X139700909Y-79612483D01*
X139703619Y-79619749D01*
X139703620Y-79619753D01*
X139737019Y-79709300D01*
X139751204Y-79747331D01*
X139837454Y-79862546D01*
X139952669Y-79948796D01*
X140087517Y-79999091D01*
X140147127Y-80005500D01*
X141772872Y-80005499D01*
X141832483Y-79999091D01*
X141967331Y-79948796D01*
X142082546Y-79862546D01*
X142168796Y-79747331D01*
X142219091Y-79612483D01*
X142225500Y-79552873D01*
X142225499Y-79519435D01*
X142241045Y-79459321D01*
X142283787Y-79414278D01*
X142343008Y-79395605D01*
X142403856Y-79407984D01*
X142451074Y-79448311D01*
X142523762Y-79552120D01*
X142523765Y-79552124D01*
X142526868Y-79556555D01*
X142683445Y-79713132D01*
X142864833Y-79840142D01*
X143065520Y-79933723D01*
X143070740Y-79935121D01*
X143070741Y-79935122D01*
X143274176Y-79989633D01*
X143274178Y-79989633D01*
X143279409Y-79991035D01*
X143500000Y-80010334D01*
X143720591Y-79991035D01*
X143934480Y-79933723D01*
X144135167Y-79840142D01*
X144316555Y-79713132D01*
X144473132Y-79556555D01*
X144600142Y-79375167D01*
X144657618Y-79251907D01*
X144703375Y-79199732D01*
X144770000Y-79180312D01*
X144836625Y-79199732D01*
X144882381Y-79251907D01*
X144939858Y-79375167D01*
X144942965Y-79379604D01*
X145063762Y-79552120D01*
X145063765Y-79552124D01*
X145066868Y-79556555D01*
X145223445Y-79713132D01*
X145404833Y-79840142D01*
X145605520Y-79933723D01*
X145610740Y-79935121D01*
X145610741Y-79935122D01*
X145814176Y-79989633D01*
X145814178Y-79989633D01*
X145819409Y-79991035D01*
X146040000Y-80010334D01*
X146260591Y-79991035D01*
X146474480Y-79933723D01*
X146675167Y-79840142D01*
X146856555Y-79713132D01*
X147013132Y-79556555D01*
X147140142Y-79375167D01*
X147197618Y-79251907D01*
X147243375Y-79199732D01*
X147310000Y-79180312D01*
X147376625Y-79199732D01*
X147422381Y-79251907D01*
X147479858Y-79375167D01*
X147482965Y-79379604D01*
X147603762Y-79552120D01*
X147603765Y-79552124D01*
X147606868Y-79556555D01*
X147763445Y-79713132D01*
X147944833Y-79840142D01*
X148145520Y-79933723D01*
X148150740Y-79935121D01*
X148150741Y-79935122D01*
X148354176Y-79989633D01*
X148354178Y-79989633D01*
X148359409Y-79991035D01*
X148580000Y-80010334D01*
X148800591Y-79991035D01*
X149014480Y-79933723D01*
X149215167Y-79840142D01*
X149396555Y-79713132D01*
X149553132Y-79556555D01*
X149680142Y-79375167D01*
X149737618Y-79251907D01*
X149783375Y-79199732D01*
X149850000Y-79180312D01*
X149916625Y-79199732D01*
X149962381Y-79251907D01*
X150019858Y-79375167D01*
X150022965Y-79379604D01*
X150143762Y-79552120D01*
X150143765Y-79552124D01*
X150146868Y-79556555D01*
X150303445Y-79713132D01*
X150484833Y-79840142D01*
X150685520Y-79933723D01*
X150690740Y-79935121D01*
X150690741Y-79935122D01*
X150894176Y-79989633D01*
X150894178Y-79989633D01*
X150899409Y-79991035D01*
X151120000Y-80010334D01*
X151340591Y-79991035D01*
X151554480Y-79933723D01*
X151755167Y-79840142D01*
X151936555Y-79713132D01*
X152093132Y-79556555D01*
X152220142Y-79375167D01*
X152277618Y-79251907D01*
X152323375Y-79199732D01*
X152390000Y-79180312D01*
X152456625Y-79199732D01*
X152502381Y-79251907D01*
X152559858Y-79375167D01*
X152562965Y-79379604D01*
X152683762Y-79552120D01*
X152683765Y-79552124D01*
X152686868Y-79556555D01*
X152843445Y-79713132D01*
X153024833Y-79840142D01*
X153225520Y-79933723D01*
X153230740Y-79935121D01*
X153230741Y-79935122D01*
X153434176Y-79989633D01*
X153434178Y-79989633D01*
X153439409Y-79991035D01*
X153660000Y-80010334D01*
X153880591Y-79991035D01*
X154094480Y-79933723D01*
X154295167Y-79840142D01*
X154476555Y-79713132D01*
X154633132Y-79556555D01*
X154760142Y-79375167D01*
X154817618Y-79251907D01*
X154863375Y-79199732D01*
X154930000Y-79180312D01*
X154996625Y-79199732D01*
X155042381Y-79251907D01*
X155099858Y-79375167D01*
X155102965Y-79379604D01*
X155223762Y-79552120D01*
X155223765Y-79552124D01*
X155226868Y-79556555D01*
X155383445Y-79713132D01*
X155564833Y-79840142D01*
X155765520Y-79933723D01*
X155770740Y-79935121D01*
X155770741Y-79935122D01*
X155974176Y-79989633D01*
X155974178Y-79989633D01*
X155979409Y-79991035D01*
X156200000Y-80010334D01*
X156420591Y-79991035D01*
X156634480Y-79933723D01*
X156835167Y-79840142D01*
X157016555Y-79713132D01*
X157173132Y-79556555D01*
X157300142Y-79375167D01*
X157357618Y-79251907D01*
X157403375Y-79199732D01*
X157470000Y-79180312D01*
X157536625Y-79199732D01*
X157582381Y-79251907D01*
X157639858Y-79375167D01*
X157642965Y-79379604D01*
X157763762Y-79552120D01*
X157763765Y-79552124D01*
X157766868Y-79556555D01*
X157923445Y-79713132D01*
X158104833Y-79840142D01*
X158305520Y-79933723D01*
X158310740Y-79935121D01*
X158310741Y-79935122D01*
X158514176Y-79989633D01*
X158514178Y-79989633D01*
X158519409Y-79991035D01*
X158740000Y-80010334D01*
X158960591Y-79991035D01*
X159174480Y-79933723D01*
X159375167Y-79840142D01*
X159556555Y-79713132D01*
X159713132Y-79556555D01*
X159840142Y-79375167D01*
X159897618Y-79251907D01*
X159943375Y-79199732D01*
X160010000Y-79180312D01*
X160076625Y-79199732D01*
X160122381Y-79251907D01*
X160179858Y-79375167D01*
X160182965Y-79379604D01*
X160303762Y-79552120D01*
X160303765Y-79552124D01*
X160306868Y-79556555D01*
X160463445Y-79713132D01*
X160467877Y-79716235D01*
X160467879Y-79716237D01*
X160601624Y-79809887D01*
X160640489Y-79854205D01*
X160654500Y-79911462D01*
X160654500Y-84909548D01*
X160645061Y-84957001D01*
X160618181Y-84997229D01*
X160277228Y-85338181D01*
X160237000Y-85365061D01*
X160189547Y-85374500D01*
X131077771Y-85374500D01*
X131066718Y-85373979D01*
X131059332Y-85372328D01*
X131051534Y-85372573D01*
X130992144Y-85374439D01*
X130988250Y-85374500D01*
X130960650Y-85374500D01*
X130956799Y-85374986D01*
X130956768Y-85374988D01*
X130956640Y-85375005D01*
X130945029Y-85375918D01*
X130909172Y-85377045D01*
X130909165Y-85377046D01*
X130901373Y-85377291D01*
X130893888Y-85379465D01*
X130893872Y-85379468D01*
X130882126Y-85382881D01*
X130863083Y-85386825D01*
X130850949Y-85388358D01*
X130850948Y-85388358D01*
X130843208Y-85389336D01*
X130835958Y-85392205D01*
X130835951Y-85392208D01*
X130802598Y-85405413D01*
X130791554Y-85409194D01*
X130757105Y-85419203D01*
X130757095Y-85419207D01*
X130749610Y-85421382D01*
X130742900Y-85425349D01*
X130742898Y-85425351D01*
X130739505Y-85427357D01*
X130732360Y-85431583D01*
X130714900Y-85440136D01*
X130696268Y-85447514D01*
X130689965Y-85452092D01*
X130689958Y-85452097D01*
X130660939Y-85473181D01*
X130651179Y-85479592D01*
X130620294Y-85497857D01*
X130620284Y-85497864D01*
X130613579Y-85501830D01*
X130608063Y-85507345D01*
X130608060Y-85507348D01*
X130599407Y-85516000D01*
X130584624Y-85528626D01*
X130574727Y-85535817D01*
X130574720Y-85535823D01*
X130568413Y-85540406D01*
X130563446Y-85546408D01*
X130563435Y-85546420D01*
X130540570Y-85574059D01*
X130532710Y-85582697D01*
X126612696Y-89502711D01*
X126604511Y-89510159D01*
X126598123Y-89514214D01*
X126592788Y-89519894D01*
X126592783Y-89519899D01*
X126552096Y-89563225D01*
X126549392Y-89566016D01*
X126532628Y-89582780D01*
X126532621Y-89582787D01*
X126529880Y-89585529D01*
X126527500Y-89588596D01*
X126527489Y-89588609D01*
X126527400Y-89588725D01*
X126519842Y-89597570D01*
X126495280Y-89623727D01*
X126495273Y-89623736D01*
X126489938Y-89629418D01*
X126486182Y-89636249D01*
X126486179Y-89636254D01*
X126480285Y-89646975D01*
X126469609Y-89663227D01*
X126462109Y-89672896D01*
X126462101Y-89672907D01*
X126457327Y-89679064D01*
X126454234Y-89686208D01*
X126454229Y-89686219D01*
X126439974Y-89719160D01*
X126434838Y-89729643D01*
X126413803Y-89767908D01*
X126411864Y-89775456D01*
X126411863Y-89775461D01*
X126408822Y-89787307D01*
X126402521Y-89805711D01*
X126397658Y-89816948D01*
X126397656Y-89816952D01*
X126394562Y-89824104D01*
X126393342Y-89831803D01*
X126393342Y-89831805D01*
X126387729Y-89867241D01*
X126385361Y-89878676D01*
X126376438Y-89913428D01*
X126376436Y-89913436D01*
X126374500Y-89920981D01*
X126374500Y-89928777D01*
X126374500Y-89941017D01*
X126372974Y-89960402D01*
X126369840Y-89980196D01*
X119310000Y-89980196D01*
X119310000Y-73567765D01*
X121145788Y-73567765D01*
X121146282Y-73572262D01*
X121146283Y-73572267D01*
X121174917Y-73832506D01*
X121174918Y-73832513D01*
X121175414Y-73837018D01*
X121176559Y-73841398D01*
X121176561Y-73841408D01*
X121208830Y-73964838D01*
X121243928Y-74099088D01*
X121245693Y-74103242D01*
X121245696Y-74103250D01*
X121344421Y-74335568D01*
X121349870Y-74348390D01*
X121352226Y-74352251D01*
X121352229Y-74352256D01*
X121465514Y-74537879D01*
X121490982Y-74579610D01*
X121664255Y-74787820D01*
X121667630Y-74790844D01*
X121667631Y-74790845D01*
X121772330Y-74884656D01*
X121865998Y-74968582D01*
X122091910Y-75118044D01*
X122337176Y-75233020D01*
X122596569Y-75311060D01*
X122864561Y-75350500D01*
X123065369Y-75350500D01*
X123067631Y-75350500D01*
X123270156Y-75335677D01*
X123534553Y-75276780D01*
X123787558Y-75180014D01*
X124023777Y-75047441D01*
X124238177Y-74881888D01*
X124426186Y-74686881D01*
X124583799Y-74466579D01*
X124707656Y-74225675D01*
X124795118Y-73969305D01*
X124844319Y-73702933D01*
X124849259Y-73567765D01*
X174145788Y-73567765D01*
X174146282Y-73572262D01*
X174146283Y-73572267D01*
X174174917Y-73832506D01*
X174174918Y-73832513D01*
X174175414Y-73837018D01*
X174176559Y-73841398D01*
X174176561Y-73841408D01*
X174208830Y-73964838D01*
X174243928Y-74099088D01*
X174245693Y-74103242D01*
X174245696Y-74103250D01*
X174344421Y-74335568D01*
X174349870Y-74348390D01*
X174352226Y-74352251D01*
X174352229Y-74352256D01*
X174465514Y-74537879D01*
X174490982Y-74579610D01*
X174664255Y-74787820D01*
X174667630Y-74790844D01*
X174667631Y-74790845D01*
X174772330Y-74884656D01*
X174865998Y-74968582D01*
X175091910Y-75118044D01*
X175337176Y-75233020D01*
X175596569Y-75311060D01*
X175864561Y-75350500D01*
X176065369Y-75350500D01*
X176067631Y-75350500D01*
X176270156Y-75335677D01*
X176534553Y-75276780D01*
X176787558Y-75180014D01*
X177023777Y-75047441D01*
X177238177Y-74881888D01*
X177426186Y-74686881D01*
X177583799Y-74466579D01*
X177707656Y-74225675D01*
X177795118Y-73969305D01*
X177844319Y-73702933D01*
X177854212Y-73432235D01*
X177824586Y-73162982D01*
X177756072Y-72900912D01*
X177650130Y-72651610D01*
X177509018Y-72420390D01*
X177335745Y-72212180D01*
X177230759Y-72118112D01*
X177137382Y-72034446D01*
X177137378Y-72034442D01*
X177134002Y-72031418D01*
X176908090Y-71881956D01*
X176903996Y-71880036D01*
X176903991Y-71880034D01*
X176666929Y-71768904D01*
X176666925Y-71768902D01*
X176662824Y-71766980D01*
X176658477Y-71765672D01*
X176658474Y-71765671D01*
X176407772Y-71690246D01*
X176407771Y-71690245D01*
X176403431Y-71688940D01*
X176398957Y-71688281D01*
X176398950Y-71688280D01*
X176139913Y-71650158D01*
X176139907Y-71650157D01*
X176135439Y-71649500D01*
X175932369Y-71649500D01*
X175930120Y-71649664D01*
X175930109Y-71649665D01*
X175734363Y-71663992D01*
X175734359Y-71663992D01*
X175729844Y-71664323D01*
X175725426Y-71665307D01*
X175725420Y-71665308D01*
X175469877Y-71722232D01*
X175469861Y-71722236D01*
X175465447Y-71723220D01*
X175461216Y-71724838D01*
X175461210Y-71724840D01*
X175216673Y-71818367D01*
X175216663Y-71818371D01*
X175212442Y-71819986D01*
X175208494Y-71822201D01*
X175208489Y-71822204D01*
X174980176Y-71950340D01*
X174980171Y-71950343D01*
X174976223Y-71952559D01*
X174972639Y-71955325D01*
X174972635Y-71955329D01*
X174765407Y-72115343D01*
X174765394Y-72115354D01*
X174761823Y-72118112D01*
X174758685Y-72121366D01*
X174758678Y-72121373D01*
X174576958Y-72309857D01*
X174576952Y-72309864D01*
X174573814Y-72313119D01*
X174571189Y-72316787D01*
X174571179Y-72316800D01*
X174418834Y-72529740D01*
X174418830Y-72529745D01*
X174416201Y-72533421D01*
X174414132Y-72537444D01*
X174414129Y-72537450D01*
X174294416Y-72770293D01*
X174294411Y-72770304D01*
X174292344Y-72774325D01*
X174290884Y-72778602D01*
X174290879Y-72778616D01*
X174206348Y-73026395D01*
X174206344Y-73026407D01*
X174204882Y-73030695D01*
X174204057Y-73035159D01*
X174204057Y-73035161D01*
X174156504Y-73292606D01*
X174156502Y-73292619D01*
X174155681Y-73297067D01*
X174155515Y-73301593D01*
X174155515Y-73301599D01*
X174150576Y-73436762D01*
X174145788Y-73567765D01*
X124849259Y-73567765D01*
X124854212Y-73432235D01*
X124824586Y-73162982D01*
X124756072Y-72900912D01*
X124650130Y-72651610D01*
X124509018Y-72420390D01*
X124335745Y-72212180D01*
X124230759Y-72118112D01*
X124137382Y-72034446D01*
X124137378Y-72034442D01*
X124134002Y-72031418D01*
X123908090Y-71881956D01*
X123903996Y-71880036D01*
X123903991Y-71880034D01*
X123666929Y-71768904D01*
X123666925Y-71768902D01*
X123662824Y-71766980D01*
X123658477Y-71765672D01*
X123658474Y-71765671D01*
X123407772Y-71690246D01*
X123407771Y-71690245D01*
X123403431Y-71688940D01*
X123398957Y-71688281D01*
X123398950Y-71688280D01*
X123139913Y-71650158D01*
X123139907Y-71650157D01*
X123135439Y-71649500D01*
X122932369Y-71649500D01*
X122930120Y-71649664D01*
X122930109Y-71649665D01*
X122734363Y-71663992D01*
X122734359Y-71663992D01*
X122729844Y-71664323D01*
X122725426Y-71665307D01*
X122725420Y-71665308D01*
X122469877Y-71722232D01*
X122469861Y-71722236D01*
X122465447Y-71723220D01*
X122461216Y-71724838D01*
X122461210Y-71724840D01*
X122216673Y-71818367D01*
X122216663Y-71818371D01*
X122212442Y-71819986D01*
X122208494Y-71822201D01*
X122208489Y-71822204D01*
X121980176Y-71950340D01*
X121980171Y-71950343D01*
X121976223Y-71952559D01*
X121972639Y-71955325D01*
X121972635Y-71955329D01*
X121765407Y-72115343D01*
X121765394Y-72115354D01*
X121761823Y-72118112D01*
X121758685Y-72121366D01*
X121758678Y-72121373D01*
X121576958Y-72309857D01*
X121576952Y-72309864D01*
X121573814Y-72313119D01*
X121571189Y-72316787D01*
X121571179Y-72316800D01*
X121418834Y-72529740D01*
X121418830Y-72529745D01*
X121416201Y-72533421D01*
X121414132Y-72537444D01*
X121414129Y-72537450D01*
X121294416Y-72770293D01*
X121294411Y-72770304D01*
X121292344Y-72774325D01*
X121290884Y-72778602D01*
X121290879Y-72778616D01*
X121206348Y-73026395D01*
X121206344Y-73026407D01*
X121204882Y-73030695D01*
X121204057Y-73035159D01*
X121204057Y-73035161D01*
X121156504Y-73292606D01*
X121156502Y-73292619D01*
X121155681Y-73297067D01*
X121155515Y-73301593D01*
X121155515Y-73301599D01*
X121150576Y-73436762D01*
X121145788Y-73567765D01*
X119310000Y-73567765D01*
X119310000Y-70203545D01*
X119326537Y-70141677D01*
X119371737Y-70096310D01*
X119433544Y-70079546D01*
X179065970Y-69860492D01*
X179127980Y-69876849D01*
G37*
%TD.AperFunction*%
%TD*%
M02*
