%TF.GenerationSoftware,KiCad,Pcbnew,(7.0.0)*%
%TF.CreationDate,2023-02-28T10:19:26+09:00*%
%TF.ProjectId,feather-m4_e220_dbg_board,66656174-6865-4722-9d6d-345f65323230,0.1.1*%
%TF.SameCoordinates,Original*%
%TF.FileFunction,Copper,L1,Top*%
%TF.FilePolarity,Positive*%
%FSLAX46Y46*%
G04 Gerber Fmt 4.6, Leading zero omitted, Abs format (unit mm)*
G04 Created by KiCad (PCBNEW (7.0.0)) date 2023-02-28 10:19:26*
%MOMM*%
%LPD*%
G01*
G04 APERTURE LIST*
%TA.AperFunction,ComponentPad*%
%ADD10R,1.530000X1.530000*%
%TD*%
%TA.AperFunction,ComponentPad*%
%ADD11C,1.530000*%
%TD*%
%TA.AperFunction,ComponentPad*%
%ADD12O,1.700000X1.700000*%
%TD*%
%TA.AperFunction,ComponentPad*%
%ADD13R,1.700000X1.700000*%
%TD*%
%TA.AperFunction,ViaPad*%
%ADD14C,0.800000*%
%TD*%
%TA.AperFunction,Conductor*%
%ADD15C,0.250000*%
%TD*%
G04 APERTURE END LIST*
D10*
%TO.P,REF\u002A\u002A,1*%
%TO.N,unconnected-(U1-VBAT-PadP2_1)*%
X140959999Y-75349999D03*
D11*
%TO.P,REF\u002A\u002A,2*%
%TO.N,unconnected-(U1-EN-PadP2_2)*%
X143500000Y-75350000D03*
%TO.P,REF\u002A\u002A,3*%
%TO.N,unconnected-(U1-VBUS-PadP2_3)*%
X146040000Y-75350000D03*
%TO.P,REF\u002A\u002A,4*%
%TO.N,unconnected-(U1-D13-PadP2_4)*%
X148580000Y-75350000D03*
%TO.P,REF\u002A\u002A,5*%
%TO.N,unconnected-(U1-D12-PadP2_5)*%
X151120000Y-75350000D03*
%TO.P,REF\u002A\u002A,6*%
%TO.N,unconnected-(U1-D11-PadP2_6)*%
X153660000Y-75350000D03*
%TO.P,REF\u002A\u002A,7*%
%TO.N,unconnected-(U1-D10-PadP2_7)*%
X156200000Y-75350000D03*
%TO.P,REF\u002A\u002A,8*%
%TO.N,unconnected-(U1-D9-PadP2_8)*%
X158740000Y-75350000D03*
%TO.P,REF\u002A\u002A,9*%
%TO.N,Net-(U1-D6)*%
X161280000Y-75350000D03*
%TO.P,REF\u002A\u002A,10*%
%TO.N,Net-(U1-D5)*%
X163820000Y-75350000D03*
%TO.P,REF\u002A\u002A,11*%
%TO.N,unconnected-(U1-SCL-PadP2_11)*%
X166360000Y-75350000D03*
%TO.P,REF\u002A\u002A,12*%
%TO.N,unconnected-(U1-SDA-PadP2_12)*%
X168900000Y-75350000D03*
%TD*%
%TO.P,FEATHER-M4\u002A,P1_1,D4*%
%TO.N,Net-(U1-D4)*%
X168900000Y-99060000D03*
%TO.P,FEATHER-M4\u002A,P1_2,D1*%
%TO.N,Net-(U1-D1)*%
X166360000Y-99060000D03*
%TO.P,FEATHER-M4\u002A,P1_3,D0*%
%TO.N,Net-(U1-D0)*%
X163820000Y-99060000D03*
%TO.P,FEATHER-M4\u002A,P1_4,MISO*%
%TO.N,unconnected-(U1-MISO-PadP1_4)*%
X161280000Y-99060000D03*
%TO.P,FEATHER-M4\u002A,P1_5,MOSI*%
%TO.N,unconnected-(U1-MOSI-PadP1_5)*%
X158740000Y-99060000D03*
%TO.P,FEATHER-M4\u002A,P1_6,SCK*%
%TO.N,unconnected-(U1-SCK-PadP1_6)*%
X156200000Y-99060000D03*
%TO.P,FEATHER-M4\u002A,P1_7,A5*%
%TO.N,unconnected-(U1-A5-PadP1_7)*%
X153660000Y-99060000D03*
%TO.P,FEATHER-M4\u002A,P1_8,A4*%
%TO.N,unconnected-(U1-A4-PadP1_8)*%
X151120000Y-99060000D03*
%TO.P,FEATHER-M4\u002A,P1_9,A3*%
%TO.N,unconnected-(U1-A3-PadP1_9)*%
X148580000Y-99060000D03*
%TO.P,FEATHER-M4\u002A,P1_10,A2*%
%TO.N,unconnected-(U1-A2-PadP1_10)*%
X146040000Y-99060000D03*
%TO.P,FEATHER-M4\u002A,P1_11,A1*%
%TO.N,unconnected-(U1-A1-PadP1_11)*%
X143500000Y-99060000D03*
%TO.P,FEATHER-M4\u002A,P1_12,A0*%
%TO.N,unconnected-(U1-A0-PadP1_12)*%
X140960000Y-99060000D03*
%TO.P,FEATHER-M4\u002A,P1_13,GND*%
%TO.N,GND*%
X138420000Y-99060000D03*
%TO.P,FEATHER-M4\u002A,P1_14,AREF*%
%TO.N,unconnected-(U1-AREF-PadP1_14)*%
X135880000Y-99060000D03*
%TO.P,FEATHER-M4\u002A,P1_15,3V3*%
%TO.N,Net-(U1-3V3)*%
X133340000Y-99060000D03*
%TO.P,FEATHER-M4\u002A,P1_16,~{RESET}*%
%TO.N,unconnected-(U1-~{RESET}-PadP1_16)*%
X130800000Y-99060000D03*
D10*
%TO.P,FEATHER-M4\u002A,P2_1,VBAT*%
%TO.N,unconnected-(U1-VBAT-PadP2_1)*%
X140959999Y-78739999D03*
D11*
%TO.P,FEATHER-M4\u002A,P2_2,EN*%
%TO.N,unconnected-(U1-EN-PadP2_2)*%
X143500000Y-78740000D03*
%TO.P,FEATHER-M4\u002A,P2_3,VBUS*%
%TO.N,unconnected-(U1-VBUS-PadP2_3)*%
X146040000Y-78740000D03*
%TO.P,FEATHER-M4\u002A,P2_4,D13*%
%TO.N,unconnected-(U1-D13-PadP2_4)*%
X148580000Y-78740000D03*
%TO.P,FEATHER-M4\u002A,P2_5,D12*%
%TO.N,unconnected-(U1-D12-PadP2_5)*%
X151120000Y-78740000D03*
%TO.P,FEATHER-M4\u002A,P2_6,D11*%
%TO.N,unconnected-(U1-D11-PadP2_6)*%
X153660000Y-78740000D03*
%TO.P,FEATHER-M4\u002A,P2_7,D10*%
%TO.N,unconnected-(U1-D10-PadP2_7)*%
X156200000Y-78740000D03*
%TO.P,FEATHER-M4\u002A,P2_8,D9*%
%TO.N,unconnected-(U1-D9-PadP2_8)*%
X158740000Y-78740000D03*
%TO.P,FEATHER-M4\u002A,P2_9,D6*%
%TO.N,Net-(U1-D6)*%
X161280000Y-78740000D03*
%TO.P,FEATHER-M4\u002A,P2_10,D5*%
%TO.N,Net-(U1-D5)*%
X163820000Y-78740000D03*
%TO.P,FEATHER-M4\u002A,P2_11,SCL*%
%TO.N,unconnected-(U1-SCL-PadP2_11)*%
X166360000Y-78740000D03*
%TO.P,FEATHER-M4\u002A,P2_12,SDA*%
%TO.N,unconnected-(U1-SDA-PadP2_12)*%
X168900000Y-78740000D03*
%TD*%
%TO.P,REF\u002A\u002A,1*%
%TO.N,Net-(U1-D4)*%
X168940000Y-102500000D03*
%TO.P,REF\u002A\u002A,2*%
%TO.N,Net-(U1-D1)*%
X166400000Y-102500000D03*
%TO.P,REF\u002A\u002A,3*%
%TO.N,Net-(U1-D0)*%
X163860000Y-102500000D03*
%TO.P,REF\u002A\u002A,4*%
%TO.N,unconnected-(U1-MISO-PadP1_4)*%
X161320000Y-102500000D03*
%TO.P,REF\u002A\u002A,5*%
%TO.N,unconnected-(U1-MOSI-PadP1_5)*%
X158780000Y-102500000D03*
%TO.P,REF\u002A\u002A,6*%
%TO.N,unconnected-(U1-SCK-PadP1_6)*%
X156240000Y-102500000D03*
%TO.P,REF\u002A\u002A,7*%
%TO.N,unconnected-(U1-A5-PadP1_7)*%
X153700000Y-102500000D03*
%TO.P,REF\u002A\u002A,8*%
%TO.N,unconnected-(U1-A4-PadP1_8)*%
X151160000Y-102500000D03*
%TO.P,REF\u002A\u002A,9*%
%TO.N,unconnected-(U1-A3-PadP1_9)*%
X148620000Y-102500000D03*
%TO.P,REF\u002A\u002A,10*%
%TO.N,unconnected-(U1-A2-PadP1_10)*%
X146080000Y-102500000D03*
%TO.P,REF\u002A\u002A,11*%
%TO.N,unconnected-(U1-A1-PadP1_11)*%
X143540000Y-102500000D03*
%TO.P,REF\u002A\u002A,12*%
%TO.N,unconnected-(U1-A0-PadP1_12)*%
X141000000Y-102500000D03*
%TO.P,REF\u002A\u002A,13*%
%TO.N,GND*%
X138460000Y-102500000D03*
%TO.P,REF\u002A\u002A,14*%
%TO.N,unconnected-(U1-AREF-PadP1_14)*%
X135920000Y-102500000D03*
%TO.P,REF\u002A\u002A,15*%
%TO.N,Net-(U1-3V3)*%
X133380000Y-102500000D03*
%TO.P,REF\u002A\u002A,16*%
%TO.N,unconnected-(U1-~{RESET}-PadP1_16)*%
X130840000Y-102500000D03*
%TD*%
D12*
%TO.P,E220,1,M0*%
%TO.N,Net-(U1-D4)*%
X134389999Y-109299999D03*
%TO.P,E220,2,M1*%
%TO.N,Net-(U1-D5)*%
X134389999Y-111839999D03*
%TO.P,E220,3,RXD*%
%TO.N,Net-(U1-D1)*%
X134389999Y-114379999D03*
%TO.P,E220,4,TXD*%
%TO.N,Net-(U1-D0)*%
X134389999Y-116919999D03*
%TO.P,E220,5,AUX*%
%TO.N,Net-(U1-D6)*%
X134389999Y-119459999D03*
%TO.P,E220,6,VCC*%
%TO.N,Net-(U1-3V3)*%
X134389999Y-121999999D03*
D13*
%TO.P,E220,7,GND*%
%TO.N,GND*%
X134389999Y-124539999D03*
D12*
%TO.P,E220,8*%
%TO.N,N/C*%
X166139999Y-109299999D03*
%TO.P,E220,9*%
X166139999Y-111869999D03*
%TO.P,E220,10*%
X166139999Y-114409999D03*
%TD*%
D11*
%TO.P,REF\u002A\u002A,1*%
%TO.N,Net-(U1-D4)*%
X130890000Y-109260000D03*
%TO.P,REF\u002A\u002A,2*%
%TO.N,Net-(U1-D5)*%
X130890000Y-111800000D03*
%TO.P,REF\u002A\u002A,3*%
%TO.N,Net-(U1-D1)*%
X130890000Y-114340000D03*
%TO.P,REF\u002A\u002A,4*%
%TO.N,Net-(U1-D0)*%
X130890000Y-116880000D03*
%TO.P,REF\u002A\u002A,5*%
%TO.N,Net-(U1-D6)*%
X130890000Y-119420000D03*
%TO.P,REF\u002A\u002A,6*%
%TO.N,Net-(U1-3V3)*%
X130890000Y-121960000D03*
D10*
%TO.P,REF\u002A\u002A,7*%
%TO.N,GND*%
X130889999Y-124499999D03*
%TD*%
D14*
%TO.N,GND*%
X137860000Y-126260000D03*
X155380000Y-84550000D03*
X154400000Y-105300000D03*
X169500000Y-113000000D03*
X143700000Y-105300000D03*
X150480000Y-80690000D03*
X133780000Y-96870000D03*
X145510000Y-126260000D03*
X150630000Y-93900000D03*
X148620000Y-122840000D03*
X161700000Y-116000000D03*
X134600000Y-84100000D03*
X169400000Y-109500000D03*
X155010000Y-90480000D03*
X144910000Y-84250000D03*
X147400000Y-111600000D03*
X133860000Y-90480000D03*
X139900000Y-111600000D03*
X164200000Y-119600000D03*
X152260000Y-126260000D03*
X145140000Y-90260000D03*
X145510000Y-119500000D03*
X155450000Y-96940000D03*
X130000000Y-80540000D03*
X165100000Y-93820000D03*
X158500000Y-126100000D03*
X167850000Y-81950000D03*
X167700000Y-90480000D03*
X155400000Y-123000000D03*
X161760000Y-96940000D03*
X161690000Y-90560000D03*
X137860000Y-119500000D03*
X134100000Y-105300000D03*
X138980000Y-80390000D03*
X145140000Y-96870000D03*
X152260000Y-119500000D03*
X158640000Y-93900000D03*
X167850000Y-85880000D03*
X158400000Y-119600000D03*
X164500000Y-126200000D03*
X161800000Y-112600000D03*
X161400000Y-123200000D03*
X141650000Y-122840000D03*
X170520000Y-93820000D03*
X139570000Y-93600000D03*
%TD*%
D15*
%TO.N,Net-(U1-D4)*%
X130890000Y-109260000D02*
X134350000Y-109260000D01*
X134350000Y-109260000D02*
X134390000Y-109300000D01*
%TO.N,Net-(U1-D1)*%
X165265000Y-100155000D02*
X166360000Y-99060000D01*
X134350000Y-114340000D02*
X134390000Y-114380000D01*
X165265000Y-102986701D02*
X165265000Y-100155000D01*
X134390000Y-114380000D02*
X153871701Y-114380000D01*
X130890000Y-114340000D02*
X134350000Y-114340000D01*
X153871701Y-114380000D02*
X165265000Y-102986701D01*
%TO.N,Net-(U1-D0)*%
X134350000Y-116880000D02*
X134390000Y-116920000D01*
X165800000Y-104000000D02*
X169400000Y-104000000D01*
X165600000Y-97200000D02*
X163820000Y-98980000D01*
X130890000Y-116880000D02*
X134350000Y-116880000D01*
X154800000Y-115000000D02*
X165800000Y-104000000D01*
X163820000Y-98980000D02*
X163820000Y-99060000D01*
X136310000Y-115000000D02*
X154800000Y-115000000D01*
X171500000Y-101900000D02*
X171500000Y-99000000D01*
X169700000Y-97200000D02*
X165600000Y-97200000D01*
X134390000Y-116920000D02*
X136310000Y-115000000D01*
X169400000Y-104000000D02*
X171500000Y-101900000D01*
X171500000Y-99000000D02*
X169700000Y-97200000D01*
%TO.N,Net-(U1-3V3)*%
X128000000Y-119000000D02*
X128000000Y-103718299D01*
X130890000Y-121960000D02*
X134350000Y-121960000D01*
X129510000Y-120510000D02*
X128000000Y-119000000D01*
X130393299Y-101325000D02*
X131075000Y-101325000D01*
X131075000Y-101325000D02*
X133340000Y-99060000D01*
X128000000Y-103718299D02*
X130393299Y-101325000D01*
X134350000Y-121960000D02*
X134390000Y-122000000D01*
X134390000Y-122000000D02*
X132900000Y-120510000D01*
X132900000Y-120510000D02*
X129510000Y-120510000D01*
%TO.N,Net-(U1-D6)*%
X134350000Y-119420000D02*
X134390000Y-119460000D01*
X130890000Y-119420000D02*
X134350000Y-119420000D01*
%TO.N,Net-(U1-D5)*%
X134350000Y-111800000D02*
X134390000Y-111840000D01*
X130890000Y-111800000D02*
X134350000Y-111800000D01*
%TD*%
%TA.AperFunction,Conductor*%
%TO.N,GND*%
G36*
X179127980Y-69876849D02*
G01*
X179173526Y-69922000D01*
X179190422Y-69983867D01*
X179489371Y-129395064D01*
X179472916Y-129457417D01*
X179427375Y-129503074D01*
X179365064Y-129519688D01*
X119433691Y-129370308D01*
X119371822Y-129353592D01*
X119326561Y-129308219D01*
X119310000Y-129246308D01*
X119310000Y-126067765D01*
X121145788Y-126067765D01*
X121146282Y-126072262D01*
X121146283Y-126072267D01*
X121174917Y-126332506D01*
X121174918Y-126332513D01*
X121175414Y-126337018D01*
X121176559Y-126341398D01*
X121176561Y-126341408D01*
X121208830Y-126464838D01*
X121243928Y-126599088D01*
X121245693Y-126603242D01*
X121245696Y-126603250D01*
X121348099Y-126844223D01*
X121349870Y-126848390D01*
X121352226Y-126852251D01*
X121352229Y-126852256D01*
X121488618Y-127075737D01*
X121490982Y-127079610D01*
X121664255Y-127287820D01*
X121667630Y-127290844D01*
X121667631Y-127290845D01*
X121772330Y-127384656D01*
X121865998Y-127468582D01*
X122091910Y-127618044D01*
X122337176Y-127733020D01*
X122596569Y-127811060D01*
X122864561Y-127850500D01*
X123065369Y-127850500D01*
X123067631Y-127850500D01*
X123270156Y-127835677D01*
X123534553Y-127776780D01*
X123787558Y-127680014D01*
X124023777Y-127547441D01*
X124238177Y-127381888D01*
X124426186Y-127186881D01*
X124583799Y-126966579D01*
X124707656Y-126725675D01*
X124795118Y-126469305D01*
X124844319Y-126202933D01*
X124849259Y-126067765D01*
X174145788Y-126067765D01*
X174146282Y-126072262D01*
X174146283Y-126072267D01*
X174174917Y-126332506D01*
X174174918Y-126332513D01*
X174175414Y-126337018D01*
X174176559Y-126341398D01*
X174176561Y-126341408D01*
X174208830Y-126464838D01*
X174243928Y-126599088D01*
X174245693Y-126603242D01*
X174245696Y-126603250D01*
X174348099Y-126844223D01*
X174349870Y-126848390D01*
X174352226Y-126852251D01*
X174352229Y-126852256D01*
X174488618Y-127075737D01*
X174490982Y-127079610D01*
X174664255Y-127287820D01*
X174667630Y-127290844D01*
X174667631Y-127290845D01*
X174772330Y-127384656D01*
X174865998Y-127468582D01*
X175091910Y-127618044D01*
X175337176Y-127733020D01*
X175596569Y-127811060D01*
X175864561Y-127850500D01*
X176065369Y-127850500D01*
X176067631Y-127850500D01*
X176270156Y-127835677D01*
X176534553Y-127776780D01*
X176787558Y-127680014D01*
X177023777Y-127547441D01*
X177238177Y-127381888D01*
X177426186Y-127186881D01*
X177583799Y-126966579D01*
X177707656Y-126725675D01*
X177795118Y-126469305D01*
X177844319Y-126202933D01*
X177854212Y-125932235D01*
X177824586Y-125662982D01*
X177756072Y-125400912D01*
X177650130Y-125151610D01*
X177509018Y-124920390D01*
X177335745Y-124712180D01*
X177230759Y-124618112D01*
X177137382Y-124534446D01*
X177137378Y-124534442D01*
X177134002Y-124531418D01*
X176908090Y-124381956D01*
X176903996Y-124380036D01*
X176903991Y-124380034D01*
X176666929Y-124268904D01*
X176666925Y-124268902D01*
X176662824Y-124266980D01*
X176658477Y-124265672D01*
X176658474Y-124265671D01*
X176407772Y-124190246D01*
X176407771Y-124190245D01*
X176403431Y-124188940D01*
X176398957Y-124188281D01*
X176398950Y-124188280D01*
X176139913Y-124150158D01*
X176139907Y-124150157D01*
X176135439Y-124149500D01*
X175932369Y-124149500D01*
X175930120Y-124149664D01*
X175930109Y-124149665D01*
X175734363Y-124163992D01*
X175734359Y-124163992D01*
X175729844Y-124164323D01*
X175725426Y-124165307D01*
X175725420Y-124165308D01*
X175469877Y-124222232D01*
X175469861Y-124222236D01*
X175465447Y-124223220D01*
X175461216Y-124224838D01*
X175461210Y-124224840D01*
X175216673Y-124318367D01*
X175216663Y-124318371D01*
X175212442Y-124319986D01*
X175208494Y-124322201D01*
X175208489Y-124322204D01*
X174980176Y-124450340D01*
X174980171Y-124450343D01*
X174976223Y-124452559D01*
X174972639Y-124455325D01*
X174972635Y-124455329D01*
X174765407Y-124615343D01*
X174765394Y-124615354D01*
X174761823Y-124618112D01*
X174758685Y-124621366D01*
X174758678Y-124621373D01*
X174576958Y-124809857D01*
X174576952Y-124809864D01*
X174573814Y-124813119D01*
X174571189Y-124816787D01*
X174571179Y-124816800D01*
X174418834Y-125029740D01*
X174418830Y-125029745D01*
X174416201Y-125033421D01*
X174414132Y-125037444D01*
X174414129Y-125037450D01*
X174294416Y-125270293D01*
X174294411Y-125270304D01*
X174292344Y-125274325D01*
X174290884Y-125278602D01*
X174290879Y-125278616D01*
X174206348Y-125526395D01*
X174206344Y-125526407D01*
X174204882Y-125530695D01*
X174204057Y-125535159D01*
X174204057Y-125535161D01*
X174156504Y-125792606D01*
X174156502Y-125792619D01*
X174155681Y-125797067D01*
X174155515Y-125801593D01*
X174155515Y-125801599D01*
X174150576Y-125936762D01*
X174145788Y-126067765D01*
X124849259Y-126067765D01*
X124854212Y-125932235D01*
X124824586Y-125662982D01*
X124756072Y-125400912D01*
X124717234Y-125309518D01*
X129625000Y-125309518D01*
X129625353Y-125316114D01*
X129630573Y-125364667D01*
X129634111Y-125379641D01*
X129678547Y-125498777D01*
X129686962Y-125514189D01*
X129762498Y-125615092D01*
X129774907Y-125627501D01*
X129875810Y-125703037D01*
X129891222Y-125711452D01*
X130010358Y-125755888D01*
X130025332Y-125759426D01*
X130073885Y-125764646D01*
X130080482Y-125765000D01*
X130623674Y-125765000D01*
X130636549Y-125761549D01*
X130640000Y-125748674D01*
X131140000Y-125748674D01*
X131143450Y-125761549D01*
X131156326Y-125765000D01*
X131699518Y-125765000D01*
X131706114Y-125764646D01*
X131754667Y-125759426D01*
X131769641Y-125755888D01*
X131888777Y-125711452D01*
X131904189Y-125703037D01*
X132005092Y-125627501D01*
X132017501Y-125615092D01*
X132093037Y-125514189D01*
X132101452Y-125498777D01*
X132125420Y-125434518D01*
X133040000Y-125434518D01*
X133040353Y-125441114D01*
X133045573Y-125489667D01*
X133049111Y-125504641D01*
X133093547Y-125623777D01*
X133101962Y-125639189D01*
X133177498Y-125740092D01*
X133189907Y-125752501D01*
X133290810Y-125828037D01*
X133306222Y-125836452D01*
X133425358Y-125880888D01*
X133440332Y-125884426D01*
X133488885Y-125889646D01*
X133495482Y-125890000D01*
X134123674Y-125890000D01*
X134136549Y-125886549D01*
X134140000Y-125873674D01*
X134640000Y-125873674D01*
X134643450Y-125886549D01*
X134656326Y-125890000D01*
X135284518Y-125890000D01*
X135291114Y-125889646D01*
X135339667Y-125884426D01*
X135354641Y-125880888D01*
X135473777Y-125836452D01*
X135489189Y-125828037D01*
X135590092Y-125752501D01*
X135602501Y-125740092D01*
X135678037Y-125639189D01*
X135686452Y-125623777D01*
X135730888Y-125504641D01*
X135734426Y-125489667D01*
X135739646Y-125441114D01*
X135740000Y-125434518D01*
X135740000Y-124806326D01*
X135736549Y-124793450D01*
X135723674Y-124790000D01*
X134656326Y-124790000D01*
X134643450Y-124793450D01*
X134640000Y-124806326D01*
X134640000Y-125873674D01*
X134140000Y-125873674D01*
X134140000Y-124806326D01*
X134136549Y-124793450D01*
X134123674Y-124790000D01*
X133056326Y-124790000D01*
X133043450Y-124793450D01*
X133040000Y-124806326D01*
X133040000Y-125434518D01*
X132125420Y-125434518D01*
X132145888Y-125379641D01*
X132149426Y-125364667D01*
X132154646Y-125316114D01*
X132155000Y-125309518D01*
X132155000Y-124766326D01*
X132151549Y-124753450D01*
X132138674Y-124750000D01*
X131156326Y-124750000D01*
X131143450Y-124753450D01*
X131140000Y-124766326D01*
X131140000Y-125748674D01*
X130640000Y-125748674D01*
X130640000Y-124766326D01*
X130636549Y-124753450D01*
X130623674Y-124750000D01*
X129641326Y-124750000D01*
X129628450Y-124753450D01*
X129625000Y-124766326D01*
X129625000Y-125309518D01*
X124717234Y-125309518D01*
X124650130Y-125151610D01*
X124509018Y-124920390D01*
X124335745Y-124712180D01*
X124230759Y-124618112D01*
X124137382Y-124534446D01*
X124137378Y-124534442D01*
X124134002Y-124531418D01*
X123908090Y-124381956D01*
X123903996Y-124380036D01*
X123903991Y-124380034D01*
X123666929Y-124268904D01*
X123666925Y-124268902D01*
X123662824Y-124266980D01*
X123658477Y-124265672D01*
X123658474Y-124265671D01*
X123407772Y-124190246D01*
X123407771Y-124190245D01*
X123403431Y-124188940D01*
X123398957Y-124188281D01*
X123398950Y-124188280D01*
X123139913Y-124150158D01*
X123139907Y-124150157D01*
X123135439Y-124149500D01*
X122932369Y-124149500D01*
X122930120Y-124149664D01*
X122930109Y-124149665D01*
X122734363Y-124163992D01*
X122734359Y-124163992D01*
X122729844Y-124164323D01*
X122725426Y-124165307D01*
X122725420Y-124165308D01*
X122469877Y-124222232D01*
X122469861Y-124222236D01*
X122465447Y-124223220D01*
X122461216Y-124224838D01*
X122461210Y-124224840D01*
X122216673Y-124318367D01*
X122216663Y-124318371D01*
X122212442Y-124319986D01*
X122208494Y-124322201D01*
X122208489Y-124322204D01*
X121980176Y-124450340D01*
X121980171Y-124450343D01*
X121976223Y-124452559D01*
X121972639Y-124455325D01*
X121972635Y-124455329D01*
X121765407Y-124615343D01*
X121765394Y-124615354D01*
X121761823Y-124618112D01*
X121758685Y-124621366D01*
X121758678Y-124621373D01*
X121576958Y-124809857D01*
X121576952Y-124809864D01*
X121573814Y-124813119D01*
X121571189Y-124816787D01*
X121571179Y-124816800D01*
X121418834Y-125029740D01*
X121418830Y-125029745D01*
X121416201Y-125033421D01*
X121414132Y-125037444D01*
X121414129Y-125037450D01*
X121294416Y-125270293D01*
X121294411Y-125270304D01*
X121292344Y-125274325D01*
X121290884Y-125278602D01*
X121290879Y-125278616D01*
X121206348Y-125526395D01*
X121206344Y-125526407D01*
X121204882Y-125530695D01*
X121204057Y-125535159D01*
X121204057Y-125535161D01*
X121156504Y-125792606D01*
X121156502Y-125792619D01*
X121155681Y-125797067D01*
X121155515Y-125801593D01*
X121155515Y-125801599D01*
X121150576Y-125936762D01*
X121145788Y-126067765D01*
X119310000Y-126067765D01*
X119310000Y-103698495D01*
X127369840Y-103698495D01*
X127370574Y-103706260D01*
X127370574Y-103706263D01*
X127373950Y-103741975D01*
X127374500Y-103753644D01*
X127374500Y-118922225D01*
X127373978Y-118933280D01*
X127372327Y-118940667D01*
X127372571Y-118948453D01*
X127372571Y-118948461D01*
X127374439Y-119007873D01*
X127374500Y-119011768D01*
X127374500Y-119039350D01*
X127374988Y-119043219D01*
X127374989Y-119043225D01*
X127375004Y-119043343D01*
X127375918Y-119054966D01*
X127377045Y-119090830D01*
X127377046Y-119090837D01*
X127377291Y-119098627D01*
X127379467Y-119106119D01*
X127379468Y-119106121D01*
X127382879Y-119117862D01*
X127386825Y-119136915D01*
X127389336Y-119156792D01*
X127392206Y-119164042D01*
X127392208Y-119164048D01*
X127405414Y-119197404D01*
X127409197Y-119208451D01*
X127421382Y-119250390D01*
X127425353Y-119257105D01*
X127425354Y-119257107D01*
X127431581Y-119267637D01*
X127440136Y-119285099D01*
X127444642Y-119296480D01*
X127444643Y-119296483D01*
X127447514Y-119303732D01*
X127469440Y-119333912D01*
X127473181Y-119339060D01*
X127479593Y-119348822D01*
X127497856Y-119379702D01*
X127497859Y-119379707D01*
X127501830Y-119386420D01*
X127507344Y-119391934D01*
X127507345Y-119391935D01*
X127515990Y-119400580D01*
X127528626Y-119415374D01*
X127535819Y-119425275D01*
X127535823Y-119425279D01*
X127540406Y-119431587D01*
X127546415Y-119436558D01*
X127546416Y-119436559D01*
X127574058Y-119459426D01*
X127582699Y-119467289D01*
X129012707Y-120897298D01*
X129020159Y-120905487D01*
X129024214Y-120911877D01*
X129073223Y-120957900D01*
X129076020Y-120960611D01*
X129095529Y-120980120D01*
X129098709Y-120982587D01*
X129107571Y-120990155D01*
X129121020Y-121002785D01*
X129133732Y-121014723D01*
X129133734Y-121014724D01*
X129139418Y-121020062D01*
X129146251Y-121023818D01*
X129146252Y-121023819D01*
X129156973Y-121029713D01*
X129173234Y-121040394D01*
X129189064Y-121052673D01*
X129229155Y-121070021D01*
X129239635Y-121075155D01*
X129277908Y-121096197D01*
X129297316Y-121101180D01*
X129315719Y-121107481D01*
X129326944Y-121112339D01*
X129326946Y-121112339D01*
X129334104Y-121115437D01*
X129377258Y-121122271D01*
X129388644Y-121124629D01*
X129430981Y-121135500D01*
X129451017Y-121135500D01*
X129470415Y-121137027D01*
X129482486Y-121138939D01*
X129482487Y-121138939D01*
X129490196Y-121140160D01*
X129528276Y-121136560D01*
X129533676Y-121136050D01*
X129545345Y-121135500D01*
X129684940Y-121135500D01*
X129746939Y-121152112D01*
X129792326Y-121197498D01*
X129808940Y-121259497D01*
X129792412Y-121321184D01*
X129789858Y-121324833D01*
X129787570Y-121329738D01*
X129787568Y-121329743D01*
X129698563Y-121520616D01*
X129698560Y-121520623D01*
X129696277Y-121525520D01*
X129694880Y-121530730D01*
X129694877Y-121530741D01*
X129640366Y-121734176D01*
X129640363Y-121734189D01*
X129638965Y-121739409D01*
X129638493Y-121744798D01*
X129638492Y-121744807D01*
X129636290Y-121769982D01*
X129619666Y-121960000D01*
X129620138Y-121965395D01*
X129638492Y-122175192D01*
X129638493Y-122175199D01*
X129638965Y-122180591D01*
X129640364Y-122185812D01*
X129640366Y-122185823D01*
X129694877Y-122389258D01*
X129694879Y-122389265D01*
X129696277Y-122394480D01*
X129789858Y-122595167D01*
X129792965Y-122599604D01*
X129913762Y-122772120D01*
X129913765Y-122772124D01*
X129916868Y-122776555D01*
X130073445Y-122933132D01*
X130077877Y-122936235D01*
X130077879Y-122936237D01*
X130182402Y-123009425D01*
X130222729Y-123056642D01*
X130235108Y-123117490D01*
X130216436Y-123176710D01*
X130171394Y-123219453D01*
X130111278Y-123235000D01*
X130080482Y-123235000D01*
X130073885Y-123235353D01*
X130025332Y-123240573D01*
X130010358Y-123244111D01*
X129891222Y-123288547D01*
X129875810Y-123296962D01*
X129774907Y-123372498D01*
X129762498Y-123384907D01*
X129686962Y-123485810D01*
X129678547Y-123501222D01*
X129634111Y-123620358D01*
X129630573Y-123635332D01*
X129625353Y-123683885D01*
X129625000Y-123690482D01*
X129625000Y-124233674D01*
X129628450Y-124246549D01*
X129641326Y-124250000D01*
X132138674Y-124250000D01*
X132151549Y-124246549D01*
X132155000Y-124233674D01*
X132155000Y-123690482D01*
X132154646Y-123683885D01*
X132149426Y-123635332D01*
X132145888Y-123620358D01*
X132101452Y-123501222D01*
X132093037Y-123485810D01*
X132017501Y-123384907D01*
X132005092Y-123372498D01*
X131904189Y-123296962D01*
X131888777Y-123288547D01*
X131769641Y-123244111D01*
X131754667Y-123240573D01*
X131706114Y-123235353D01*
X131699518Y-123235000D01*
X131668722Y-123235000D01*
X131608606Y-123219453D01*
X131563564Y-123176710D01*
X131544892Y-123117490D01*
X131557271Y-123056642D01*
X131597598Y-123009425D01*
X131620037Y-122993713D01*
X131706555Y-122933132D01*
X131863132Y-122776555D01*
X131929159Y-122682259D01*
X131959887Y-122638376D01*
X132004205Y-122599511D01*
X132061462Y-122585500D01*
X133093915Y-122585500D01*
X133160541Y-122604920D01*
X133206296Y-122657094D01*
X133215965Y-122677830D01*
X133219072Y-122682267D01*
X133348399Y-122866966D01*
X133348402Y-122866970D01*
X133351505Y-122871401D01*
X133355336Y-122875232D01*
X133473818Y-122993714D01*
X133505114Y-123046460D01*
X133507303Y-123107753D01*
X133479850Y-123162597D01*
X133429471Y-123197576D01*
X133306226Y-123243544D01*
X133290810Y-123251962D01*
X133189907Y-123327498D01*
X133177498Y-123339907D01*
X133101962Y-123440810D01*
X133093547Y-123456222D01*
X133049111Y-123575358D01*
X133045573Y-123590332D01*
X133040353Y-123638885D01*
X133040000Y-123645482D01*
X133040000Y-124273674D01*
X133043450Y-124286549D01*
X133056326Y-124290000D01*
X135723674Y-124290000D01*
X135736549Y-124286549D01*
X135740000Y-124273674D01*
X135740000Y-123645482D01*
X135739646Y-123638885D01*
X135734426Y-123590332D01*
X135730888Y-123575358D01*
X135686452Y-123456222D01*
X135678037Y-123440810D01*
X135602501Y-123339907D01*
X135590092Y-123327498D01*
X135489189Y-123251962D01*
X135473779Y-123243548D01*
X135350528Y-123197577D01*
X135300149Y-123162597D01*
X135272696Y-123107753D01*
X135274885Y-123046460D01*
X135306178Y-122993717D01*
X135428495Y-122871401D01*
X135564035Y-122677830D01*
X135663903Y-122463663D01*
X135725063Y-122235408D01*
X135745659Y-122000000D01*
X135725063Y-121764592D01*
X135663903Y-121536337D01*
X135564035Y-121322171D01*
X135428495Y-121128599D01*
X135261401Y-120961505D01*
X135256968Y-120958401D01*
X135256961Y-120958395D01*
X135075842Y-120831575D01*
X135036976Y-120787257D01*
X135022965Y-120730000D01*
X135036976Y-120672743D01*
X135075842Y-120628425D01*
X135256961Y-120501604D01*
X135256961Y-120501603D01*
X135261401Y-120498495D01*
X135428495Y-120331401D01*
X135564035Y-120137830D01*
X135663903Y-119923663D01*
X135725063Y-119695408D01*
X135745659Y-119460000D01*
X135725063Y-119224592D01*
X135663903Y-118996337D01*
X135564035Y-118782171D01*
X135428495Y-118588599D01*
X135261401Y-118421505D01*
X135256968Y-118418401D01*
X135256961Y-118418395D01*
X135075842Y-118291575D01*
X135036976Y-118247257D01*
X135022965Y-118190000D01*
X135036976Y-118132743D01*
X135075842Y-118088425D01*
X135256961Y-117961604D01*
X135256961Y-117961603D01*
X135261401Y-117958495D01*
X135428495Y-117791401D01*
X135564035Y-117597830D01*
X135663903Y-117383663D01*
X135725063Y-117155408D01*
X135745659Y-116920000D01*
X135725063Y-116684592D01*
X135698143Y-116584126D01*
X135698143Y-116519938D01*
X135730235Y-116464353D01*
X136532771Y-115661819D01*
X136573000Y-115634939D01*
X136620453Y-115625500D01*
X154722225Y-115625500D01*
X154733280Y-115626021D01*
X154740667Y-115627673D01*
X154807872Y-115625561D01*
X154811768Y-115625500D01*
X154835448Y-115625500D01*
X154839350Y-115625500D01*
X154843313Y-115624999D01*
X154854963Y-115624080D01*
X154898627Y-115622709D01*
X154917861Y-115617119D01*
X154936917Y-115613174D01*
X154956792Y-115610664D01*
X154997395Y-115594587D01*
X155008450Y-115590802D01*
X155038991Y-115581929D01*
X155042900Y-115580794D01*
X155042900Y-115580793D01*
X155050390Y-115578618D01*
X155067629Y-115568422D01*
X155085103Y-115559862D01*
X155096474Y-115555360D01*
X155096476Y-115555358D01*
X155103732Y-115552486D01*
X155139069Y-115526811D01*
X155148824Y-115520403D01*
X155186420Y-115498170D01*
X155200584Y-115484005D01*
X155215379Y-115471368D01*
X155231587Y-115459594D01*
X155259428Y-115425938D01*
X155267279Y-115417309D01*
X156274588Y-114410000D01*
X164784341Y-114410000D01*
X164804937Y-114645408D01*
X164806336Y-114650630D01*
X164806337Y-114650634D01*
X164864694Y-114868430D01*
X164864697Y-114868438D01*
X164866097Y-114873663D01*
X164868385Y-114878570D01*
X164868386Y-114878572D01*
X164963678Y-115082927D01*
X164963681Y-115082933D01*
X164965965Y-115087830D01*
X164969064Y-115092257D01*
X164969066Y-115092259D01*
X165098399Y-115276966D01*
X165098402Y-115276970D01*
X165101505Y-115281401D01*
X165268599Y-115448495D01*
X165273031Y-115451598D01*
X165273033Y-115451600D01*
X165338754Y-115497618D01*
X165462170Y-115584035D01*
X165467070Y-115586320D01*
X165467072Y-115586321D01*
X165480844Y-115592743D01*
X165676337Y-115683903D01*
X165904592Y-115745063D01*
X166140000Y-115765659D01*
X166375408Y-115745063D01*
X166603663Y-115683903D01*
X166817830Y-115584035D01*
X167011401Y-115448495D01*
X167178495Y-115281401D01*
X167314035Y-115087830D01*
X167413903Y-114873663D01*
X167475063Y-114645408D01*
X167495659Y-114410000D01*
X167475063Y-114174592D01*
X167413903Y-113946337D01*
X167314035Y-113732171D01*
X167178495Y-113538599D01*
X167011401Y-113371505D01*
X167006968Y-113368401D01*
X167006961Y-113368395D01*
X166825842Y-113241575D01*
X166786976Y-113197257D01*
X166772965Y-113140000D01*
X166786976Y-113082743D01*
X166825842Y-113038425D01*
X167006961Y-112911604D01*
X167006961Y-112911603D01*
X167011401Y-112908495D01*
X167178495Y-112741401D01*
X167314035Y-112547830D01*
X167413903Y-112333663D01*
X167475063Y-112105408D01*
X167495659Y-111870000D01*
X167475063Y-111634592D01*
X167413903Y-111406337D01*
X167314035Y-111192171D01*
X167178495Y-110998599D01*
X167011401Y-110831505D01*
X167006970Y-110828402D01*
X167006966Y-110828399D01*
X166822263Y-110699069D01*
X166822262Y-110699068D01*
X166817830Y-110695965D01*
X166812921Y-110693676D01*
X166810692Y-110692389D01*
X166765303Y-110647001D01*
X166748689Y-110585000D01*
X166765303Y-110522999D01*
X166810692Y-110477611D01*
X166812919Y-110476324D01*
X166817830Y-110474035D01*
X167011401Y-110338495D01*
X167178495Y-110171401D01*
X167314035Y-109977830D01*
X167413903Y-109763663D01*
X167475063Y-109535408D01*
X167495659Y-109300000D01*
X167475063Y-109064592D01*
X167413903Y-108836337D01*
X167314035Y-108622171D01*
X167178495Y-108428599D01*
X167011401Y-108261505D01*
X167006970Y-108258402D01*
X167006966Y-108258399D01*
X166822259Y-108129066D01*
X166822257Y-108129064D01*
X166817830Y-108125965D01*
X166812933Y-108123681D01*
X166812927Y-108123678D01*
X166608572Y-108028386D01*
X166608570Y-108028385D01*
X166603663Y-108026097D01*
X166598438Y-108024697D01*
X166598430Y-108024694D01*
X166380634Y-107966337D01*
X166380630Y-107966336D01*
X166375408Y-107964937D01*
X166370020Y-107964465D01*
X166370017Y-107964465D01*
X166145395Y-107944813D01*
X166140000Y-107944341D01*
X166134605Y-107944813D01*
X165909982Y-107964465D01*
X165909977Y-107964465D01*
X165904592Y-107964937D01*
X165899371Y-107966335D01*
X165899365Y-107966337D01*
X165681569Y-108024694D01*
X165681557Y-108024698D01*
X165676337Y-108026097D01*
X165671432Y-108028383D01*
X165671427Y-108028386D01*
X165467081Y-108123675D01*
X165467077Y-108123677D01*
X165462171Y-108125965D01*
X165457738Y-108129068D01*
X165457731Y-108129073D01*
X165273034Y-108258399D01*
X165273029Y-108258402D01*
X165268599Y-108261505D01*
X165264775Y-108265328D01*
X165264769Y-108265334D01*
X165105334Y-108424769D01*
X165105328Y-108424775D01*
X165101505Y-108428599D01*
X165098402Y-108433029D01*
X165098399Y-108433034D01*
X164969073Y-108617731D01*
X164969068Y-108617738D01*
X164965965Y-108622171D01*
X164963677Y-108627077D01*
X164963675Y-108627081D01*
X164868386Y-108831427D01*
X164868383Y-108831432D01*
X164866097Y-108836337D01*
X164864698Y-108841557D01*
X164864694Y-108841569D01*
X164806337Y-109059365D01*
X164806335Y-109059371D01*
X164804937Y-109064592D01*
X164784341Y-109300000D01*
X164784813Y-109305395D01*
X164799668Y-109475192D01*
X164804937Y-109535408D01*
X164806336Y-109540630D01*
X164806337Y-109540634D01*
X164864694Y-109758430D01*
X164864697Y-109758438D01*
X164866097Y-109763663D01*
X164868385Y-109768570D01*
X164868386Y-109768572D01*
X164963678Y-109972927D01*
X164963681Y-109972933D01*
X164965965Y-109977830D01*
X164969064Y-109982257D01*
X164969066Y-109982259D01*
X165098399Y-110166966D01*
X165098402Y-110166970D01*
X165101505Y-110171401D01*
X165268599Y-110338495D01*
X165462170Y-110474035D01*
X165467079Y-110476324D01*
X165469308Y-110477611D01*
X165514696Y-110522997D01*
X165531311Y-110584997D01*
X165514700Y-110646997D01*
X165469314Y-110692386D01*
X165467078Y-110693676D01*
X165462171Y-110695965D01*
X165457738Y-110699068D01*
X165457731Y-110699073D01*
X165273034Y-110828399D01*
X165273029Y-110828402D01*
X165268599Y-110831505D01*
X165264775Y-110835328D01*
X165264769Y-110835334D01*
X165105334Y-110994769D01*
X165105328Y-110994775D01*
X165101505Y-110998599D01*
X165098402Y-111003029D01*
X165098399Y-111003034D01*
X164969073Y-111187731D01*
X164969068Y-111187738D01*
X164965965Y-111192171D01*
X164963677Y-111197077D01*
X164963675Y-111197081D01*
X164868386Y-111401427D01*
X164868383Y-111401432D01*
X164866097Y-111406337D01*
X164864698Y-111411557D01*
X164864694Y-111411569D01*
X164806337Y-111629365D01*
X164806335Y-111629371D01*
X164804937Y-111634592D01*
X164784341Y-111870000D01*
X164784813Y-111875395D01*
X164802769Y-112080634D01*
X164804937Y-112105408D01*
X164806336Y-112110630D01*
X164806337Y-112110634D01*
X164864694Y-112328430D01*
X164864697Y-112328438D01*
X164866097Y-112333663D01*
X164868385Y-112338570D01*
X164868386Y-112338572D01*
X164963678Y-112542927D01*
X164963681Y-112542933D01*
X164965965Y-112547830D01*
X164969064Y-112552257D01*
X164969066Y-112552259D01*
X165098399Y-112736966D01*
X165098402Y-112736970D01*
X165101505Y-112741401D01*
X165268599Y-112908495D01*
X165273032Y-112911599D01*
X165273038Y-112911604D01*
X165454158Y-113038425D01*
X165493024Y-113082743D01*
X165507035Y-113140000D01*
X165493024Y-113197257D01*
X165454159Y-113241575D01*
X165273041Y-113368395D01*
X165268599Y-113371505D01*
X165264775Y-113375328D01*
X165264769Y-113375334D01*
X165105334Y-113534769D01*
X165105328Y-113534775D01*
X165101505Y-113538599D01*
X165098402Y-113543029D01*
X165098399Y-113543034D01*
X164969073Y-113727731D01*
X164969068Y-113727738D01*
X164965965Y-113732171D01*
X164963677Y-113737077D01*
X164963675Y-113737081D01*
X164868386Y-113941427D01*
X164868383Y-113941432D01*
X164866097Y-113946337D01*
X164864698Y-113951557D01*
X164864694Y-113951569D01*
X164806337Y-114169365D01*
X164806335Y-114169371D01*
X164804937Y-114174592D01*
X164784341Y-114410000D01*
X156274588Y-114410000D01*
X166022771Y-104661819D01*
X166063000Y-104634939D01*
X166110453Y-104625500D01*
X169322225Y-104625500D01*
X169333280Y-104626021D01*
X169340667Y-104627673D01*
X169407872Y-104625561D01*
X169411768Y-104625500D01*
X169435448Y-104625500D01*
X169439350Y-104625500D01*
X169443313Y-104624999D01*
X169454963Y-104624080D01*
X169498627Y-104622709D01*
X169517861Y-104617119D01*
X169536917Y-104613174D01*
X169556792Y-104610664D01*
X169597395Y-104594587D01*
X169608450Y-104590802D01*
X169650390Y-104578618D01*
X169667629Y-104568422D01*
X169685103Y-104559862D01*
X169696474Y-104555360D01*
X169696476Y-104555358D01*
X169703732Y-104552486D01*
X169739069Y-104526811D01*
X169748824Y-104520403D01*
X169786420Y-104498170D01*
X169800584Y-104484005D01*
X169815379Y-104471368D01*
X169831587Y-104459594D01*
X169859428Y-104425938D01*
X169867279Y-104417309D01*
X171887311Y-102397278D01*
X171895481Y-102389844D01*
X171901877Y-102385786D01*
X171947918Y-102336756D01*
X171950535Y-102334054D01*
X171970120Y-102314471D01*
X171972585Y-102311292D01*
X171980167Y-102302416D01*
X172010062Y-102270582D01*
X172019713Y-102253023D01*
X172030390Y-102236770D01*
X172042673Y-102220936D01*
X172060018Y-102180852D01*
X172065151Y-102170371D01*
X172086197Y-102132092D01*
X172091179Y-102112684D01*
X172097482Y-102094276D01*
X172105437Y-102075896D01*
X172112271Y-102032744D01*
X172114633Y-102021338D01*
X172125500Y-101979019D01*
X172125500Y-101958983D01*
X172127027Y-101939585D01*
X172128939Y-101927513D01*
X172128938Y-101927513D01*
X172130160Y-101919804D01*
X172126050Y-101876324D01*
X172125500Y-101864655D01*
X172125500Y-99077771D01*
X172126020Y-99066718D01*
X172127672Y-99059332D01*
X172125561Y-98992144D01*
X172125500Y-98988250D01*
X172125500Y-98964545D01*
X172125500Y-98960650D01*
X172124998Y-98956681D01*
X172124080Y-98945024D01*
X172122954Y-98909172D01*
X172122709Y-98901372D01*
X172117120Y-98882139D01*
X172113174Y-98863082D01*
X172111641Y-98850946D01*
X172110664Y-98843208D01*
X172094581Y-98802587D01*
X172090799Y-98791540D01*
X172080793Y-98757101D01*
X172078617Y-98749610D01*
X172074644Y-98742892D01*
X172068422Y-98732370D01*
X172059860Y-98714892D01*
X172055360Y-98703527D01*
X172055359Y-98703526D01*
X172052486Y-98696268D01*
X172026812Y-98660931D01*
X172020409Y-98651184D01*
X171998170Y-98613579D01*
X171984006Y-98599415D01*
X171971368Y-98584618D01*
X171964184Y-98574729D01*
X171964178Y-98574723D01*
X171959594Y-98568413D01*
X171935744Y-98548683D01*
X171925946Y-98540577D01*
X171917305Y-98532714D01*
X170197286Y-96812695D01*
X170189842Y-96804514D01*
X170185786Y-96798123D01*
X170136775Y-96752098D01*
X170133978Y-96749387D01*
X170117227Y-96732636D01*
X170114471Y-96729880D01*
X170111290Y-96727412D01*
X170102414Y-96719830D01*
X170076269Y-96695278D01*
X170076267Y-96695276D01*
X170070582Y-96689938D01*
X170063749Y-96686182D01*
X170063743Y-96686177D01*
X170053025Y-96680285D01*
X170036766Y-96669606D01*
X170027095Y-96662104D01*
X170027092Y-96662102D01*
X170020936Y-96657327D01*
X170013779Y-96654229D01*
X170013776Y-96654228D01*
X169980849Y-96639978D01*
X169970363Y-96634841D01*
X169938932Y-96617562D01*
X169938923Y-96617558D01*
X169932092Y-96613803D01*
X169924535Y-96611862D01*
X169924531Y-96611861D01*
X169912688Y-96608820D01*
X169894284Y-96602519D01*
X169883057Y-96597660D01*
X169883050Y-96597658D01*
X169875896Y-96594562D01*
X169868192Y-96593341D01*
X169868190Y-96593341D01*
X169832759Y-96587729D01*
X169821324Y-96585361D01*
X169786571Y-96576438D01*
X169786563Y-96576437D01*
X169779019Y-96574500D01*
X169771223Y-96574500D01*
X169758983Y-96574500D01*
X169739597Y-96572974D01*
X169719804Y-96569840D01*
X169712038Y-96570574D01*
X169712035Y-96570574D01*
X169676324Y-96573950D01*
X169664655Y-96574500D01*
X165677772Y-96574500D01*
X165666719Y-96573979D01*
X165659333Y-96572328D01*
X165651535Y-96572573D01*
X165592145Y-96574439D01*
X165588251Y-96574500D01*
X165560650Y-96574500D01*
X165556799Y-96574986D01*
X165556768Y-96574988D01*
X165556640Y-96575005D01*
X165545029Y-96575918D01*
X165509172Y-96577045D01*
X165509165Y-96577046D01*
X165501373Y-96577291D01*
X165493888Y-96579465D01*
X165493872Y-96579468D01*
X165482126Y-96582881D01*
X165463083Y-96586825D01*
X165450949Y-96588358D01*
X165450948Y-96588358D01*
X165443208Y-96589336D01*
X165435958Y-96592205D01*
X165435951Y-96592208D01*
X165402598Y-96605413D01*
X165391554Y-96609194D01*
X165357105Y-96619203D01*
X165357095Y-96619207D01*
X165349610Y-96621382D01*
X165342900Y-96625349D01*
X165342898Y-96625351D01*
X165339505Y-96627357D01*
X165332360Y-96631583D01*
X165314900Y-96640136D01*
X165296268Y-96647514D01*
X165289965Y-96652092D01*
X165289958Y-96652097D01*
X165260939Y-96673181D01*
X165251179Y-96679592D01*
X165220294Y-96697857D01*
X165220284Y-96697864D01*
X165213579Y-96701830D01*
X165208063Y-96707345D01*
X165208060Y-96707348D01*
X165199407Y-96716000D01*
X165184624Y-96728626D01*
X165174727Y-96735817D01*
X165174720Y-96735823D01*
X165168413Y-96740406D01*
X165163446Y-96746408D01*
X165163435Y-96746420D01*
X165140570Y-96774059D01*
X165132710Y-96782697D01*
X164141808Y-97773599D01*
X164091419Y-97804178D01*
X164040718Y-97807503D01*
X164040591Y-97808965D01*
X163820000Y-97789666D01*
X163814605Y-97790138D01*
X163604807Y-97808492D01*
X163604798Y-97808493D01*
X163599409Y-97808965D01*
X163594189Y-97810363D01*
X163594176Y-97810366D01*
X163390741Y-97864877D01*
X163390730Y-97864880D01*
X163385520Y-97866277D01*
X163380623Y-97868560D01*
X163380616Y-97868563D01*
X163189747Y-97957566D01*
X163189741Y-97957569D01*
X163184833Y-97959858D01*
X163180399Y-97962962D01*
X163180395Y-97962965D01*
X163007879Y-98083762D01*
X163007869Y-98083769D01*
X163003445Y-98086868D01*
X162999619Y-98090693D01*
X162999613Y-98090699D01*
X162850699Y-98239613D01*
X162850693Y-98239619D01*
X162846868Y-98243445D01*
X162843769Y-98247869D01*
X162843762Y-98247879D01*
X162722965Y-98420395D01*
X162722962Y-98420399D01*
X162719858Y-98424833D01*
X162717570Y-98429738D01*
X162717568Y-98429743D01*
X162662382Y-98548092D01*
X162616625Y-98600268D01*
X162550000Y-98619687D01*
X162483375Y-98600268D01*
X162437618Y-98548092D01*
X162430447Y-98532714D01*
X162380142Y-98424833D01*
X162253132Y-98243445D01*
X162096555Y-98086868D01*
X162092124Y-98083765D01*
X162092120Y-98083762D01*
X161919604Y-97962965D01*
X161919605Y-97962965D01*
X161915167Y-97959858D01*
X161879036Y-97943010D01*
X161719383Y-97868563D01*
X161719380Y-97868561D01*
X161714480Y-97866277D01*
X161709265Y-97864879D01*
X161709258Y-97864877D01*
X161505823Y-97810366D01*
X161505812Y-97810364D01*
X161500591Y-97808965D01*
X161495199Y-97808493D01*
X161495192Y-97808492D01*
X161285395Y-97790138D01*
X161280000Y-97789666D01*
X161274605Y-97790138D01*
X161064807Y-97808492D01*
X161064798Y-97808493D01*
X161059409Y-97808965D01*
X161054189Y-97810363D01*
X161054176Y-97810366D01*
X160850741Y-97864877D01*
X160850730Y-97864880D01*
X160845520Y-97866277D01*
X160840623Y-97868560D01*
X160840616Y-97868563D01*
X160649747Y-97957566D01*
X160649741Y-97957569D01*
X160644833Y-97959858D01*
X160640399Y-97962962D01*
X160640395Y-97962965D01*
X160467879Y-98083762D01*
X160467869Y-98083769D01*
X160463445Y-98086868D01*
X160459619Y-98090693D01*
X160459613Y-98090699D01*
X160310699Y-98239613D01*
X160310693Y-98239619D01*
X160306868Y-98243445D01*
X160303769Y-98247869D01*
X160303762Y-98247879D01*
X160182965Y-98420395D01*
X160182962Y-98420399D01*
X160179858Y-98424833D01*
X160177570Y-98429738D01*
X160177568Y-98429743D01*
X160122382Y-98548092D01*
X160076625Y-98600268D01*
X160010000Y-98619687D01*
X159943375Y-98600268D01*
X159897618Y-98548092D01*
X159890447Y-98532714D01*
X159840142Y-98424833D01*
X159713132Y-98243445D01*
X159556555Y-98086868D01*
X159552124Y-98083765D01*
X159552120Y-98083762D01*
X159379604Y-97962965D01*
X159379605Y-97962965D01*
X159375167Y-97959858D01*
X159339036Y-97943010D01*
X159179383Y-97868563D01*
X159179380Y-97868561D01*
X159174480Y-97866277D01*
X159169265Y-97864879D01*
X159169258Y-97864877D01*
X158965823Y-97810366D01*
X158965812Y-97810364D01*
X158960591Y-97808965D01*
X158955199Y-97808493D01*
X158955192Y-97808492D01*
X158745395Y-97790138D01*
X158740000Y-97789666D01*
X158734605Y-97790138D01*
X158524807Y-97808492D01*
X158524798Y-97808493D01*
X158519409Y-97808965D01*
X158514189Y-97810363D01*
X158514176Y-97810366D01*
X158310741Y-97864877D01*
X158310730Y-97864880D01*
X158305520Y-97866277D01*
X158300623Y-97868560D01*
X158300616Y-97868563D01*
X158109747Y-97957566D01*
X158109741Y-97957569D01*
X158104833Y-97959858D01*
X158100399Y-97962962D01*
X158100395Y-97962965D01*
X157927879Y-98083762D01*
X157927869Y-98083769D01*
X157923445Y-98086868D01*
X157919619Y-98090693D01*
X157919613Y-98090699D01*
X157770699Y-98239613D01*
X157770693Y-98239619D01*
X157766868Y-98243445D01*
X157763769Y-98247869D01*
X157763762Y-98247879D01*
X157642965Y-98420395D01*
X157642962Y-98420399D01*
X157639858Y-98424833D01*
X157637570Y-98429738D01*
X157637568Y-98429743D01*
X157582382Y-98548092D01*
X157536625Y-98600268D01*
X157470000Y-98619687D01*
X157403375Y-98600268D01*
X157357618Y-98548092D01*
X157350447Y-98532714D01*
X157300142Y-98424833D01*
X157173132Y-98243445D01*
X157016555Y-98086868D01*
X157012124Y-98083765D01*
X157012120Y-98083762D01*
X156839604Y-97962965D01*
X156839605Y-97962965D01*
X156835167Y-97959858D01*
X156799036Y-97943010D01*
X156639383Y-97868563D01*
X156639380Y-97868561D01*
X156634480Y-97866277D01*
X156629265Y-97864879D01*
X156629258Y-97864877D01*
X156425823Y-97810366D01*
X156425812Y-97810364D01*
X156420591Y-97808965D01*
X156415199Y-97808493D01*
X156415192Y-97808492D01*
X156205395Y-97790138D01*
X156200000Y-97789666D01*
X156194605Y-97790138D01*
X155984807Y-97808492D01*
X155984798Y-97808493D01*
X155979409Y-97808965D01*
X155974189Y-97810363D01*
X155974176Y-97810366D01*
X155770741Y-97864877D01*
X155770730Y-97864880D01*
X155765520Y-97866277D01*
X155760623Y-97868560D01*
X155760616Y-97868563D01*
X155569747Y-97957566D01*
X155569741Y-97957569D01*
X155564833Y-97959858D01*
X155560399Y-97962962D01*
X155560395Y-97962965D01*
X155387879Y-98083762D01*
X155387869Y-98083769D01*
X155383445Y-98086868D01*
X155379619Y-98090693D01*
X155379613Y-98090699D01*
X155230699Y-98239613D01*
X155230693Y-98239619D01*
X155226868Y-98243445D01*
X155223769Y-98247869D01*
X155223762Y-98247879D01*
X155102965Y-98420395D01*
X155102962Y-98420399D01*
X155099858Y-98424833D01*
X155097570Y-98429738D01*
X155097568Y-98429743D01*
X155042382Y-98548092D01*
X154996625Y-98600268D01*
X154930000Y-98619687D01*
X154863375Y-98600268D01*
X154817618Y-98548092D01*
X154810447Y-98532714D01*
X154760142Y-98424833D01*
X154633132Y-98243445D01*
X154476555Y-98086868D01*
X154472124Y-98083765D01*
X154472120Y-98083762D01*
X154299604Y-97962965D01*
X154299605Y-97962965D01*
X154295167Y-97959858D01*
X154259036Y-97943010D01*
X154099383Y-97868563D01*
X154099380Y-97868561D01*
X154094480Y-97866277D01*
X154089265Y-97864879D01*
X154089258Y-97864877D01*
X153885823Y-97810366D01*
X153885812Y-97810364D01*
X153880591Y-97808965D01*
X153875199Y-97808493D01*
X153875192Y-97808492D01*
X153665395Y-97790138D01*
X153660000Y-97789666D01*
X153654605Y-97790138D01*
X153444807Y-97808492D01*
X153444798Y-97808493D01*
X153439409Y-97808965D01*
X153434189Y-97810363D01*
X153434176Y-97810366D01*
X153230741Y-97864877D01*
X153230730Y-97864880D01*
X153225520Y-97866277D01*
X153220623Y-97868560D01*
X153220616Y-97868563D01*
X153029747Y-97957566D01*
X153029741Y-97957569D01*
X153024833Y-97959858D01*
X153020399Y-97962962D01*
X153020395Y-97962965D01*
X152847879Y-98083762D01*
X152847869Y-98083769D01*
X152843445Y-98086868D01*
X152839619Y-98090693D01*
X152839613Y-98090699D01*
X152690699Y-98239613D01*
X152690693Y-98239619D01*
X152686868Y-98243445D01*
X152683769Y-98247869D01*
X152683762Y-98247879D01*
X152562965Y-98420395D01*
X152562962Y-98420399D01*
X152559858Y-98424833D01*
X152557570Y-98429738D01*
X152557568Y-98429743D01*
X152502382Y-98548092D01*
X152456625Y-98600268D01*
X152390000Y-98619687D01*
X152323375Y-98600268D01*
X152277618Y-98548092D01*
X152270447Y-98532714D01*
X152220142Y-98424833D01*
X152093132Y-98243445D01*
X151936555Y-98086868D01*
X151932124Y-98083765D01*
X151932120Y-98083762D01*
X151759604Y-97962965D01*
X151759605Y-97962965D01*
X151755167Y-97959858D01*
X151719036Y-97943010D01*
X151559383Y-97868563D01*
X151559380Y-97868561D01*
X151554480Y-97866277D01*
X151549265Y-97864879D01*
X151549258Y-97864877D01*
X151345823Y-97810366D01*
X151345812Y-97810364D01*
X151340591Y-97808965D01*
X151335199Y-97808493D01*
X151335192Y-97808492D01*
X151125395Y-97790138D01*
X151120000Y-97789666D01*
X151114605Y-97790138D01*
X150904807Y-97808492D01*
X150904798Y-97808493D01*
X150899409Y-97808965D01*
X150894189Y-97810363D01*
X150894176Y-97810366D01*
X150690741Y-97864877D01*
X150690730Y-97864880D01*
X150685520Y-97866277D01*
X150680623Y-97868560D01*
X150680616Y-97868563D01*
X150489747Y-97957566D01*
X150489741Y-97957569D01*
X150484833Y-97959858D01*
X150480399Y-97962962D01*
X150480395Y-97962965D01*
X150307879Y-98083762D01*
X150307869Y-98083769D01*
X150303445Y-98086868D01*
X150299619Y-98090693D01*
X150299613Y-98090699D01*
X150150699Y-98239613D01*
X150150693Y-98239619D01*
X150146868Y-98243445D01*
X150143769Y-98247869D01*
X150143762Y-98247879D01*
X150022965Y-98420395D01*
X150022962Y-98420399D01*
X150019858Y-98424833D01*
X150017570Y-98429738D01*
X150017568Y-98429743D01*
X149962382Y-98548092D01*
X149916625Y-98600268D01*
X149850000Y-98619687D01*
X149783375Y-98600268D01*
X149737618Y-98548092D01*
X149730447Y-98532714D01*
X149680142Y-98424833D01*
X149553132Y-98243445D01*
X149396555Y-98086868D01*
X149392124Y-98083765D01*
X149392120Y-98083762D01*
X149219604Y-97962965D01*
X149219605Y-97962965D01*
X149215167Y-97959858D01*
X149179036Y-97943010D01*
X149019383Y-97868563D01*
X149019380Y-97868561D01*
X149014480Y-97866277D01*
X149009265Y-97864879D01*
X149009258Y-97864877D01*
X148805823Y-97810366D01*
X148805812Y-97810364D01*
X148800591Y-97808965D01*
X148795199Y-97808493D01*
X148795192Y-97808492D01*
X148585395Y-97790138D01*
X148580000Y-97789666D01*
X148574605Y-97790138D01*
X148364807Y-97808492D01*
X148364798Y-97808493D01*
X148359409Y-97808965D01*
X148354189Y-97810363D01*
X148354176Y-97810366D01*
X148150741Y-97864877D01*
X148150730Y-97864880D01*
X148145520Y-97866277D01*
X148140623Y-97868560D01*
X148140616Y-97868563D01*
X147949747Y-97957566D01*
X147949741Y-97957569D01*
X147944833Y-97959858D01*
X147940399Y-97962962D01*
X147940395Y-97962965D01*
X147767879Y-98083762D01*
X147767869Y-98083769D01*
X147763445Y-98086868D01*
X147759619Y-98090693D01*
X147759613Y-98090699D01*
X147610699Y-98239613D01*
X147610693Y-98239619D01*
X147606868Y-98243445D01*
X147603769Y-98247869D01*
X147603762Y-98247879D01*
X147482965Y-98420395D01*
X147482962Y-98420399D01*
X147479858Y-98424833D01*
X147477570Y-98429738D01*
X147477568Y-98429743D01*
X147422382Y-98548092D01*
X147376625Y-98600268D01*
X147310000Y-98619687D01*
X147243375Y-98600268D01*
X147197618Y-98548092D01*
X147190447Y-98532714D01*
X147140142Y-98424833D01*
X147013132Y-98243445D01*
X146856555Y-98086868D01*
X146852124Y-98083765D01*
X146852120Y-98083762D01*
X146679604Y-97962965D01*
X146679605Y-97962965D01*
X146675167Y-97959858D01*
X146639036Y-97943010D01*
X146479383Y-97868563D01*
X146479380Y-97868561D01*
X146474480Y-97866277D01*
X146469265Y-97864879D01*
X146469258Y-97864877D01*
X146265823Y-97810366D01*
X146265812Y-97810364D01*
X146260591Y-97808965D01*
X146255199Y-97808493D01*
X146255192Y-97808492D01*
X146045395Y-97790138D01*
X146040000Y-97789666D01*
X146034605Y-97790138D01*
X145824807Y-97808492D01*
X145824798Y-97808493D01*
X145819409Y-97808965D01*
X145814189Y-97810363D01*
X145814176Y-97810366D01*
X145610741Y-97864877D01*
X145610730Y-97864880D01*
X145605520Y-97866277D01*
X145600623Y-97868560D01*
X145600616Y-97868563D01*
X145409747Y-97957566D01*
X145409741Y-97957569D01*
X145404833Y-97959858D01*
X145400399Y-97962962D01*
X145400395Y-97962965D01*
X145227879Y-98083762D01*
X145227869Y-98083769D01*
X145223445Y-98086868D01*
X145219619Y-98090693D01*
X145219613Y-98090699D01*
X145070699Y-98239613D01*
X145070693Y-98239619D01*
X145066868Y-98243445D01*
X145063769Y-98247869D01*
X145063762Y-98247879D01*
X144942965Y-98420395D01*
X144942962Y-98420399D01*
X144939858Y-98424833D01*
X144937570Y-98429738D01*
X144937568Y-98429743D01*
X144882382Y-98548092D01*
X144836625Y-98600268D01*
X144770000Y-98619687D01*
X144703375Y-98600268D01*
X144657618Y-98548092D01*
X144650447Y-98532714D01*
X144600142Y-98424833D01*
X144473132Y-98243445D01*
X144316555Y-98086868D01*
X144312124Y-98083765D01*
X144312120Y-98083762D01*
X144139604Y-97962965D01*
X144139605Y-97962965D01*
X144135167Y-97959858D01*
X144099036Y-97943010D01*
X143939383Y-97868563D01*
X143939380Y-97868561D01*
X143934480Y-97866277D01*
X143929265Y-97864879D01*
X143929258Y-97864877D01*
X143725823Y-97810366D01*
X143725812Y-97810364D01*
X143720591Y-97808965D01*
X143715199Y-97808493D01*
X143715192Y-97808492D01*
X143505395Y-97790138D01*
X143500000Y-97789666D01*
X143494605Y-97790138D01*
X143284807Y-97808492D01*
X143284798Y-97808493D01*
X143279409Y-97808965D01*
X143274189Y-97810363D01*
X143274176Y-97810366D01*
X143070741Y-97864877D01*
X143070730Y-97864880D01*
X143065520Y-97866277D01*
X143060623Y-97868560D01*
X143060616Y-97868563D01*
X142869747Y-97957566D01*
X142869741Y-97957569D01*
X142864833Y-97959858D01*
X142860399Y-97962962D01*
X142860395Y-97962965D01*
X142687879Y-98083762D01*
X142687869Y-98083769D01*
X142683445Y-98086868D01*
X142679619Y-98090693D01*
X142679613Y-98090699D01*
X142530699Y-98239613D01*
X142530693Y-98239619D01*
X142526868Y-98243445D01*
X142523769Y-98247869D01*
X142523762Y-98247879D01*
X142402965Y-98420395D01*
X142402962Y-98420399D01*
X142399858Y-98424833D01*
X142397570Y-98429738D01*
X142397568Y-98429743D01*
X142342382Y-98548092D01*
X142296625Y-98600268D01*
X142230000Y-98619687D01*
X142163375Y-98600268D01*
X142117618Y-98548092D01*
X142110447Y-98532714D01*
X142060142Y-98424833D01*
X141933132Y-98243445D01*
X141776555Y-98086868D01*
X141772124Y-98083765D01*
X141772120Y-98083762D01*
X141599604Y-97962965D01*
X141599605Y-97962965D01*
X141595167Y-97959858D01*
X141559036Y-97943010D01*
X141399383Y-97868563D01*
X141399380Y-97868561D01*
X141394480Y-97866277D01*
X141389265Y-97864879D01*
X141389258Y-97864877D01*
X141185823Y-97810366D01*
X141185812Y-97810364D01*
X141180591Y-97808965D01*
X141175199Y-97808493D01*
X141175192Y-97808492D01*
X140965395Y-97790138D01*
X140960000Y-97789666D01*
X140954605Y-97790138D01*
X140744807Y-97808492D01*
X140744798Y-97808493D01*
X140739409Y-97808965D01*
X140734189Y-97810363D01*
X140734176Y-97810366D01*
X140530741Y-97864877D01*
X140530730Y-97864880D01*
X140525520Y-97866277D01*
X140520623Y-97868560D01*
X140520616Y-97868563D01*
X140329747Y-97957566D01*
X140329741Y-97957569D01*
X140324833Y-97959858D01*
X140320399Y-97962962D01*
X140320395Y-97962965D01*
X140147879Y-98083762D01*
X140147869Y-98083769D01*
X140143445Y-98086868D01*
X140139619Y-98090693D01*
X140139613Y-98090699D01*
X139990699Y-98239613D01*
X139990693Y-98239619D01*
X139986868Y-98243445D01*
X139983769Y-98247869D01*
X139983762Y-98247879D01*
X139862965Y-98420395D01*
X139862962Y-98420399D01*
X139859858Y-98424833D01*
X139857570Y-98429738D01*
X139857568Y-98429743D01*
X139802106Y-98548683D01*
X139756349Y-98600859D01*
X139689724Y-98620278D01*
X139623099Y-98600858D01*
X139577342Y-98548683D01*
X139521996Y-98429994D01*
X139516598Y-98420644D01*
X139481683Y-98370780D01*
X139473572Y-98363347D01*
X139464293Y-98369258D01*
X138785095Y-99048457D01*
X138778431Y-99060000D01*
X138785095Y-99071542D01*
X139464290Y-99750737D01*
X139473573Y-99756651D01*
X139481682Y-99749220D01*
X139516605Y-99699345D01*
X139521995Y-99690009D01*
X139577342Y-99571317D01*
X139623099Y-99519141D01*
X139689724Y-99499721D01*
X139756349Y-99519140D01*
X139802105Y-99571315D01*
X139859858Y-99695167D01*
X139862965Y-99699604D01*
X139983762Y-99872120D01*
X139983765Y-99872124D01*
X139986868Y-99876555D01*
X140143445Y-100033132D01*
X140324833Y-100160142D01*
X140525520Y-100253723D01*
X140530740Y-100255121D01*
X140530741Y-100255122D01*
X140734176Y-100309633D01*
X140734178Y-100309633D01*
X140739409Y-100311035D01*
X140960000Y-100330334D01*
X141180591Y-100311035D01*
X141394480Y-100253723D01*
X141595167Y-100160142D01*
X141776555Y-100033132D01*
X141933132Y-99876555D01*
X142060142Y-99695167D01*
X142117618Y-99571907D01*
X142163375Y-99519732D01*
X142230000Y-99500312D01*
X142296625Y-99519732D01*
X142342381Y-99571907D01*
X142399858Y-99695167D01*
X142402965Y-99699604D01*
X142523762Y-99872120D01*
X142523765Y-99872124D01*
X142526868Y-99876555D01*
X142683445Y-100033132D01*
X142864833Y-100160142D01*
X143065520Y-100253723D01*
X143070740Y-100255121D01*
X143070741Y-100255122D01*
X143274176Y-100309633D01*
X143274178Y-100309633D01*
X143279409Y-100311035D01*
X143500000Y-100330334D01*
X143720591Y-100311035D01*
X143934480Y-100253723D01*
X144135167Y-100160142D01*
X144316555Y-100033132D01*
X144473132Y-99876555D01*
X144600142Y-99695167D01*
X144657618Y-99571907D01*
X144703375Y-99519732D01*
X144770000Y-99500312D01*
X144836625Y-99519732D01*
X144882381Y-99571907D01*
X144939858Y-99695167D01*
X144942965Y-99699604D01*
X145063762Y-99872120D01*
X145063765Y-99872124D01*
X145066868Y-99876555D01*
X145223445Y-100033132D01*
X145404833Y-100160142D01*
X145605520Y-100253723D01*
X145610740Y-100255121D01*
X145610741Y-100255122D01*
X145814176Y-100309633D01*
X145814178Y-100309633D01*
X145819409Y-100311035D01*
X146040000Y-100330334D01*
X146260591Y-100311035D01*
X146474480Y-100253723D01*
X146675167Y-100160142D01*
X146856555Y-100033132D01*
X147013132Y-99876555D01*
X147140142Y-99695167D01*
X147197618Y-99571907D01*
X147243375Y-99519732D01*
X147310000Y-99500312D01*
X147376625Y-99519732D01*
X147422381Y-99571907D01*
X147479858Y-99695167D01*
X147482965Y-99699604D01*
X147603762Y-99872120D01*
X147603765Y-99872124D01*
X147606868Y-99876555D01*
X147763445Y-100033132D01*
X147944833Y-100160142D01*
X148145520Y-100253723D01*
X148150740Y-100255121D01*
X148150741Y-100255122D01*
X148354176Y-100309633D01*
X148354178Y-100309633D01*
X148359409Y-100311035D01*
X148580000Y-100330334D01*
X148800591Y-100311035D01*
X149014480Y-100253723D01*
X149215167Y-100160142D01*
X149396555Y-100033132D01*
X149553132Y-99876555D01*
X149680142Y-99695167D01*
X149737618Y-99571907D01*
X149783375Y-99519732D01*
X149850000Y-99500312D01*
X149916625Y-99519732D01*
X149962381Y-99571907D01*
X150019858Y-99695167D01*
X150022965Y-99699604D01*
X150143762Y-99872120D01*
X150143765Y-99872124D01*
X150146868Y-99876555D01*
X150303445Y-100033132D01*
X150484833Y-100160142D01*
X150685520Y-100253723D01*
X150690740Y-100255121D01*
X150690741Y-100255122D01*
X150894176Y-100309633D01*
X150894178Y-100309633D01*
X150899409Y-100311035D01*
X151120000Y-100330334D01*
X151340591Y-100311035D01*
X151554480Y-100253723D01*
X151755167Y-100160142D01*
X151936555Y-100033132D01*
X152093132Y-99876555D01*
X152220142Y-99695167D01*
X152277618Y-99571907D01*
X152323375Y-99519732D01*
X152390000Y-99500312D01*
X152456625Y-99519732D01*
X152502381Y-99571907D01*
X152559858Y-99695167D01*
X152562965Y-99699604D01*
X152683762Y-99872120D01*
X152683765Y-99872124D01*
X152686868Y-99876555D01*
X152843445Y-100033132D01*
X153024833Y-100160142D01*
X153225520Y-100253723D01*
X153230740Y-100255121D01*
X153230741Y-100255122D01*
X153434176Y-100309633D01*
X153434178Y-100309633D01*
X153439409Y-100311035D01*
X153660000Y-100330334D01*
X153880591Y-100311035D01*
X154094480Y-100253723D01*
X154295167Y-100160142D01*
X154476555Y-100033132D01*
X154633132Y-99876555D01*
X154760142Y-99695167D01*
X154817618Y-99571907D01*
X154863375Y-99519732D01*
X154930000Y-99500312D01*
X154996625Y-99519732D01*
X155042381Y-99571907D01*
X155099858Y-99695167D01*
X155102965Y-99699604D01*
X155223762Y-99872120D01*
X155223765Y-99872124D01*
X155226868Y-99876555D01*
X155383445Y-100033132D01*
X155564833Y-100160142D01*
X155765520Y-100253723D01*
X155770740Y-100255121D01*
X155770741Y-100255122D01*
X155974176Y-100309633D01*
X155974178Y-100309633D01*
X155979409Y-100311035D01*
X156200000Y-100330334D01*
X156420591Y-100311035D01*
X156634480Y-100253723D01*
X156835167Y-100160142D01*
X157016555Y-100033132D01*
X157173132Y-99876555D01*
X157300142Y-99695167D01*
X157357618Y-99571907D01*
X157403375Y-99519732D01*
X157470000Y-99500312D01*
X157536625Y-99519732D01*
X157582381Y-99571907D01*
X157639858Y-99695167D01*
X157642965Y-99699604D01*
X157763762Y-99872120D01*
X157763765Y-99872124D01*
X157766868Y-99876555D01*
X157923445Y-100033132D01*
X158104833Y-100160142D01*
X158305520Y-100253723D01*
X158310740Y-100255121D01*
X158310741Y-100255122D01*
X158514176Y-100309633D01*
X158514178Y-100309633D01*
X158519409Y-100311035D01*
X158740000Y-100330334D01*
X158960591Y-100311035D01*
X159174480Y-100253723D01*
X159375167Y-100160142D01*
X159556555Y-100033132D01*
X159713132Y-99876555D01*
X159840142Y-99695167D01*
X159897618Y-99571907D01*
X159943375Y-99519732D01*
X160010000Y-99500312D01*
X160076625Y-99519732D01*
X160122381Y-99571907D01*
X160179858Y-99695167D01*
X160182965Y-99699604D01*
X160303762Y-99872120D01*
X160303765Y-99872124D01*
X160306868Y-99876555D01*
X160463445Y-100033132D01*
X160644833Y-100160142D01*
X160845520Y-100253723D01*
X160850740Y-100255121D01*
X160850741Y-100255122D01*
X161054176Y-100309633D01*
X161054178Y-100309633D01*
X161059409Y-100311035D01*
X161280000Y-100330334D01*
X161500591Y-100311035D01*
X161714480Y-100253723D01*
X161915167Y-100160142D01*
X162096555Y-100033132D01*
X162253132Y-99876555D01*
X162380142Y-99695167D01*
X162437618Y-99571907D01*
X162483375Y-99519732D01*
X162550000Y-99500312D01*
X162616625Y-99519732D01*
X162662381Y-99571907D01*
X162719858Y-99695167D01*
X162722965Y-99699604D01*
X162843762Y-99872120D01*
X162843765Y-99872124D01*
X162846868Y-99876555D01*
X163003445Y-100033132D01*
X163184833Y-100160142D01*
X163385520Y-100253723D01*
X163390740Y-100255121D01*
X163390741Y-100255122D01*
X163594176Y-100309633D01*
X163594178Y-100309633D01*
X163599409Y-100311035D01*
X163820000Y-100330334D01*
X164040591Y-100311035D01*
X164254480Y-100253723D01*
X164455167Y-100160142D01*
X164455239Y-100160091D01*
X164515507Y-100143947D01*
X164577504Y-100160562D01*
X164622888Y-100205949D01*
X164639500Y-100267947D01*
X164639500Y-101272521D01*
X164624214Y-101332163D01*
X164582125Y-101377101D01*
X164523610Y-101396255D01*
X164463096Y-101384903D01*
X164299383Y-101308563D01*
X164299380Y-101308561D01*
X164294480Y-101306277D01*
X164289265Y-101304879D01*
X164289258Y-101304877D01*
X164085823Y-101250366D01*
X164085812Y-101250364D01*
X164080591Y-101248965D01*
X164075199Y-101248493D01*
X164075192Y-101248492D01*
X163865395Y-101230138D01*
X163860000Y-101229666D01*
X163854605Y-101230138D01*
X163644807Y-101248492D01*
X163644798Y-101248493D01*
X163639409Y-101248965D01*
X163634189Y-101250363D01*
X163634176Y-101250366D01*
X163430741Y-101304877D01*
X163430730Y-101304880D01*
X163425520Y-101306277D01*
X163420623Y-101308560D01*
X163420616Y-101308563D01*
X163229747Y-101397566D01*
X163229741Y-101397569D01*
X163224833Y-101399858D01*
X163220399Y-101402962D01*
X163220395Y-101402965D01*
X163047879Y-101523762D01*
X163047869Y-101523769D01*
X163043445Y-101526868D01*
X163039619Y-101530693D01*
X163039613Y-101530699D01*
X162890699Y-101679613D01*
X162890693Y-101679619D01*
X162886868Y-101683445D01*
X162883769Y-101687869D01*
X162883762Y-101687879D01*
X162762965Y-101860395D01*
X162762962Y-101860399D01*
X162759858Y-101864833D01*
X162757570Y-101869738D01*
X162757568Y-101869743D01*
X162702382Y-101988092D01*
X162656625Y-102040268D01*
X162590000Y-102059687D01*
X162523375Y-102040268D01*
X162477618Y-101988092D01*
X162425500Y-101876324D01*
X162420142Y-101864833D01*
X162293132Y-101683445D01*
X162136555Y-101526868D01*
X162132124Y-101523765D01*
X162132120Y-101523762D01*
X161959604Y-101402965D01*
X161959605Y-101402965D01*
X161955167Y-101399858D01*
X161950252Y-101397566D01*
X161759383Y-101308563D01*
X161759380Y-101308561D01*
X161754480Y-101306277D01*
X161749265Y-101304879D01*
X161749258Y-101304877D01*
X161545823Y-101250366D01*
X161545812Y-101250364D01*
X161540591Y-101248965D01*
X161535199Y-101248493D01*
X161535192Y-101248492D01*
X161325395Y-101230138D01*
X161320000Y-101229666D01*
X161314605Y-101230138D01*
X161104807Y-101248492D01*
X161104798Y-101248493D01*
X161099409Y-101248965D01*
X161094189Y-101250363D01*
X161094176Y-101250366D01*
X160890741Y-101304877D01*
X160890730Y-101304880D01*
X160885520Y-101306277D01*
X160880623Y-101308560D01*
X160880616Y-101308563D01*
X160689747Y-101397566D01*
X160689741Y-101397569D01*
X160684833Y-101399858D01*
X160680399Y-101402962D01*
X160680395Y-101402965D01*
X160507879Y-101523762D01*
X160507869Y-101523769D01*
X160503445Y-101526868D01*
X160499619Y-101530693D01*
X160499613Y-101530699D01*
X160350699Y-101679613D01*
X160350693Y-101679619D01*
X160346868Y-101683445D01*
X160343769Y-101687869D01*
X160343762Y-101687879D01*
X160222965Y-101860395D01*
X160222962Y-101860399D01*
X160219858Y-101864833D01*
X160217570Y-101869738D01*
X160217568Y-101869743D01*
X160162382Y-101988092D01*
X160116625Y-102040268D01*
X160050000Y-102059687D01*
X159983375Y-102040268D01*
X159937618Y-101988092D01*
X159885500Y-101876324D01*
X159880142Y-101864833D01*
X159753132Y-101683445D01*
X159596555Y-101526868D01*
X159592124Y-101523765D01*
X159592120Y-101523762D01*
X159419604Y-101402965D01*
X159419605Y-101402965D01*
X159415167Y-101399858D01*
X159410252Y-101397566D01*
X159219383Y-101308563D01*
X159219380Y-101308561D01*
X159214480Y-101306277D01*
X159209265Y-101304879D01*
X159209258Y-101304877D01*
X159005823Y-101250366D01*
X159005812Y-101250364D01*
X159000591Y-101248965D01*
X158995199Y-101248493D01*
X158995192Y-101248492D01*
X158785395Y-101230138D01*
X158780000Y-101229666D01*
X158774605Y-101230138D01*
X158564807Y-101248492D01*
X158564798Y-101248493D01*
X158559409Y-101248965D01*
X158554189Y-101250363D01*
X158554176Y-101250366D01*
X158350741Y-101304877D01*
X158350730Y-101304880D01*
X158345520Y-101306277D01*
X158340623Y-101308560D01*
X158340616Y-101308563D01*
X158149747Y-101397566D01*
X158149741Y-101397569D01*
X158144833Y-101399858D01*
X158140399Y-101402962D01*
X158140395Y-101402965D01*
X157967879Y-101523762D01*
X157967869Y-101523769D01*
X157963445Y-101526868D01*
X157959619Y-101530693D01*
X157959613Y-101530699D01*
X157810699Y-101679613D01*
X157810693Y-101679619D01*
X157806868Y-101683445D01*
X157803769Y-101687869D01*
X157803762Y-101687879D01*
X157682965Y-101860395D01*
X157682962Y-101860399D01*
X157679858Y-101864833D01*
X157677570Y-101869738D01*
X157677568Y-101869743D01*
X157622382Y-101988092D01*
X157576625Y-102040268D01*
X157510000Y-102059687D01*
X157443375Y-102040268D01*
X157397618Y-101988092D01*
X157345500Y-101876324D01*
X157340142Y-101864833D01*
X157213132Y-101683445D01*
X157056555Y-101526868D01*
X157052124Y-101523765D01*
X157052120Y-101523762D01*
X156879604Y-101402965D01*
X156879605Y-101402965D01*
X156875167Y-101399858D01*
X156870252Y-101397566D01*
X156679383Y-101308563D01*
X156679380Y-101308561D01*
X156674480Y-101306277D01*
X156669265Y-101304879D01*
X156669258Y-101304877D01*
X156465823Y-101250366D01*
X156465812Y-101250364D01*
X156460591Y-101248965D01*
X156455199Y-101248493D01*
X156455192Y-101248492D01*
X156245395Y-101230138D01*
X156240000Y-101229666D01*
X156234605Y-101230138D01*
X156024807Y-101248492D01*
X156024798Y-101248493D01*
X156019409Y-101248965D01*
X156014189Y-101250363D01*
X156014176Y-101250366D01*
X155810741Y-101304877D01*
X155810730Y-101304880D01*
X155805520Y-101306277D01*
X155800623Y-101308560D01*
X155800616Y-101308563D01*
X155609747Y-101397566D01*
X155609741Y-101397569D01*
X155604833Y-101399858D01*
X155600399Y-101402962D01*
X155600395Y-101402965D01*
X155427879Y-101523762D01*
X155427869Y-101523769D01*
X155423445Y-101526868D01*
X155419619Y-101530693D01*
X155419613Y-101530699D01*
X155270699Y-101679613D01*
X155270693Y-101679619D01*
X155266868Y-101683445D01*
X155263769Y-101687869D01*
X155263762Y-101687879D01*
X155142965Y-101860395D01*
X155142962Y-101860399D01*
X155139858Y-101864833D01*
X155137570Y-101869738D01*
X155137568Y-101869743D01*
X155082382Y-101988092D01*
X155036625Y-102040268D01*
X154970000Y-102059687D01*
X154903375Y-102040268D01*
X154857618Y-101988092D01*
X154805500Y-101876324D01*
X154800142Y-101864833D01*
X154673132Y-101683445D01*
X154516555Y-101526868D01*
X154512124Y-101523765D01*
X154512120Y-101523762D01*
X154339604Y-101402965D01*
X154339605Y-101402965D01*
X154335167Y-101399858D01*
X154330252Y-101397566D01*
X154139383Y-101308563D01*
X154139380Y-101308561D01*
X154134480Y-101306277D01*
X154129265Y-101304879D01*
X154129258Y-101304877D01*
X153925823Y-101250366D01*
X153925812Y-101250364D01*
X153920591Y-101248965D01*
X153915199Y-101248493D01*
X153915192Y-101248492D01*
X153705395Y-101230138D01*
X153700000Y-101229666D01*
X153694605Y-101230138D01*
X153484807Y-101248492D01*
X153484798Y-101248493D01*
X153479409Y-101248965D01*
X153474189Y-101250363D01*
X153474176Y-101250366D01*
X153270741Y-101304877D01*
X153270730Y-101304880D01*
X153265520Y-101306277D01*
X153260623Y-101308560D01*
X153260616Y-101308563D01*
X153069747Y-101397566D01*
X153069741Y-101397569D01*
X153064833Y-101399858D01*
X153060399Y-101402962D01*
X153060395Y-101402965D01*
X152887879Y-101523762D01*
X152887869Y-101523769D01*
X152883445Y-101526868D01*
X152879619Y-101530693D01*
X152879613Y-101530699D01*
X152730699Y-101679613D01*
X152730693Y-101679619D01*
X152726868Y-101683445D01*
X152723769Y-101687869D01*
X152723762Y-101687879D01*
X152602965Y-101860395D01*
X152602962Y-101860399D01*
X152599858Y-101864833D01*
X152597570Y-101869738D01*
X152597568Y-101869743D01*
X152542382Y-101988092D01*
X152496625Y-102040268D01*
X152430000Y-102059687D01*
X152363375Y-102040268D01*
X152317618Y-101988092D01*
X152265500Y-101876324D01*
X152260142Y-101864833D01*
X152133132Y-101683445D01*
X151976555Y-101526868D01*
X151972124Y-101523765D01*
X151972120Y-101523762D01*
X151799604Y-101402965D01*
X151799605Y-101402965D01*
X151795167Y-101399858D01*
X151790252Y-101397566D01*
X151599383Y-101308563D01*
X151599380Y-101308561D01*
X151594480Y-101306277D01*
X151589265Y-101304879D01*
X151589258Y-101304877D01*
X151385823Y-101250366D01*
X151385812Y-101250364D01*
X151380591Y-101248965D01*
X151375199Y-101248493D01*
X151375192Y-101248492D01*
X151165395Y-101230138D01*
X151160000Y-101229666D01*
X151154605Y-101230138D01*
X150944807Y-101248492D01*
X150944798Y-101248493D01*
X150939409Y-101248965D01*
X150934189Y-101250363D01*
X150934176Y-101250366D01*
X150730741Y-101304877D01*
X150730730Y-101304880D01*
X150725520Y-101306277D01*
X150720623Y-101308560D01*
X150720616Y-101308563D01*
X150529747Y-101397566D01*
X150529741Y-101397569D01*
X150524833Y-101399858D01*
X150520399Y-101402962D01*
X150520395Y-101402965D01*
X150347879Y-101523762D01*
X150347869Y-101523769D01*
X150343445Y-101526868D01*
X150339619Y-101530693D01*
X150339613Y-101530699D01*
X150190699Y-101679613D01*
X150190693Y-101679619D01*
X150186868Y-101683445D01*
X150183769Y-101687869D01*
X150183762Y-101687879D01*
X150062965Y-101860395D01*
X150062962Y-101860399D01*
X150059858Y-101864833D01*
X150057570Y-101869738D01*
X150057568Y-101869743D01*
X150002382Y-101988092D01*
X149956625Y-102040268D01*
X149890000Y-102059687D01*
X149823375Y-102040268D01*
X149777618Y-101988092D01*
X149725500Y-101876324D01*
X149720142Y-101864833D01*
X149593132Y-101683445D01*
X149436555Y-101526868D01*
X149432124Y-101523765D01*
X149432120Y-101523762D01*
X149259604Y-101402965D01*
X149259605Y-101402965D01*
X149255167Y-101399858D01*
X149250252Y-101397566D01*
X149059383Y-101308563D01*
X149059380Y-101308561D01*
X149054480Y-101306277D01*
X149049265Y-101304879D01*
X149049258Y-101304877D01*
X148845823Y-101250366D01*
X148845812Y-101250364D01*
X148840591Y-101248965D01*
X148835199Y-101248493D01*
X148835192Y-101248492D01*
X148625395Y-101230138D01*
X148620000Y-101229666D01*
X148614605Y-101230138D01*
X148404807Y-101248492D01*
X148404798Y-101248493D01*
X148399409Y-101248965D01*
X148394189Y-101250363D01*
X148394176Y-101250366D01*
X148190741Y-101304877D01*
X148190730Y-101304880D01*
X148185520Y-101306277D01*
X148180623Y-101308560D01*
X148180616Y-101308563D01*
X147989747Y-101397566D01*
X147989741Y-101397569D01*
X147984833Y-101399858D01*
X147980399Y-101402962D01*
X147980395Y-101402965D01*
X147807879Y-101523762D01*
X147807869Y-101523769D01*
X147803445Y-101526868D01*
X147799619Y-101530693D01*
X147799613Y-101530699D01*
X147650699Y-101679613D01*
X147650693Y-101679619D01*
X147646868Y-101683445D01*
X147643769Y-101687869D01*
X147643762Y-101687879D01*
X147522965Y-101860395D01*
X147522962Y-101860399D01*
X147519858Y-101864833D01*
X147517570Y-101869738D01*
X147517568Y-101869743D01*
X147462382Y-101988092D01*
X147416625Y-102040268D01*
X147350000Y-102059687D01*
X147283375Y-102040268D01*
X147237618Y-101988092D01*
X147185500Y-101876324D01*
X147180142Y-101864833D01*
X147053132Y-101683445D01*
X146896555Y-101526868D01*
X146892124Y-101523765D01*
X146892120Y-101523762D01*
X146719604Y-101402965D01*
X146719605Y-101402965D01*
X146715167Y-101399858D01*
X146710252Y-101397566D01*
X146519383Y-101308563D01*
X146519380Y-101308561D01*
X146514480Y-101306277D01*
X146509265Y-101304879D01*
X146509258Y-101304877D01*
X146305823Y-101250366D01*
X146305812Y-101250364D01*
X146300591Y-101248965D01*
X146295199Y-101248493D01*
X146295192Y-101248492D01*
X146085395Y-101230138D01*
X146080000Y-101229666D01*
X146074605Y-101230138D01*
X145864807Y-101248492D01*
X145864798Y-101248493D01*
X145859409Y-101248965D01*
X145854189Y-101250363D01*
X145854176Y-101250366D01*
X145650741Y-101304877D01*
X145650730Y-101304880D01*
X145645520Y-101306277D01*
X145640623Y-101308560D01*
X145640616Y-101308563D01*
X145449747Y-101397566D01*
X145449741Y-101397569D01*
X145444833Y-101399858D01*
X145440399Y-101402962D01*
X145440395Y-101402965D01*
X145267879Y-101523762D01*
X145267869Y-101523769D01*
X145263445Y-101526868D01*
X145259619Y-101530693D01*
X145259613Y-101530699D01*
X145110699Y-101679613D01*
X145110693Y-101679619D01*
X145106868Y-101683445D01*
X145103769Y-101687869D01*
X145103762Y-101687879D01*
X144982965Y-101860395D01*
X144982962Y-101860399D01*
X144979858Y-101864833D01*
X144977570Y-101869738D01*
X144977568Y-101869743D01*
X144922382Y-101988092D01*
X144876625Y-102040268D01*
X144810000Y-102059687D01*
X144743375Y-102040268D01*
X144697618Y-101988092D01*
X144645500Y-101876324D01*
X144640142Y-101864833D01*
X144513132Y-101683445D01*
X144356555Y-101526868D01*
X144352124Y-101523765D01*
X144352120Y-101523762D01*
X144179604Y-101402965D01*
X144179605Y-101402965D01*
X144175167Y-101399858D01*
X144170252Y-101397566D01*
X143979383Y-101308563D01*
X143979380Y-101308561D01*
X143974480Y-101306277D01*
X143969265Y-101304879D01*
X143969258Y-101304877D01*
X143765823Y-101250366D01*
X143765812Y-101250364D01*
X143760591Y-101248965D01*
X143755199Y-101248493D01*
X143755192Y-101248492D01*
X143545395Y-101230138D01*
X143540000Y-101229666D01*
X143534605Y-101230138D01*
X143324807Y-101248492D01*
X143324798Y-101248493D01*
X143319409Y-101248965D01*
X143314189Y-101250363D01*
X143314176Y-101250366D01*
X143110741Y-101304877D01*
X143110730Y-101304880D01*
X143105520Y-101306277D01*
X143100623Y-101308560D01*
X143100616Y-101308563D01*
X142909747Y-101397566D01*
X142909741Y-101397569D01*
X142904833Y-101399858D01*
X142900399Y-101402962D01*
X142900395Y-101402965D01*
X142727879Y-101523762D01*
X142727869Y-101523769D01*
X142723445Y-101526868D01*
X142719619Y-101530693D01*
X142719613Y-101530699D01*
X142570699Y-101679613D01*
X142570693Y-101679619D01*
X142566868Y-101683445D01*
X142563769Y-101687869D01*
X142563762Y-101687879D01*
X142442965Y-101860395D01*
X142442962Y-101860399D01*
X142439858Y-101864833D01*
X142437570Y-101869738D01*
X142437568Y-101869743D01*
X142382382Y-101988092D01*
X142336625Y-102040268D01*
X142270000Y-102059687D01*
X142203375Y-102040268D01*
X142157618Y-101988092D01*
X142105500Y-101876324D01*
X142100142Y-101864833D01*
X141973132Y-101683445D01*
X141816555Y-101526868D01*
X141812124Y-101523765D01*
X141812120Y-101523762D01*
X141639604Y-101402965D01*
X141639605Y-101402965D01*
X141635167Y-101399858D01*
X141630252Y-101397566D01*
X141439383Y-101308563D01*
X141439380Y-101308561D01*
X141434480Y-101306277D01*
X141429265Y-101304879D01*
X141429258Y-101304877D01*
X141225823Y-101250366D01*
X141225812Y-101250364D01*
X141220591Y-101248965D01*
X141215199Y-101248493D01*
X141215192Y-101248492D01*
X141005395Y-101230138D01*
X141000000Y-101229666D01*
X140994605Y-101230138D01*
X140784807Y-101248492D01*
X140784798Y-101248493D01*
X140779409Y-101248965D01*
X140774189Y-101250363D01*
X140774176Y-101250366D01*
X140570741Y-101304877D01*
X140570730Y-101304880D01*
X140565520Y-101306277D01*
X140560623Y-101308560D01*
X140560616Y-101308563D01*
X140369747Y-101397566D01*
X140369741Y-101397569D01*
X140364833Y-101399858D01*
X140360399Y-101402962D01*
X140360395Y-101402965D01*
X140187879Y-101523762D01*
X140187869Y-101523769D01*
X140183445Y-101526868D01*
X140179619Y-101530693D01*
X140179613Y-101530699D01*
X140030699Y-101679613D01*
X140030693Y-101679619D01*
X140026868Y-101683445D01*
X140023769Y-101687869D01*
X140023762Y-101687879D01*
X139902965Y-101860395D01*
X139902962Y-101860399D01*
X139899858Y-101864833D01*
X139897570Y-101869738D01*
X139897568Y-101869743D01*
X139842106Y-101988683D01*
X139796349Y-102040859D01*
X139729724Y-102060278D01*
X139663099Y-102040858D01*
X139617342Y-101988683D01*
X139561996Y-101869994D01*
X139556598Y-101860644D01*
X139521683Y-101810780D01*
X139513572Y-101803347D01*
X139504293Y-101809258D01*
X138825095Y-102488457D01*
X138818431Y-102499999D01*
X138825095Y-102511542D01*
X139504290Y-103190737D01*
X139513573Y-103196651D01*
X139521682Y-103189220D01*
X139556605Y-103139345D01*
X139561995Y-103130009D01*
X139617342Y-103011317D01*
X139663099Y-102959141D01*
X139729724Y-102939721D01*
X139796349Y-102959140D01*
X139842105Y-103011315D01*
X139899858Y-103135167D01*
X139929856Y-103178009D01*
X140023762Y-103312120D01*
X140023765Y-103312124D01*
X140026868Y-103316555D01*
X140183445Y-103473132D01*
X140187877Y-103476235D01*
X140187879Y-103476237D01*
X140229822Y-103505606D01*
X140364833Y-103600142D01*
X140565520Y-103693723D01*
X140570740Y-103695121D01*
X140570741Y-103695122D01*
X140774176Y-103749633D01*
X140774178Y-103749633D01*
X140779409Y-103751035D01*
X141000000Y-103770334D01*
X141220591Y-103751035D01*
X141434480Y-103693723D01*
X141635167Y-103600142D01*
X141816555Y-103473132D01*
X141973132Y-103316555D01*
X142100142Y-103135167D01*
X142157618Y-103011907D01*
X142203375Y-102959732D01*
X142270000Y-102940312D01*
X142336625Y-102959732D01*
X142382381Y-103011907D01*
X142439858Y-103135167D01*
X142469856Y-103178009D01*
X142563762Y-103312120D01*
X142563765Y-103312124D01*
X142566868Y-103316555D01*
X142723445Y-103473132D01*
X142727877Y-103476235D01*
X142727879Y-103476237D01*
X142769822Y-103505606D01*
X142904833Y-103600142D01*
X143105520Y-103693723D01*
X143110740Y-103695121D01*
X143110741Y-103695122D01*
X143314176Y-103749633D01*
X143314178Y-103749633D01*
X143319409Y-103751035D01*
X143540000Y-103770334D01*
X143760591Y-103751035D01*
X143974480Y-103693723D01*
X144175167Y-103600142D01*
X144356555Y-103473132D01*
X144513132Y-103316555D01*
X144640142Y-103135167D01*
X144697618Y-103011907D01*
X144743375Y-102959732D01*
X144810000Y-102940312D01*
X144876625Y-102959732D01*
X144922381Y-103011907D01*
X144979858Y-103135167D01*
X145009856Y-103178009D01*
X145103762Y-103312120D01*
X145103765Y-103312124D01*
X145106868Y-103316555D01*
X145263445Y-103473132D01*
X145267877Y-103476235D01*
X145267879Y-103476237D01*
X145309822Y-103505606D01*
X145444833Y-103600142D01*
X145645520Y-103693723D01*
X145650740Y-103695121D01*
X145650741Y-103695122D01*
X145854176Y-103749633D01*
X145854178Y-103749633D01*
X145859409Y-103751035D01*
X146080000Y-103770334D01*
X146300591Y-103751035D01*
X146514480Y-103693723D01*
X146715167Y-103600142D01*
X146896555Y-103473132D01*
X147053132Y-103316555D01*
X147180142Y-103135167D01*
X147237618Y-103011907D01*
X147283375Y-102959732D01*
X147350000Y-102940312D01*
X147416625Y-102959732D01*
X147462381Y-103011907D01*
X147519858Y-103135167D01*
X147549856Y-103178009D01*
X147643762Y-103312120D01*
X147643765Y-103312124D01*
X147646868Y-103316555D01*
X147803445Y-103473132D01*
X147807877Y-103476235D01*
X147807879Y-103476237D01*
X147849822Y-103505606D01*
X147984833Y-103600142D01*
X148185520Y-103693723D01*
X148190740Y-103695121D01*
X148190741Y-103695122D01*
X148394176Y-103749633D01*
X148394178Y-103749633D01*
X148399409Y-103751035D01*
X148620000Y-103770334D01*
X148840591Y-103751035D01*
X149054480Y-103693723D01*
X149255167Y-103600142D01*
X149436555Y-103473132D01*
X149593132Y-103316555D01*
X149720142Y-103135167D01*
X149777618Y-103011907D01*
X149823375Y-102959732D01*
X149890000Y-102940312D01*
X149956625Y-102959732D01*
X150002381Y-103011907D01*
X150059858Y-103135167D01*
X150089856Y-103178009D01*
X150183762Y-103312120D01*
X150183765Y-103312124D01*
X150186868Y-103316555D01*
X150343445Y-103473132D01*
X150347877Y-103476235D01*
X150347879Y-103476237D01*
X150389822Y-103505606D01*
X150524833Y-103600142D01*
X150725520Y-103693723D01*
X150730740Y-103695121D01*
X150730741Y-103695122D01*
X150934176Y-103749633D01*
X150934178Y-103749633D01*
X150939409Y-103751035D01*
X151160000Y-103770334D01*
X151380591Y-103751035D01*
X151594480Y-103693723D01*
X151795167Y-103600142D01*
X151976555Y-103473132D01*
X152133132Y-103316555D01*
X152260142Y-103135167D01*
X152317618Y-103011907D01*
X152363375Y-102959732D01*
X152430000Y-102940312D01*
X152496625Y-102959732D01*
X152542381Y-103011907D01*
X152599858Y-103135167D01*
X152629856Y-103178009D01*
X152723762Y-103312120D01*
X152723765Y-103312124D01*
X152726868Y-103316555D01*
X152883445Y-103473132D01*
X152887877Y-103476235D01*
X152887879Y-103476237D01*
X152929822Y-103505606D01*
X153064833Y-103600142D01*
X153265520Y-103693723D01*
X153270740Y-103695121D01*
X153270741Y-103695122D01*
X153474176Y-103749633D01*
X153474178Y-103749633D01*
X153479409Y-103751035D01*
X153700000Y-103770334D01*
X153920591Y-103751035D01*
X154134480Y-103693723D01*
X154335167Y-103600142D01*
X154516555Y-103473132D01*
X154673132Y-103316555D01*
X154800142Y-103135167D01*
X154857618Y-103011907D01*
X154903375Y-102959732D01*
X154970000Y-102940312D01*
X155036625Y-102959732D01*
X155082381Y-103011907D01*
X155139858Y-103135167D01*
X155169856Y-103178009D01*
X155263762Y-103312120D01*
X155263765Y-103312124D01*
X155266868Y-103316555D01*
X155423445Y-103473132D01*
X155427877Y-103476235D01*
X155427879Y-103476237D01*
X155469822Y-103505606D01*
X155604833Y-103600142D01*
X155805520Y-103693723D01*
X155810740Y-103695121D01*
X155810741Y-103695122D01*
X156014176Y-103749633D01*
X156014178Y-103749633D01*
X156019409Y-103751035D01*
X156240000Y-103770334D01*
X156460591Y-103751035D01*
X156674480Y-103693723D01*
X156875167Y-103600142D01*
X157056555Y-103473132D01*
X157213132Y-103316555D01*
X157340142Y-103135167D01*
X157397618Y-103011907D01*
X157443375Y-102959732D01*
X157510000Y-102940312D01*
X157576625Y-102959732D01*
X157622381Y-103011907D01*
X157679858Y-103135167D01*
X157709856Y-103178009D01*
X157803762Y-103312120D01*
X157803765Y-103312124D01*
X157806868Y-103316555D01*
X157963445Y-103473132D01*
X157967877Y-103476235D01*
X157967879Y-103476237D01*
X158009822Y-103505606D01*
X158144833Y-103600142D01*
X158345520Y-103693723D01*
X158350740Y-103695121D01*
X158350741Y-103695122D01*
X158554176Y-103749633D01*
X158554178Y-103749633D01*
X158559409Y-103751035D01*
X158780000Y-103770334D01*
X159000591Y-103751035D01*
X159214480Y-103693723D01*
X159415167Y-103600142D01*
X159596555Y-103473132D01*
X159753132Y-103316555D01*
X159880142Y-103135167D01*
X159937618Y-103011907D01*
X159983375Y-102959732D01*
X160050000Y-102940312D01*
X160116625Y-102959732D01*
X160162381Y-103011907D01*
X160219858Y-103135167D01*
X160249856Y-103178009D01*
X160343762Y-103312120D01*
X160343765Y-103312124D01*
X160346868Y-103316555D01*
X160503445Y-103473132D01*
X160507877Y-103476235D01*
X160507879Y-103476237D01*
X160549822Y-103505606D01*
X160684833Y-103600142D01*
X160885520Y-103693723D01*
X160890740Y-103695121D01*
X160890741Y-103695122D01*
X161094176Y-103749633D01*
X161094178Y-103749633D01*
X161099409Y-103751035D01*
X161320000Y-103770334D01*
X161540591Y-103751035D01*
X161754480Y-103693723D01*
X161955167Y-103600142D01*
X162136555Y-103473132D01*
X162293132Y-103316555D01*
X162420142Y-103135167D01*
X162477618Y-103011907D01*
X162523375Y-102959732D01*
X162590000Y-102940312D01*
X162656625Y-102959732D01*
X162702381Y-103011907D01*
X162759858Y-103135167D01*
X162789856Y-103178009D01*
X162883762Y-103312120D01*
X162883765Y-103312124D01*
X162886868Y-103316555D01*
X163043445Y-103473132D01*
X163047877Y-103476235D01*
X163047879Y-103476237D01*
X163089822Y-103505606D01*
X163224833Y-103600142D01*
X163425520Y-103693723D01*
X163426107Y-103693880D01*
X163475531Y-103727694D01*
X163503361Y-103782613D01*
X163501345Y-103844149D01*
X163469980Y-103897129D01*
X153648929Y-113718181D01*
X153608701Y-113745061D01*
X153561248Y-113754500D01*
X135665226Y-113754500D01*
X135607969Y-113740489D01*
X135563651Y-113701623D01*
X135562791Y-113700395D01*
X135428495Y-113508599D01*
X135261401Y-113341505D01*
X135256968Y-113338401D01*
X135256961Y-113338395D01*
X135075842Y-113211575D01*
X135036976Y-113167257D01*
X135022965Y-113110000D01*
X135036976Y-113052743D01*
X135075842Y-113008425D01*
X135256961Y-112881604D01*
X135256961Y-112881603D01*
X135261401Y-112878495D01*
X135428495Y-112711401D01*
X135564035Y-112517830D01*
X135663903Y-112303663D01*
X135725063Y-112075408D01*
X135745659Y-111840000D01*
X135725063Y-111604592D01*
X135663903Y-111376337D01*
X135564035Y-111162171D01*
X135428495Y-110968599D01*
X135261401Y-110801505D01*
X135256968Y-110798401D01*
X135256961Y-110798395D01*
X135075842Y-110671575D01*
X135036976Y-110627257D01*
X135022965Y-110570000D01*
X135036976Y-110512743D01*
X135075842Y-110468425D01*
X135256961Y-110341604D01*
X135256961Y-110341603D01*
X135261401Y-110338495D01*
X135428495Y-110171401D01*
X135564035Y-109977830D01*
X135663903Y-109763663D01*
X135725063Y-109535408D01*
X135745659Y-109300000D01*
X135725063Y-109064592D01*
X135663903Y-108836337D01*
X135564035Y-108622171D01*
X135428495Y-108428599D01*
X135261401Y-108261505D01*
X135256970Y-108258402D01*
X135256966Y-108258399D01*
X135072259Y-108129066D01*
X135072257Y-108129064D01*
X135067830Y-108125965D01*
X135062933Y-108123681D01*
X135062927Y-108123678D01*
X134858572Y-108028386D01*
X134858570Y-108028385D01*
X134853663Y-108026097D01*
X134848438Y-108024697D01*
X134848430Y-108024694D01*
X134630634Y-107966337D01*
X134630630Y-107966336D01*
X134625408Y-107964937D01*
X134620020Y-107964465D01*
X134620017Y-107964465D01*
X134395395Y-107944813D01*
X134390000Y-107944341D01*
X134384605Y-107944813D01*
X134159982Y-107964465D01*
X134159977Y-107964465D01*
X134154592Y-107964937D01*
X134149371Y-107966335D01*
X134149365Y-107966337D01*
X133931569Y-108024694D01*
X133931557Y-108024698D01*
X133926337Y-108026097D01*
X133921432Y-108028383D01*
X133921427Y-108028386D01*
X133717081Y-108123675D01*
X133717077Y-108123677D01*
X133712171Y-108125965D01*
X133707738Y-108129068D01*
X133707731Y-108129073D01*
X133523034Y-108258399D01*
X133523029Y-108258402D01*
X133518599Y-108261505D01*
X133514775Y-108265328D01*
X133514769Y-108265334D01*
X133355334Y-108424769D01*
X133355328Y-108424775D01*
X133351505Y-108428599D01*
X133348402Y-108433029D01*
X133348399Y-108433034D01*
X133244357Y-108581623D01*
X133200039Y-108620489D01*
X133142782Y-108634500D01*
X132061462Y-108634500D01*
X132004205Y-108620489D01*
X131959887Y-108581624D01*
X131866237Y-108447879D01*
X131866235Y-108447877D01*
X131863132Y-108443445D01*
X131706555Y-108286868D01*
X131702124Y-108283765D01*
X131702120Y-108283762D01*
X131529604Y-108162965D01*
X131529605Y-108162965D01*
X131525167Y-108159858D01*
X131447572Y-108123675D01*
X131329383Y-108068563D01*
X131329380Y-108068561D01*
X131324480Y-108066277D01*
X131319265Y-108064879D01*
X131319258Y-108064877D01*
X131115823Y-108010366D01*
X131115812Y-108010364D01*
X131110591Y-108008965D01*
X131105199Y-108008493D01*
X131105192Y-108008492D01*
X130895395Y-107990138D01*
X130890000Y-107989666D01*
X130884605Y-107990138D01*
X130674807Y-108008492D01*
X130674798Y-108008493D01*
X130669409Y-108008965D01*
X130664189Y-108010363D01*
X130664176Y-108010366D01*
X130460741Y-108064877D01*
X130460730Y-108064880D01*
X130455520Y-108066277D01*
X130450623Y-108068560D01*
X130450616Y-108068563D01*
X130259747Y-108157566D01*
X130259741Y-108157569D01*
X130254833Y-108159858D01*
X130250399Y-108162962D01*
X130250395Y-108162965D01*
X130077879Y-108283762D01*
X130077869Y-108283769D01*
X130073445Y-108286868D01*
X130069619Y-108290693D01*
X130069613Y-108290699D01*
X129920699Y-108439613D01*
X129920693Y-108439619D01*
X129916868Y-108443445D01*
X129913769Y-108447869D01*
X129913762Y-108447879D01*
X129792965Y-108620395D01*
X129792962Y-108620399D01*
X129789858Y-108624833D01*
X129787569Y-108629741D01*
X129787566Y-108629747D01*
X129698563Y-108820616D01*
X129698560Y-108820623D01*
X129696277Y-108825520D01*
X129694880Y-108830730D01*
X129694877Y-108830741D01*
X129640366Y-109034176D01*
X129640363Y-109034189D01*
X129638965Y-109039409D01*
X129638493Y-109044798D01*
X129638492Y-109044807D01*
X129636290Y-109069982D01*
X129619666Y-109260000D01*
X129620138Y-109265395D01*
X129638492Y-109475192D01*
X129638493Y-109475199D01*
X129638965Y-109480591D01*
X129640364Y-109485812D01*
X129640366Y-109485823D01*
X129694877Y-109689258D01*
X129694879Y-109689265D01*
X129696277Y-109694480D01*
X129789858Y-109895167D01*
X129792965Y-109899604D01*
X129913762Y-110072120D01*
X129913765Y-110072124D01*
X129916868Y-110076555D01*
X130073445Y-110233132D01*
X130254833Y-110360142D01*
X130378092Y-110417618D01*
X130430268Y-110463375D01*
X130449687Y-110530000D01*
X130430268Y-110596625D01*
X130378092Y-110642382D01*
X130259743Y-110697568D01*
X130259738Y-110697570D01*
X130254833Y-110699858D01*
X130250399Y-110702962D01*
X130250395Y-110702965D01*
X130077879Y-110823762D01*
X130077869Y-110823769D01*
X130073445Y-110826868D01*
X130069619Y-110830693D01*
X130069613Y-110830699D01*
X129920699Y-110979613D01*
X129920693Y-110979619D01*
X129916868Y-110983445D01*
X129913769Y-110987869D01*
X129913762Y-110987879D01*
X129792965Y-111160395D01*
X129792962Y-111160399D01*
X129789858Y-111164833D01*
X129787569Y-111169741D01*
X129787566Y-111169747D01*
X129698563Y-111360616D01*
X129698560Y-111360623D01*
X129696277Y-111365520D01*
X129694880Y-111370730D01*
X129694877Y-111370741D01*
X129640366Y-111574176D01*
X129640363Y-111574189D01*
X129638965Y-111579409D01*
X129638493Y-111584798D01*
X129638492Y-111584807D01*
X129620232Y-111793524D01*
X129619666Y-111800000D01*
X129620138Y-111805395D01*
X129638492Y-112015192D01*
X129638493Y-112015199D01*
X129638965Y-112020591D01*
X129640364Y-112025812D01*
X129640366Y-112025823D01*
X129694877Y-112229258D01*
X129694879Y-112229265D01*
X129696277Y-112234480D01*
X129789858Y-112435167D01*
X129792965Y-112439604D01*
X129913762Y-112612120D01*
X129913765Y-112612124D01*
X129916868Y-112616555D01*
X130073445Y-112773132D01*
X130254833Y-112900142D01*
X130378092Y-112957618D01*
X130430268Y-113003375D01*
X130449687Y-113070000D01*
X130430268Y-113136625D01*
X130378092Y-113182382D01*
X130259743Y-113237568D01*
X130259738Y-113237570D01*
X130254833Y-113239858D01*
X130250399Y-113242962D01*
X130250395Y-113242965D01*
X130077879Y-113363762D01*
X130077869Y-113363769D01*
X130073445Y-113366868D01*
X130069619Y-113370693D01*
X130069613Y-113370699D01*
X129920699Y-113519613D01*
X129920693Y-113519619D01*
X129916868Y-113523445D01*
X129913769Y-113527869D01*
X129913762Y-113527879D01*
X129792965Y-113700395D01*
X129792962Y-113700399D01*
X129789858Y-113704833D01*
X129787569Y-113709741D01*
X129787566Y-113709747D01*
X129698563Y-113900616D01*
X129698560Y-113900623D01*
X129696277Y-113905520D01*
X129694880Y-113910730D01*
X129694877Y-113910741D01*
X129640366Y-114114176D01*
X129640363Y-114114189D01*
X129638965Y-114119409D01*
X129638493Y-114124798D01*
X129638492Y-114124807D01*
X129620232Y-114333524D01*
X129619666Y-114340000D01*
X129620138Y-114345395D01*
X129638492Y-114555192D01*
X129638493Y-114555199D01*
X129638965Y-114560591D01*
X129640364Y-114565812D01*
X129640366Y-114565823D01*
X129694877Y-114769258D01*
X129694879Y-114769265D01*
X129696277Y-114774480D01*
X129789858Y-114975167D01*
X129792965Y-114979604D01*
X129913762Y-115152120D01*
X129913765Y-115152124D01*
X129916868Y-115156555D01*
X130073445Y-115313132D01*
X130254833Y-115440142D01*
X130378092Y-115497618D01*
X130430268Y-115543375D01*
X130449687Y-115610000D01*
X130430268Y-115676625D01*
X130378092Y-115722382D01*
X130259743Y-115777568D01*
X130259738Y-115777570D01*
X130254833Y-115779858D01*
X130250399Y-115782962D01*
X130250395Y-115782965D01*
X130077879Y-115903762D01*
X130077869Y-115903769D01*
X130073445Y-115906868D01*
X130069619Y-115910693D01*
X130069613Y-115910699D01*
X129920699Y-116059613D01*
X129920693Y-116059619D01*
X129916868Y-116063445D01*
X129913769Y-116067869D01*
X129913762Y-116067879D01*
X129792965Y-116240395D01*
X129792962Y-116240399D01*
X129789858Y-116244833D01*
X129787569Y-116249741D01*
X129787566Y-116249747D01*
X129698563Y-116440616D01*
X129698560Y-116440623D01*
X129696277Y-116445520D01*
X129694880Y-116450730D01*
X129694877Y-116450741D01*
X129640366Y-116654176D01*
X129640363Y-116654189D01*
X129638965Y-116659409D01*
X129638493Y-116664798D01*
X129638492Y-116664807D01*
X129636290Y-116689980D01*
X129619666Y-116880000D01*
X129620138Y-116885395D01*
X129638492Y-117095192D01*
X129638493Y-117095199D01*
X129638965Y-117100591D01*
X129640364Y-117105812D01*
X129640366Y-117105823D01*
X129694877Y-117309258D01*
X129694879Y-117309265D01*
X129696277Y-117314480D01*
X129789858Y-117515167D01*
X129792965Y-117519604D01*
X129913762Y-117692120D01*
X129913765Y-117692124D01*
X129916868Y-117696555D01*
X130073445Y-117853132D01*
X130254833Y-117980142D01*
X130378092Y-118037618D01*
X130430268Y-118083375D01*
X130449687Y-118150000D01*
X130430268Y-118216625D01*
X130378092Y-118262382D01*
X130259743Y-118317568D01*
X130259738Y-118317570D01*
X130254833Y-118319858D01*
X130250399Y-118322962D01*
X130250395Y-118322965D01*
X130077879Y-118443762D01*
X130077869Y-118443769D01*
X130073445Y-118446868D01*
X130069619Y-118450693D01*
X130069613Y-118450699D01*
X129920699Y-118599613D01*
X129920693Y-118599619D01*
X129916868Y-118603445D01*
X129913769Y-118607869D01*
X129913762Y-118607879D01*
X129792965Y-118780395D01*
X129792962Y-118780399D01*
X129789858Y-118784833D01*
X129787569Y-118789741D01*
X129787566Y-118789747D01*
X129698563Y-118980616D01*
X129698560Y-118980623D01*
X129696277Y-118985520D01*
X129694880Y-118990730D01*
X129694877Y-118990741D01*
X129640366Y-119194176D01*
X129640363Y-119194189D01*
X129638965Y-119199409D01*
X129638493Y-119204798D01*
X129638492Y-119204807D01*
X129622604Y-119386420D01*
X129619666Y-119420000D01*
X129620138Y-119425395D01*
X129620138Y-119425402D01*
X129620182Y-119425905D01*
X129620138Y-119426183D01*
X129620138Y-119430807D01*
X129619405Y-119430807D01*
X129610792Y-119485159D01*
X129574683Y-119533071D01*
X129520309Y-119558423D01*
X129460397Y-119555281D01*
X129408972Y-119524381D01*
X128661819Y-118777228D01*
X128634939Y-118737000D01*
X128625500Y-118689547D01*
X128625500Y-104028751D01*
X128634939Y-103981298D01*
X128661819Y-103941070D01*
X129087831Y-103515058D01*
X129528095Y-103074793D01*
X129578486Y-103044215D01*
X129637306Y-103040360D01*
X129691260Y-103064100D01*
X129728155Y-103110069D01*
X129739858Y-103135167D01*
X129769856Y-103178009D01*
X129863762Y-103312120D01*
X129863765Y-103312124D01*
X129866868Y-103316555D01*
X130023445Y-103473132D01*
X130027877Y-103476235D01*
X130027879Y-103476237D01*
X130069822Y-103505606D01*
X130204833Y-103600142D01*
X130405520Y-103693723D01*
X130410740Y-103695121D01*
X130410741Y-103695122D01*
X130614176Y-103749633D01*
X130614178Y-103749633D01*
X130619409Y-103751035D01*
X130840000Y-103770334D01*
X131060591Y-103751035D01*
X131274480Y-103693723D01*
X131475167Y-103600142D01*
X131656555Y-103473132D01*
X131813132Y-103316555D01*
X131940142Y-103135167D01*
X131997618Y-103011907D01*
X132043375Y-102959732D01*
X132110000Y-102940312D01*
X132176625Y-102959732D01*
X132222381Y-103011907D01*
X132279858Y-103135167D01*
X132309856Y-103178009D01*
X132403762Y-103312120D01*
X132403765Y-103312124D01*
X132406868Y-103316555D01*
X132563445Y-103473132D01*
X132567877Y-103476235D01*
X132567879Y-103476237D01*
X132609822Y-103505606D01*
X132744833Y-103600142D01*
X132945520Y-103693723D01*
X132950740Y-103695121D01*
X132950741Y-103695122D01*
X133154176Y-103749633D01*
X133154178Y-103749633D01*
X133159409Y-103751035D01*
X133380000Y-103770334D01*
X133600591Y-103751035D01*
X133814480Y-103693723D01*
X134015167Y-103600142D01*
X134196555Y-103473132D01*
X134353132Y-103316555D01*
X134480142Y-103135167D01*
X134537618Y-103011907D01*
X134583375Y-102959732D01*
X134650000Y-102940312D01*
X134716625Y-102959732D01*
X134762381Y-103011907D01*
X134819858Y-103135167D01*
X134849856Y-103178009D01*
X134943762Y-103312120D01*
X134943765Y-103312124D01*
X134946868Y-103316555D01*
X135103445Y-103473132D01*
X135107877Y-103476235D01*
X135107879Y-103476237D01*
X135149822Y-103505606D01*
X135284833Y-103600142D01*
X135485520Y-103693723D01*
X135490740Y-103695121D01*
X135490741Y-103695122D01*
X135694176Y-103749633D01*
X135694178Y-103749633D01*
X135699409Y-103751035D01*
X135920000Y-103770334D01*
X136140591Y-103751035D01*
X136354480Y-103693723D01*
X136555167Y-103600142D01*
X136621675Y-103553572D01*
X137763347Y-103553572D01*
X137770780Y-103561683D01*
X137820644Y-103596598D01*
X137829994Y-103601996D01*
X138020782Y-103690962D01*
X138030924Y-103694654D01*
X138234269Y-103749139D01*
X138244886Y-103751011D01*
X138454605Y-103769360D01*
X138465395Y-103769360D01*
X138675113Y-103751011D01*
X138685730Y-103749139D01*
X138889075Y-103694654D01*
X138899217Y-103690962D01*
X139090013Y-103601993D01*
X139099345Y-103596605D01*
X139149220Y-103561682D01*
X139156651Y-103553573D01*
X139150737Y-103544290D01*
X138471542Y-102865095D01*
X138460000Y-102858431D01*
X138448457Y-102865095D01*
X137769258Y-103544293D01*
X137763347Y-103553572D01*
X136621675Y-103553572D01*
X136736555Y-103473132D01*
X136893132Y-103316555D01*
X137020142Y-103135167D01*
X137077895Y-103011312D01*
X137123649Y-102959141D01*
X137190274Y-102939721D01*
X137256900Y-102959140D01*
X137302657Y-103011316D01*
X137358003Y-103130005D01*
X137363401Y-103139355D01*
X137398314Y-103189217D01*
X137406427Y-103196651D01*
X137415705Y-103190740D01*
X138094904Y-102511542D01*
X138101568Y-102499999D01*
X138094904Y-102488457D01*
X137415705Y-101809258D01*
X137406426Y-101803347D01*
X137398315Y-101810780D01*
X137363399Y-101860647D01*
X137358004Y-101869992D01*
X137302657Y-101988683D01*
X137256900Y-102040859D01*
X137190274Y-102060278D01*
X137123649Y-102040858D01*
X137077893Y-101988682D01*
X137073387Y-101979019D01*
X137020142Y-101864833D01*
X136893132Y-101683445D01*
X136736555Y-101526868D01*
X136732124Y-101523765D01*
X136732120Y-101523762D01*
X136621673Y-101446426D01*
X137763347Y-101446426D01*
X137769258Y-101455705D01*
X138448457Y-102134904D01*
X138460000Y-102141568D01*
X138471542Y-102134904D01*
X139150740Y-101455705D01*
X139156651Y-101446427D01*
X139149217Y-101438314D01*
X139099355Y-101403401D01*
X139090005Y-101398003D01*
X138899217Y-101309037D01*
X138889075Y-101305345D01*
X138685730Y-101250860D01*
X138675113Y-101248988D01*
X138465395Y-101230640D01*
X138454605Y-101230640D01*
X138244886Y-101248988D01*
X138234269Y-101250860D01*
X138030924Y-101305345D01*
X138020782Y-101309037D01*
X137829992Y-101398004D01*
X137820647Y-101403399D01*
X137770780Y-101438315D01*
X137763347Y-101446426D01*
X136621673Y-101446426D01*
X136559604Y-101402965D01*
X136559605Y-101402965D01*
X136555167Y-101399858D01*
X136550252Y-101397566D01*
X136359383Y-101308563D01*
X136359380Y-101308561D01*
X136354480Y-101306277D01*
X136349265Y-101304879D01*
X136349258Y-101304877D01*
X136145823Y-101250366D01*
X136145812Y-101250364D01*
X136140591Y-101248965D01*
X136135199Y-101248493D01*
X136135192Y-101248492D01*
X135925395Y-101230138D01*
X135920000Y-101229666D01*
X135914605Y-101230138D01*
X135704807Y-101248492D01*
X135704798Y-101248493D01*
X135699409Y-101248965D01*
X135694189Y-101250363D01*
X135694176Y-101250366D01*
X135490741Y-101304877D01*
X135490730Y-101304880D01*
X135485520Y-101306277D01*
X135480623Y-101308560D01*
X135480616Y-101308563D01*
X135289747Y-101397566D01*
X135289741Y-101397569D01*
X135284833Y-101399858D01*
X135280399Y-101402962D01*
X135280395Y-101402965D01*
X135107879Y-101523762D01*
X135107869Y-101523769D01*
X135103445Y-101526868D01*
X135099619Y-101530693D01*
X135099613Y-101530699D01*
X134950699Y-101679613D01*
X134950693Y-101679619D01*
X134946868Y-101683445D01*
X134943769Y-101687869D01*
X134943762Y-101687879D01*
X134822965Y-101860395D01*
X134822962Y-101860399D01*
X134819858Y-101864833D01*
X134817570Y-101869738D01*
X134817568Y-101869743D01*
X134762382Y-101988092D01*
X134716625Y-102040268D01*
X134650000Y-102059687D01*
X134583375Y-102040268D01*
X134537618Y-101988092D01*
X134485500Y-101876324D01*
X134480142Y-101864833D01*
X134353132Y-101683445D01*
X134196555Y-101526868D01*
X134192124Y-101523765D01*
X134192120Y-101523762D01*
X134019604Y-101402965D01*
X134019605Y-101402965D01*
X134015167Y-101399858D01*
X134010252Y-101397566D01*
X133819383Y-101308563D01*
X133819380Y-101308561D01*
X133814480Y-101306277D01*
X133809265Y-101304879D01*
X133809258Y-101304877D01*
X133605823Y-101250366D01*
X133605812Y-101250364D01*
X133600591Y-101248965D01*
X133595199Y-101248493D01*
X133595192Y-101248492D01*
X133385395Y-101230138D01*
X133380000Y-101229666D01*
X133374605Y-101230138D01*
X133164807Y-101248492D01*
X133164798Y-101248493D01*
X133159409Y-101248965D01*
X133154189Y-101250363D01*
X133154176Y-101250366D01*
X132950741Y-101304877D01*
X132950730Y-101304880D01*
X132945520Y-101306277D01*
X132940623Y-101308560D01*
X132940616Y-101308563D01*
X132749747Y-101397566D01*
X132749741Y-101397569D01*
X132744833Y-101399858D01*
X132740399Y-101402962D01*
X132740395Y-101402965D01*
X132567879Y-101523762D01*
X132567869Y-101523769D01*
X132563445Y-101526868D01*
X132559619Y-101530693D01*
X132559613Y-101530699D01*
X132410699Y-101679613D01*
X132410693Y-101679619D01*
X132406868Y-101683445D01*
X132403769Y-101687869D01*
X132403762Y-101687879D01*
X132282965Y-101860395D01*
X132282962Y-101860399D01*
X132279858Y-101864833D01*
X132277570Y-101869738D01*
X132277568Y-101869743D01*
X132222382Y-101988092D01*
X132176625Y-102040268D01*
X132110000Y-102059687D01*
X132043375Y-102040268D01*
X131997618Y-101988092D01*
X131945500Y-101876324D01*
X131940142Y-101864833D01*
X131813132Y-101683445D01*
X131794819Y-101665132D01*
X131762725Y-101609545D01*
X131762725Y-101545357D01*
X131794819Y-101489770D01*
X132119811Y-101164778D01*
X132953755Y-100330833D01*
X133009341Y-100298741D01*
X133073528Y-100298741D01*
X133088920Y-100302865D01*
X133114176Y-100309633D01*
X133114178Y-100309633D01*
X133119409Y-100311035D01*
X133340000Y-100330334D01*
X133560591Y-100311035D01*
X133774480Y-100253723D01*
X133975167Y-100160142D01*
X134156555Y-100033132D01*
X134313132Y-99876555D01*
X134440142Y-99695167D01*
X134497618Y-99571907D01*
X134543375Y-99519732D01*
X134610000Y-99500312D01*
X134676625Y-99519732D01*
X134722381Y-99571907D01*
X134779858Y-99695167D01*
X134782965Y-99699604D01*
X134903762Y-99872120D01*
X134903765Y-99872124D01*
X134906868Y-99876555D01*
X135063445Y-100033132D01*
X135244833Y-100160142D01*
X135445520Y-100253723D01*
X135450740Y-100255121D01*
X135450741Y-100255122D01*
X135654176Y-100309633D01*
X135654178Y-100309633D01*
X135659409Y-100311035D01*
X135880000Y-100330334D01*
X136100591Y-100311035D01*
X136314480Y-100253723D01*
X136515167Y-100160142D01*
X136581675Y-100113572D01*
X137723347Y-100113572D01*
X137730780Y-100121683D01*
X137780644Y-100156598D01*
X137789994Y-100161996D01*
X137980782Y-100250962D01*
X137990924Y-100254654D01*
X138194269Y-100309139D01*
X138204886Y-100311011D01*
X138414605Y-100329360D01*
X138425395Y-100329360D01*
X138635113Y-100311011D01*
X138645730Y-100309139D01*
X138849075Y-100254654D01*
X138859217Y-100250962D01*
X139050013Y-100161993D01*
X139059345Y-100156605D01*
X139109220Y-100121682D01*
X139116651Y-100113573D01*
X139110737Y-100104290D01*
X138431542Y-99425095D01*
X138420000Y-99418431D01*
X138408457Y-99425095D01*
X137729258Y-100104293D01*
X137723347Y-100113572D01*
X136581675Y-100113572D01*
X136696555Y-100033132D01*
X136853132Y-99876555D01*
X136980142Y-99695167D01*
X137037895Y-99571312D01*
X137083649Y-99519141D01*
X137150274Y-99499721D01*
X137216900Y-99519140D01*
X137262657Y-99571316D01*
X137318003Y-99690005D01*
X137323401Y-99699355D01*
X137358314Y-99749217D01*
X137366427Y-99756651D01*
X137375705Y-99750740D01*
X138054904Y-99071542D01*
X138061568Y-99060000D01*
X138054904Y-99048457D01*
X137375705Y-98369258D01*
X137366426Y-98363347D01*
X137358315Y-98370780D01*
X137323399Y-98420647D01*
X137318004Y-98429992D01*
X137262657Y-98548683D01*
X137216900Y-98600859D01*
X137150274Y-98620278D01*
X137083649Y-98600858D01*
X137037893Y-98548682D01*
X137030447Y-98532714D01*
X136980142Y-98424833D01*
X136853132Y-98243445D01*
X136696555Y-98086868D01*
X136692124Y-98083765D01*
X136692120Y-98083762D01*
X136581673Y-98006426D01*
X137723347Y-98006426D01*
X137729258Y-98015705D01*
X138408457Y-98694904D01*
X138420000Y-98701568D01*
X138431542Y-98694904D01*
X139110740Y-98015705D01*
X139116651Y-98006427D01*
X139109217Y-97998314D01*
X139059355Y-97963401D01*
X139050005Y-97958003D01*
X138859217Y-97869037D01*
X138849075Y-97865345D01*
X138645730Y-97810860D01*
X138635113Y-97808988D01*
X138425395Y-97790640D01*
X138414605Y-97790640D01*
X138204886Y-97808988D01*
X138194269Y-97810860D01*
X137990924Y-97865345D01*
X137980782Y-97869037D01*
X137789992Y-97958004D01*
X137780647Y-97963399D01*
X137730780Y-97998315D01*
X137723347Y-98006426D01*
X136581673Y-98006426D01*
X136519604Y-97962965D01*
X136519605Y-97962965D01*
X136515167Y-97959858D01*
X136479036Y-97943010D01*
X136319383Y-97868563D01*
X136319380Y-97868561D01*
X136314480Y-97866277D01*
X136309265Y-97864879D01*
X136309258Y-97864877D01*
X136105823Y-97810366D01*
X136105812Y-97810364D01*
X136100591Y-97808965D01*
X136095199Y-97808493D01*
X136095192Y-97808492D01*
X135885395Y-97790138D01*
X135880000Y-97789666D01*
X135874605Y-97790138D01*
X135664807Y-97808492D01*
X135664798Y-97808493D01*
X135659409Y-97808965D01*
X135654189Y-97810363D01*
X135654176Y-97810366D01*
X135450741Y-97864877D01*
X135450730Y-97864880D01*
X135445520Y-97866277D01*
X135440623Y-97868560D01*
X135440616Y-97868563D01*
X135249747Y-97957566D01*
X135249741Y-97957569D01*
X135244833Y-97959858D01*
X135240399Y-97962962D01*
X135240395Y-97962965D01*
X135067879Y-98083762D01*
X135067869Y-98083769D01*
X135063445Y-98086868D01*
X135059619Y-98090693D01*
X135059613Y-98090699D01*
X134910699Y-98239613D01*
X134910693Y-98239619D01*
X134906868Y-98243445D01*
X134903769Y-98247869D01*
X134903762Y-98247879D01*
X134782965Y-98420395D01*
X134782962Y-98420399D01*
X134779858Y-98424833D01*
X134777570Y-98429738D01*
X134777568Y-98429743D01*
X134722382Y-98548092D01*
X134676625Y-98600268D01*
X134610000Y-98619687D01*
X134543375Y-98600268D01*
X134497618Y-98548092D01*
X134490447Y-98532714D01*
X134440142Y-98424833D01*
X134313132Y-98243445D01*
X134156555Y-98086868D01*
X134152124Y-98083765D01*
X134152120Y-98083762D01*
X133979604Y-97962965D01*
X133979605Y-97962965D01*
X133975167Y-97959858D01*
X133939036Y-97943010D01*
X133779383Y-97868563D01*
X133779380Y-97868561D01*
X133774480Y-97866277D01*
X133769265Y-97864879D01*
X133769258Y-97864877D01*
X133565823Y-97810366D01*
X133565812Y-97810364D01*
X133560591Y-97808965D01*
X133555199Y-97808493D01*
X133555192Y-97808492D01*
X133345395Y-97790138D01*
X133340000Y-97789666D01*
X133334605Y-97790138D01*
X133124807Y-97808492D01*
X133124798Y-97808493D01*
X133119409Y-97808965D01*
X133114189Y-97810363D01*
X133114176Y-97810366D01*
X132910741Y-97864877D01*
X132910730Y-97864880D01*
X132905520Y-97866277D01*
X132900623Y-97868560D01*
X132900616Y-97868563D01*
X132709747Y-97957566D01*
X132709741Y-97957569D01*
X132704833Y-97959858D01*
X132700399Y-97962962D01*
X132700395Y-97962965D01*
X132527879Y-98083762D01*
X132527869Y-98083769D01*
X132523445Y-98086868D01*
X132519619Y-98090693D01*
X132519613Y-98090699D01*
X132370699Y-98239613D01*
X132370693Y-98239619D01*
X132366868Y-98243445D01*
X132363769Y-98247869D01*
X132363762Y-98247879D01*
X132242965Y-98420395D01*
X132242962Y-98420399D01*
X132239858Y-98424833D01*
X132237570Y-98429738D01*
X132237568Y-98429743D01*
X132182382Y-98548092D01*
X132136625Y-98600268D01*
X132070000Y-98619687D01*
X132003375Y-98600268D01*
X131957618Y-98548092D01*
X131950447Y-98532714D01*
X131900142Y-98424833D01*
X131773132Y-98243445D01*
X131616555Y-98086868D01*
X131612124Y-98083765D01*
X131612120Y-98083762D01*
X131439604Y-97962965D01*
X131439605Y-97962965D01*
X131435167Y-97959858D01*
X131399036Y-97943010D01*
X131239383Y-97868563D01*
X131239380Y-97868561D01*
X131234480Y-97866277D01*
X131229265Y-97864879D01*
X131229258Y-97864877D01*
X131025823Y-97810366D01*
X131025812Y-97810364D01*
X131020591Y-97808965D01*
X131015199Y-97808493D01*
X131015192Y-97808492D01*
X130805395Y-97790138D01*
X130800000Y-97789666D01*
X130794605Y-97790138D01*
X130584807Y-97808492D01*
X130584798Y-97808493D01*
X130579409Y-97808965D01*
X130574189Y-97810363D01*
X130574176Y-97810366D01*
X130370741Y-97864877D01*
X130370730Y-97864880D01*
X130365520Y-97866277D01*
X130360623Y-97868560D01*
X130360616Y-97868563D01*
X130169747Y-97957566D01*
X130169741Y-97957569D01*
X130164833Y-97959858D01*
X130160399Y-97962962D01*
X130160395Y-97962965D01*
X129987879Y-98083762D01*
X129987869Y-98083769D01*
X129983445Y-98086868D01*
X129979619Y-98090693D01*
X129979613Y-98090699D01*
X129830699Y-98239613D01*
X129830693Y-98239619D01*
X129826868Y-98243445D01*
X129823769Y-98247869D01*
X129823762Y-98247879D01*
X129702965Y-98420395D01*
X129702962Y-98420399D01*
X129699858Y-98424833D01*
X129697569Y-98429741D01*
X129697566Y-98429747D01*
X129608563Y-98620616D01*
X129608560Y-98620623D01*
X129606277Y-98625520D01*
X129604880Y-98630730D01*
X129604877Y-98630741D01*
X129550366Y-98834176D01*
X129550363Y-98834189D01*
X129548965Y-98839409D01*
X129548493Y-98844798D01*
X129548492Y-98844807D01*
X129530676Y-99048457D01*
X129529666Y-99060000D01*
X129530138Y-99065395D01*
X129548492Y-99275192D01*
X129548493Y-99275199D01*
X129548965Y-99280591D01*
X129550364Y-99285812D01*
X129550366Y-99285823D01*
X129604877Y-99489258D01*
X129604879Y-99489265D01*
X129606277Y-99494480D01*
X129608561Y-99499380D01*
X129608563Y-99499383D01*
X129642106Y-99571316D01*
X129699858Y-99695167D01*
X129702965Y-99699604D01*
X129823762Y-99872120D01*
X129823765Y-99872124D01*
X129826868Y-99876555D01*
X129983445Y-100033132D01*
X130164833Y-100160142D01*
X130365520Y-100253723D01*
X130370740Y-100255121D01*
X130370741Y-100255122D01*
X130574176Y-100309633D01*
X130574178Y-100309633D01*
X130579409Y-100311035D01*
X130800000Y-100330334D01*
X130882604Y-100323107D01*
X130941861Y-100332492D01*
X130989777Y-100368599D01*
X131015133Y-100422974D01*
X131011993Y-100482889D01*
X130981093Y-100534315D01*
X130852225Y-100663183D01*
X130812000Y-100690061D01*
X130764547Y-100699500D01*
X130471074Y-100699500D01*
X130460018Y-100698978D01*
X130452632Y-100697327D01*
X130444844Y-100697571D01*
X130444837Y-100697571D01*
X130385426Y-100699439D01*
X130381531Y-100699500D01*
X130353949Y-100699500D01*
X130350104Y-100699985D01*
X130350079Y-100699987D01*
X130349952Y-100700004D01*
X130338333Y-100700918D01*
X130302471Y-100702045D01*
X130302464Y-100702046D01*
X130294672Y-100702291D01*
X130287187Y-100704465D01*
X130287171Y-100704468D01*
X130275425Y-100707881D01*
X130256382Y-100711825D01*
X130244248Y-100713358D01*
X130244247Y-100713358D01*
X130236507Y-100714336D01*
X130229257Y-100717205D01*
X130229250Y-100717208D01*
X130195897Y-100730413D01*
X130184853Y-100734194D01*
X130150400Y-100744204D01*
X130150389Y-100744208D01*
X130142909Y-100746382D01*
X130136197Y-100750351D01*
X130136195Y-100750352D01*
X130125663Y-100756580D01*
X130108203Y-100765134D01*
X130096818Y-100769642D01*
X130096812Y-100769644D01*
X130089567Y-100772514D01*
X130083262Y-100777094D01*
X130083254Y-100777099D01*
X130054231Y-100798185D01*
X130044473Y-100804595D01*
X130013595Y-100822857D01*
X130013589Y-100822861D01*
X130006879Y-100826830D01*
X130001366Y-100832341D01*
X130001359Y-100832348D01*
X129992709Y-100840998D01*
X129977926Y-100853624D01*
X129968025Y-100860817D01*
X129968015Y-100860826D01*
X129961712Y-100865406D01*
X129956743Y-100871411D01*
X129956740Y-100871415D01*
X129933871Y-100899059D01*
X129926010Y-100907697D01*
X127612696Y-103221010D01*
X127604511Y-103228458D01*
X127598123Y-103232513D01*
X127592788Y-103238193D01*
X127592783Y-103238198D01*
X127552096Y-103281524D01*
X127549392Y-103284315D01*
X127532628Y-103301079D01*
X127532621Y-103301086D01*
X127529880Y-103303828D01*
X127527500Y-103306895D01*
X127527489Y-103306908D01*
X127527400Y-103307024D01*
X127519842Y-103315869D01*
X127495280Y-103342026D01*
X127495273Y-103342035D01*
X127489938Y-103347717D01*
X127486182Y-103354548D01*
X127486179Y-103354553D01*
X127480285Y-103365274D01*
X127469609Y-103381526D01*
X127462109Y-103391195D01*
X127462101Y-103391206D01*
X127457327Y-103397363D01*
X127454234Y-103404507D01*
X127454229Y-103404518D01*
X127439974Y-103437459D01*
X127434838Y-103447942D01*
X127417560Y-103479372D01*
X127413803Y-103486207D01*
X127411864Y-103493755D01*
X127411863Y-103493760D01*
X127408822Y-103505606D01*
X127402521Y-103524010D01*
X127397658Y-103535247D01*
X127397656Y-103535251D01*
X127394562Y-103542403D01*
X127393342Y-103550102D01*
X127393342Y-103550104D01*
X127387729Y-103585540D01*
X127385361Y-103596975D01*
X127376438Y-103631727D01*
X127376436Y-103631735D01*
X127374500Y-103639280D01*
X127374500Y-103647076D01*
X127374500Y-103659316D01*
X127372974Y-103678701D01*
X127369840Y-103698495D01*
X119310000Y-103698495D01*
X119310000Y-79549578D01*
X139694500Y-79549578D01*
X139694501Y-79552872D01*
X139694853Y-79556150D01*
X139694854Y-79556161D01*
X139700079Y-79604768D01*
X139700080Y-79604773D01*
X139700909Y-79612483D01*
X139703619Y-79619749D01*
X139703620Y-79619753D01*
X139737019Y-79709300D01*
X139751204Y-79747331D01*
X139837454Y-79862546D01*
X139952669Y-79948796D01*
X140087517Y-79999091D01*
X140147127Y-80005500D01*
X141772872Y-80005499D01*
X141832483Y-79999091D01*
X141967331Y-79948796D01*
X142082546Y-79862546D01*
X142168796Y-79747331D01*
X142219091Y-79612483D01*
X142225500Y-79552873D01*
X142225499Y-79519435D01*
X142241045Y-79459321D01*
X142283787Y-79414278D01*
X142343008Y-79395605D01*
X142403856Y-79407984D01*
X142451074Y-79448311D01*
X142523762Y-79552120D01*
X142523765Y-79552124D01*
X142526868Y-79556555D01*
X142683445Y-79713132D01*
X142864833Y-79840142D01*
X143065520Y-79933723D01*
X143070740Y-79935121D01*
X143070741Y-79935122D01*
X143274176Y-79989633D01*
X143274178Y-79989633D01*
X143279409Y-79991035D01*
X143500000Y-80010334D01*
X143720591Y-79991035D01*
X143934480Y-79933723D01*
X144135167Y-79840142D01*
X144316555Y-79713132D01*
X144473132Y-79556555D01*
X144600142Y-79375167D01*
X144657618Y-79251907D01*
X144703375Y-79199732D01*
X144770000Y-79180312D01*
X144836625Y-79199732D01*
X144882381Y-79251907D01*
X144939858Y-79375167D01*
X144942965Y-79379604D01*
X145063762Y-79552120D01*
X145063765Y-79552124D01*
X145066868Y-79556555D01*
X145223445Y-79713132D01*
X145404833Y-79840142D01*
X145605520Y-79933723D01*
X145610740Y-79935121D01*
X145610741Y-79935122D01*
X145814176Y-79989633D01*
X145814178Y-79989633D01*
X145819409Y-79991035D01*
X146040000Y-80010334D01*
X146260591Y-79991035D01*
X146474480Y-79933723D01*
X146675167Y-79840142D01*
X146856555Y-79713132D01*
X147013132Y-79556555D01*
X147140142Y-79375167D01*
X147197618Y-79251907D01*
X147243375Y-79199732D01*
X147310000Y-79180312D01*
X147376625Y-79199732D01*
X147422381Y-79251907D01*
X147479858Y-79375167D01*
X147482965Y-79379604D01*
X147603762Y-79552120D01*
X147603765Y-79552124D01*
X147606868Y-79556555D01*
X147763445Y-79713132D01*
X147944833Y-79840142D01*
X148145520Y-79933723D01*
X148150740Y-79935121D01*
X148150741Y-79935122D01*
X148354176Y-79989633D01*
X148354178Y-79989633D01*
X148359409Y-79991035D01*
X148580000Y-80010334D01*
X148800591Y-79991035D01*
X149014480Y-79933723D01*
X149215167Y-79840142D01*
X149396555Y-79713132D01*
X149553132Y-79556555D01*
X149680142Y-79375167D01*
X149737618Y-79251907D01*
X149783375Y-79199732D01*
X149850000Y-79180312D01*
X149916625Y-79199732D01*
X149962381Y-79251907D01*
X150019858Y-79375167D01*
X150022965Y-79379604D01*
X150143762Y-79552120D01*
X150143765Y-79552124D01*
X150146868Y-79556555D01*
X150303445Y-79713132D01*
X150484833Y-79840142D01*
X150685520Y-79933723D01*
X150690740Y-79935121D01*
X150690741Y-79935122D01*
X150894176Y-79989633D01*
X150894178Y-79989633D01*
X150899409Y-79991035D01*
X151120000Y-80010334D01*
X151340591Y-79991035D01*
X151554480Y-79933723D01*
X151755167Y-79840142D01*
X151936555Y-79713132D01*
X152093132Y-79556555D01*
X152220142Y-79375167D01*
X152277618Y-79251907D01*
X152323375Y-79199732D01*
X152390000Y-79180312D01*
X152456625Y-79199732D01*
X152502381Y-79251907D01*
X152559858Y-79375167D01*
X152562965Y-79379604D01*
X152683762Y-79552120D01*
X152683765Y-79552124D01*
X152686868Y-79556555D01*
X152843445Y-79713132D01*
X153024833Y-79840142D01*
X153225520Y-79933723D01*
X153230740Y-79935121D01*
X153230741Y-79935122D01*
X153434176Y-79989633D01*
X153434178Y-79989633D01*
X153439409Y-79991035D01*
X153660000Y-80010334D01*
X153880591Y-79991035D01*
X154094480Y-79933723D01*
X154295167Y-79840142D01*
X154476555Y-79713132D01*
X154633132Y-79556555D01*
X154760142Y-79375167D01*
X154817618Y-79251907D01*
X154863375Y-79199732D01*
X154930000Y-79180312D01*
X154996625Y-79199732D01*
X155042381Y-79251907D01*
X155099858Y-79375167D01*
X155102965Y-79379604D01*
X155223762Y-79552120D01*
X155223765Y-79552124D01*
X155226868Y-79556555D01*
X155383445Y-79713132D01*
X155564833Y-79840142D01*
X155765520Y-79933723D01*
X155770740Y-79935121D01*
X155770741Y-79935122D01*
X155974176Y-79989633D01*
X155974178Y-79989633D01*
X155979409Y-79991035D01*
X156200000Y-80010334D01*
X156420591Y-79991035D01*
X156634480Y-79933723D01*
X156835167Y-79840142D01*
X157016555Y-79713132D01*
X157173132Y-79556555D01*
X157300142Y-79375167D01*
X157357618Y-79251907D01*
X157403375Y-79199732D01*
X157470000Y-79180312D01*
X157536625Y-79199732D01*
X157582381Y-79251907D01*
X157639858Y-79375167D01*
X157642965Y-79379604D01*
X157763762Y-79552120D01*
X157763765Y-79552124D01*
X157766868Y-79556555D01*
X157923445Y-79713132D01*
X158104833Y-79840142D01*
X158305520Y-79933723D01*
X158310740Y-79935121D01*
X158310741Y-79935122D01*
X158514176Y-79989633D01*
X158514178Y-79989633D01*
X158519409Y-79991035D01*
X158740000Y-80010334D01*
X158960591Y-79991035D01*
X159174480Y-79933723D01*
X159375167Y-79840142D01*
X159556555Y-79713132D01*
X159713132Y-79556555D01*
X159840142Y-79375167D01*
X159897618Y-79251907D01*
X159943375Y-79199732D01*
X160010000Y-79180312D01*
X160076625Y-79199732D01*
X160122381Y-79251907D01*
X160179858Y-79375167D01*
X160182965Y-79379604D01*
X160303762Y-79552120D01*
X160303765Y-79552124D01*
X160306868Y-79556555D01*
X160463445Y-79713132D01*
X160644833Y-79840142D01*
X160845520Y-79933723D01*
X160850740Y-79935121D01*
X160850741Y-79935122D01*
X161054176Y-79989633D01*
X161054178Y-79989633D01*
X161059409Y-79991035D01*
X161280000Y-80010334D01*
X161500591Y-79991035D01*
X161714480Y-79933723D01*
X161915167Y-79840142D01*
X162096555Y-79713132D01*
X162253132Y-79556555D01*
X162380142Y-79375167D01*
X162437618Y-79251907D01*
X162483375Y-79199732D01*
X162550000Y-79180312D01*
X162616625Y-79199732D01*
X162662381Y-79251907D01*
X162719858Y-79375167D01*
X162722965Y-79379604D01*
X162843762Y-79552120D01*
X162843765Y-79552124D01*
X162846868Y-79556555D01*
X163003445Y-79713132D01*
X163184833Y-79840142D01*
X163385520Y-79933723D01*
X163390740Y-79935121D01*
X163390741Y-79935122D01*
X163594176Y-79989633D01*
X163594178Y-79989633D01*
X163599409Y-79991035D01*
X163820000Y-80010334D01*
X164040591Y-79991035D01*
X164254480Y-79933723D01*
X164455167Y-79840142D01*
X164636555Y-79713132D01*
X164793132Y-79556555D01*
X164920142Y-79375167D01*
X164977618Y-79251907D01*
X165023375Y-79199732D01*
X165090000Y-79180312D01*
X165156625Y-79199732D01*
X165202381Y-79251907D01*
X165259858Y-79375167D01*
X165262965Y-79379604D01*
X165383762Y-79552120D01*
X165383765Y-79552124D01*
X165386868Y-79556555D01*
X165543445Y-79713132D01*
X165724833Y-79840142D01*
X165925520Y-79933723D01*
X165930740Y-79935121D01*
X165930741Y-79935122D01*
X166134176Y-79989633D01*
X166134178Y-79989633D01*
X166139409Y-79991035D01*
X166360000Y-80010334D01*
X166580591Y-79991035D01*
X166794480Y-79933723D01*
X166995167Y-79840142D01*
X167176555Y-79713132D01*
X167333132Y-79556555D01*
X167460142Y-79375167D01*
X167517618Y-79251907D01*
X167563375Y-79199732D01*
X167630000Y-79180312D01*
X167696625Y-79199732D01*
X167742381Y-79251907D01*
X167799858Y-79375167D01*
X167802965Y-79379604D01*
X167923762Y-79552120D01*
X167923765Y-79552124D01*
X167926868Y-79556555D01*
X168083445Y-79713132D01*
X168264833Y-79840142D01*
X168465520Y-79933723D01*
X168470740Y-79935121D01*
X168470741Y-79935122D01*
X168674176Y-79989633D01*
X168674178Y-79989633D01*
X168679409Y-79991035D01*
X168900000Y-80010334D01*
X169120591Y-79991035D01*
X169334480Y-79933723D01*
X169535167Y-79840142D01*
X169716555Y-79713132D01*
X169873132Y-79556555D01*
X170000142Y-79375167D01*
X170093723Y-79174480D01*
X170151035Y-78960591D01*
X170170334Y-78740000D01*
X170151035Y-78519409D01*
X170093723Y-78305520D01*
X170000142Y-78104833D01*
X169899124Y-77960565D01*
X169876237Y-77927879D01*
X169876235Y-77927877D01*
X169873132Y-77923445D01*
X169716555Y-77766868D01*
X169712124Y-77763765D01*
X169712120Y-77763762D01*
X169539604Y-77642965D01*
X169539605Y-77642965D01*
X169535167Y-77639858D01*
X169475727Y-77612141D01*
X169339383Y-77548563D01*
X169339380Y-77548561D01*
X169334480Y-77546277D01*
X169329265Y-77544879D01*
X169329258Y-77544877D01*
X169125823Y-77490366D01*
X169125812Y-77490364D01*
X169120591Y-77488965D01*
X169115199Y-77488493D01*
X169115192Y-77488492D01*
X168905395Y-77470138D01*
X168900000Y-77469666D01*
X168894605Y-77470138D01*
X168684807Y-77488492D01*
X168684798Y-77488493D01*
X168679409Y-77488965D01*
X168674189Y-77490363D01*
X168674176Y-77490366D01*
X168470741Y-77544877D01*
X168470730Y-77544880D01*
X168465520Y-77546277D01*
X168460623Y-77548560D01*
X168460616Y-77548563D01*
X168269747Y-77637566D01*
X168269741Y-77637569D01*
X168264833Y-77639858D01*
X168260399Y-77642962D01*
X168260395Y-77642965D01*
X168087879Y-77763762D01*
X168087869Y-77763769D01*
X168083445Y-77766868D01*
X168079619Y-77770693D01*
X168079613Y-77770699D01*
X167930699Y-77919613D01*
X167930693Y-77919619D01*
X167926868Y-77923445D01*
X167923769Y-77927869D01*
X167923762Y-77927879D01*
X167802965Y-78100395D01*
X167802962Y-78100399D01*
X167799858Y-78104833D01*
X167797570Y-78109738D01*
X167797568Y-78109743D01*
X167742382Y-78228092D01*
X167696625Y-78280268D01*
X167630000Y-78299687D01*
X167563375Y-78280268D01*
X167517618Y-78228092D01*
X167462433Y-78109747D01*
X167460142Y-78104833D01*
X167359124Y-77960565D01*
X167336237Y-77927879D01*
X167336235Y-77927877D01*
X167333132Y-77923445D01*
X167176555Y-77766868D01*
X167172124Y-77763765D01*
X167172120Y-77763762D01*
X166999604Y-77642965D01*
X166999605Y-77642965D01*
X166995167Y-77639858D01*
X166935727Y-77612141D01*
X166799383Y-77548563D01*
X166799380Y-77548561D01*
X166794480Y-77546277D01*
X166789265Y-77544879D01*
X166789258Y-77544877D01*
X166585823Y-77490366D01*
X166585812Y-77490364D01*
X166580591Y-77488965D01*
X166575199Y-77488493D01*
X166575192Y-77488492D01*
X166365395Y-77470138D01*
X166360000Y-77469666D01*
X166354605Y-77470138D01*
X166144807Y-77488492D01*
X166144798Y-77488493D01*
X166139409Y-77488965D01*
X166134189Y-77490363D01*
X166134176Y-77490366D01*
X165930741Y-77544877D01*
X165930730Y-77544880D01*
X165925520Y-77546277D01*
X165920623Y-77548560D01*
X165920616Y-77548563D01*
X165729747Y-77637566D01*
X165729741Y-77637569D01*
X165724833Y-77639858D01*
X165720399Y-77642962D01*
X165720395Y-77642965D01*
X165547879Y-77763762D01*
X165547869Y-77763769D01*
X165543445Y-77766868D01*
X165539619Y-77770693D01*
X165539613Y-77770699D01*
X165390699Y-77919613D01*
X165390693Y-77919619D01*
X165386868Y-77923445D01*
X165383769Y-77927869D01*
X165383762Y-77927879D01*
X165262965Y-78100395D01*
X165262962Y-78100399D01*
X165259858Y-78104833D01*
X165257570Y-78109738D01*
X165257568Y-78109743D01*
X165202382Y-78228092D01*
X165156625Y-78280268D01*
X165090000Y-78299687D01*
X165023375Y-78280268D01*
X164977618Y-78228092D01*
X164922433Y-78109747D01*
X164920142Y-78104833D01*
X164819124Y-77960565D01*
X164796237Y-77927879D01*
X164796235Y-77927877D01*
X164793132Y-77923445D01*
X164636555Y-77766868D01*
X164632124Y-77763765D01*
X164632120Y-77763762D01*
X164459604Y-77642965D01*
X164459605Y-77642965D01*
X164455167Y-77639858D01*
X164395727Y-77612141D01*
X164259383Y-77548563D01*
X164259380Y-77548561D01*
X164254480Y-77546277D01*
X164249265Y-77544879D01*
X164249258Y-77544877D01*
X164045823Y-77490366D01*
X164045812Y-77490364D01*
X164040591Y-77488965D01*
X164035199Y-77488493D01*
X164035192Y-77488492D01*
X163825395Y-77470138D01*
X163820000Y-77469666D01*
X163814605Y-77470138D01*
X163604807Y-77488492D01*
X163604798Y-77488493D01*
X163599409Y-77488965D01*
X163594189Y-77490363D01*
X163594176Y-77490366D01*
X163390741Y-77544877D01*
X163390730Y-77544880D01*
X163385520Y-77546277D01*
X163380623Y-77548560D01*
X163380616Y-77548563D01*
X163189747Y-77637566D01*
X163189741Y-77637569D01*
X163184833Y-77639858D01*
X163180399Y-77642962D01*
X163180395Y-77642965D01*
X163007879Y-77763762D01*
X163007869Y-77763769D01*
X163003445Y-77766868D01*
X162999619Y-77770693D01*
X162999613Y-77770699D01*
X162850699Y-77919613D01*
X162850693Y-77919619D01*
X162846868Y-77923445D01*
X162843769Y-77927869D01*
X162843762Y-77927879D01*
X162722965Y-78100395D01*
X162722962Y-78100399D01*
X162719858Y-78104833D01*
X162717570Y-78109738D01*
X162717568Y-78109743D01*
X162662382Y-78228092D01*
X162616625Y-78280268D01*
X162550000Y-78299687D01*
X162483375Y-78280268D01*
X162437618Y-78228092D01*
X162382433Y-78109747D01*
X162380142Y-78104833D01*
X162279124Y-77960565D01*
X162256237Y-77927879D01*
X162256235Y-77927877D01*
X162253132Y-77923445D01*
X162096555Y-77766868D01*
X162092124Y-77763765D01*
X162092120Y-77763762D01*
X161919604Y-77642965D01*
X161919605Y-77642965D01*
X161915167Y-77639858D01*
X161855727Y-77612141D01*
X161719383Y-77548563D01*
X161719380Y-77548561D01*
X161714480Y-77546277D01*
X161709265Y-77544879D01*
X161709258Y-77544877D01*
X161505823Y-77490366D01*
X161505812Y-77490364D01*
X161500591Y-77488965D01*
X161495199Y-77488493D01*
X161495192Y-77488492D01*
X161285395Y-77470138D01*
X161280000Y-77469666D01*
X161274605Y-77470138D01*
X161064807Y-77488492D01*
X161064798Y-77488493D01*
X161059409Y-77488965D01*
X161054189Y-77490363D01*
X161054176Y-77490366D01*
X160850741Y-77544877D01*
X160850730Y-77544880D01*
X160845520Y-77546277D01*
X160840623Y-77548560D01*
X160840616Y-77548563D01*
X160649747Y-77637566D01*
X160649741Y-77637569D01*
X160644833Y-77639858D01*
X160640399Y-77642962D01*
X160640395Y-77642965D01*
X160467879Y-77763762D01*
X160467869Y-77763769D01*
X160463445Y-77766868D01*
X160459619Y-77770693D01*
X160459613Y-77770699D01*
X160310699Y-77919613D01*
X160310693Y-77919619D01*
X160306868Y-77923445D01*
X160303769Y-77927869D01*
X160303762Y-77927879D01*
X160182965Y-78100395D01*
X160182962Y-78100399D01*
X160179858Y-78104833D01*
X160177570Y-78109738D01*
X160177568Y-78109743D01*
X160122382Y-78228092D01*
X160076625Y-78280268D01*
X160010000Y-78299687D01*
X159943375Y-78280268D01*
X159897618Y-78228092D01*
X159842433Y-78109747D01*
X159840142Y-78104833D01*
X159739124Y-77960565D01*
X159716237Y-77927879D01*
X159716235Y-77927877D01*
X159713132Y-77923445D01*
X159556555Y-77766868D01*
X159552124Y-77763765D01*
X159552120Y-77763762D01*
X159379604Y-77642965D01*
X159379605Y-77642965D01*
X159375167Y-77639858D01*
X159315727Y-77612141D01*
X159179383Y-77548563D01*
X159179380Y-77548561D01*
X159174480Y-77546277D01*
X159169265Y-77544879D01*
X159169258Y-77544877D01*
X158965823Y-77490366D01*
X158965812Y-77490364D01*
X158960591Y-77488965D01*
X158955199Y-77488493D01*
X158955192Y-77488492D01*
X158745395Y-77470138D01*
X158740000Y-77469666D01*
X158734605Y-77470138D01*
X158524807Y-77488492D01*
X158524798Y-77488493D01*
X158519409Y-77488965D01*
X158514189Y-77490363D01*
X158514176Y-77490366D01*
X158310741Y-77544877D01*
X158310730Y-77544880D01*
X158305520Y-77546277D01*
X158300623Y-77548560D01*
X158300616Y-77548563D01*
X158109747Y-77637566D01*
X158109741Y-77637569D01*
X158104833Y-77639858D01*
X158100399Y-77642962D01*
X158100395Y-77642965D01*
X157927879Y-77763762D01*
X157927869Y-77763769D01*
X157923445Y-77766868D01*
X157919619Y-77770693D01*
X157919613Y-77770699D01*
X157770699Y-77919613D01*
X157770693Y-77919619D01*
X157766868Y-77923445D01*
X157763769Y-77927869D01*
X157763762Y-77927879D01*
X157642965Y-78100395D01*
X157642962Y-78100399D01*
X157639858Y-78104833D01*
X157637570Y-78109738D01*
X157637568Y-78109743D01*
X157582382Y-78228092D01*
X157536625Y-78280268D01*
X157470000Y-78299687D01*
X157403375Y-78280268D01*
X157357618Y-78228092D01*
X157302433Y-78109747D01*
X157300142Y-78104833D01*
X157199124Y-77960565D01*
X157176237Y-77927879D01*
X157176235Y-77927877D01*
X157173132Y-77923445D01*
X157016555Y-77766868D01*
X157012124Y-77763765D01*
X157012120Y-77763762D01*
X156839604Y-77642965D01*
X156839605Y-77642965D01*
X156835167Y-77639858D01*
X156775727Y-77612141D01*
X156639383Y-77548563D01*
X156639380Y-77548561D01*
X156634480Y-77546277D01*
X156629265Y-77544879D01*
X156629258Y-77544877D01*
X156425823Y-77490366D01*
X156425812Y-77490364D01*
X156420591Y-77488965D01*
X156415199Y-77488493D01*
X156415192Y-77488492D01*
X156205395Y-77470138D01*
X156200000Y-77469666D01*
X156194605Y-77470138D01*
X155984807Y-77488492D01*
X155984798Y-77488493D01*
X155979409Y-77488965D01*
X155974189Y-77490363D01*
X155974176Y-77490366D01*
X155770741Y-77544877D01*
X155770730Y-77544880D01*
X155765520Y-77546277D01*
X155760623Y-77548560D01*
X155760616Y-77548563D01*
X155569747Y-77637566D01*
X155569741Y-77637569D01*
X155564833Y-77639858D01*
X155560399Y-77642962D01*
X155560395Y-77642965D01*
X155387879Y-77763762D01*
X155387869Y-77763769D01*
X155383445Y-77766868D01*
X155379619Y-77770693D01*
X155379613Y-77770699D01*
X155230699Y-77919613D01*
X155230693Y-77919619D01*
X155226868Y-77923445D01*
X155223769Y-77927869D01*
X155223762Y-77927879D01*
X155102965Y-78100395D01*
X155102962Y-78100399D01*
X155099858Y-78104833D01*
X155097570Y-78109738D01*
X155097568Y-78109743D01*
X155042382Y-78228092D01*
X154996625Y-78280268D01*
X154930000Y-78299687D01*
X154863375Y-78280268D01*
X154817618Y-78228092D01*
X154762433Y-78109747D01*
X154760142Y-78104833D01*
X154659124Y-77960565D01*
X154636237Y-77927879D01*
X154636235Y-77927877D01*
X154633132Y-77923445D01*
X154476555Y-77766868D01*
X154472124Y-77763765D01*
X154472120Y-77763762D01*
X154299604Y-77642965D01*
X154299605Y-77642965D01*
X154295167Y-77639858D01*
X154235727Y-77612141D01*
X154099383Y-77548563D01*
X154099380Y-77548561D01*
X154094480Y-77546277D01*
X154089265Y-77544879D01*
X154089258Y-77544877D01*
X153885823Y-77490366D01*
X153885812Y-77490364D01*
X153880591Y-77488965D01*
X153875199Y-77488493D01*
X153875192Y-77488492D01*
X153665395Y-77470138D01*
X153660000Y-77469666D01*
X153654605Y-77470138D01*
X153444807Y-77488492D01*
X153444798Y-77488493D01*
X153439409Y-77488965D01*
X153434189Y-77490363D01*
X153434176Y-77490366D01*
X153230741Y-77544877D01*
X153230730Y-77544880D01*
X153225520Y-77546277D01*
X153220623Y-77548560D01*
X153220616Y-77548563D01*
X153029747Y-77637566D01*
X153029741Y-77637569D01*
X153024833Y-77639858D01*
X153020399Y-77642962D01*
X153020395Y-77642965D01*
X152847879Y-77763762D01*
X152847869Y-77763769D01*
X152843445Y-77766868D01*
X152839619Y-77770693D01*
X152839613Y-77770699D01*
X152690699Y-77919613D01*
X152690693Y-77919619D01*
X152686868Y-77923445D01*
X152683769Y-77927869D01*
X152683762Y-77927879D01*
X152562965Y-78100395D01*
X152562962Y-78100399D01*
X152559858Y-78104833D01*
X152557570Y-78109738D01*
X152557568Y-78109743D01*
X152502382Y-78228092D01*
X152456625Y-78280268D01*
X152390000Y-78299687D01*
X152323375Y-78280268D01*
X152277618Y-78228092D01*
X152222433Y-78109747D01*
X152220142Y-78104833D01*
X152119124Y-77960565D01*
X152096237Y-77927879D01*
X152096235Y-77927877D01*
X152093132Y-77923445D01*
X151936555Y-77766868D01*
X151932124Y-77763765D01*
X151932120Y-77763762D01*
X151759604Y-77642965D01*
X151759605Y-77642965D01*
X151755167Y-77639858D01*
X151695727Y-77612141D01*
X151559383Y-77548563D01*
X151559380Y-77548561D01*
X151554480Y-77546277D01*
X151549265Y-77544879D01*
X151549258Y-77544877D01*
X151345823Y-77490366D01*
X151345812Y-77490364D01*
X151340591Y-77488965D01*
X151335199Y-77488493D01*
X151335192Y-77488492D01*
X151125395Y-77470138D01*
X151120000Y-77469666D01*
X151114605Y-77470138D01*
X150904807Y-77488492D01*
X150904798Y-77488493D01*
X150899409Y-77488965D01*
X150894189Y-77490363D01*
X150894176Y-77490366D01*
X150690741Y-77544877D01*
X150690730Y-77544880D01*
X150685520Y-77546277D01*
X150680623Y-77548560D01*
X150680616Y-77548563D01*
X150489747Y-77637566D01*
X150489741Y-77637569D01*
X150484833Y-77639858D01*
X150480399Y-77642962D01*
X150480395Y-77642965D01*
X150307879Y-77763762D01*
X150307869Y-77763769D01*
X150303445Y-77766868D01*
X150299619Y-77770693D01*
X150299613Y-77770699D01*
X150150699Y-77919613D01*
X150150693Y-77919619D01*
X150146868Y-77923445D01*
X150143769Y-77927869D01*
X150143762Y-77927879D01*
X150022965Y-78100395D01*
X150022962Y-78100399D01*
X150019858Y-78104833D01*
X150017570Y-78109738D01*
X150017568Y-78109743D01*
X149962382Y-78228092D01*
X149916625Y-78280268D01*
X149850000Y-78299687D01*
X149783375Y-78280268D01*
X149737618Y-78228092D01*
X149682433Y-78109747D01*
X149680142Y-78104833D01*
X149579124Y-77960565D01*
X149556237Y-77927879D01*
X149556235Y-77927877D01*
X149553132Y-77923445D01*
X149396555Y-77766868D01*
X149392124Y-77763765D01*
X149392120Y-77763762D01*
X149219604Y-77642965D01*
X149219605Y-77642965D01*
X149215167Y-77639858D01*
X149155727Y-77612141D01*
X149019383Y-77548563D01*
X149019380Y-77548561D01*
X149014480Y-77546277D01*
X149009265Y-77544879D01*
X149009258Y-77544877D01*
X148805823Y-77490366D01*
X148805812Y-77490364D01*
X148800591Y-77488965D01*
X148795199Y-77488493D01*
X148795192Y-77488492D01*
X148585395Y-77470138D01*
X148580000Y-77469666D01*
X148574605Y-77470138D01*
X148364807Y-77488492D01*
X148364798Y-77488493D01*
X148359409Y-77488965D01*
X148354189Y-77490363D01*
X148354176Y-77490366D01*
X148150741Y-77544877D01*
X148150730Y-77544880D01*
X148145520Y-77546277D01*
X148140623Y-77548560D01*
X148140616Y-77548563D01*
X147949747Y-77637566D01*
X147949741Y-77637569D01*
X147944833Y-77639858D01*
X147940399Y-77642962D01*
X147940395Y-77642965D01*
X147767879Y-77763762D01*
X147767869Y-77763769D01*
X147763445Y-77766868D01*
X147759619Y-77770693D01*
X147759613Y-77770699D01*
X147610699Y-77919613D01*
X147610693Y-77919619D01*
X147606868Y-77923445D01*
X147603769Y-77927869D01*
X147603762Y-77927879D01*
X147482965Y-78100395D01*
X147482962Y-78100399D01*
X147479858Y-78104833D01*
X147477570Y-78109738D01*
X147477568Y-78109743D01*
X147422382Y-78228092D01*
X147376625Y-78280268D01*
X147310000Y-78299687D01*
X147243375Y-78280268D01*
X147197618Y-78228092D01*
X147142433Y-78109747D01*
X147140142Y-78104833D01*
X147039124Y-77960565D01*
X147016237Y-77927879D01*
X147016235Y-77927877D01*
X147013132Y-77923445D01*
X146856555Y-77766868D01*
X146852124Y-77763765D01*
X146852120Y-77763762D01*
X146679604Y-77642965D01*
X146679605Y-77642965D01*
X146675167Y-77639858D01*
X146615727Y-77612141D01*
X146479383Y-77548563D01*
X146479380Y-77548561D01*
X146474480Y-77546277D01*
X146469265Y-77544879D01*
X146469258Y-77544877D01*
X146265823Y-77490366D01*
X146265812Y-77490364D01*
X146260591Y-77488965D01*
X146255199Y-77488493D01*
X146255192Y-77488492D01*
X146045395Y-77470138D01*
X146040000Y-77469666D01*
X146034605Y-77470138D01*
X145824807Y-77488492D01*
X145824798Y-77488493D01*
X145819409Y-77488965D01*
X145814189Y-77490363D01*
X145814176Y-77490366D01*
X145610741Y-77544877D01*
X145610730Y-77544880D01*
X145605520Y-77546277D01*
X145600623Y-77548560D01*
X145600616Y-77548563D01*
X145409747Y-77637566D01*
X145409741Y-77637569D01*
X145404833Y-77639858D01*
X145400399Y-77642962D01*
X145400395Y-77642965D01*
X145227879Y-77763762D01*
X145227869Y-77763769D01*
X145223445Y-77766868D01*
X145219619Y-77770693D01*
X145219613Y-77770699D01*
X145070699Y-77919613D01*
X145070693Y-77919619D01*
X145066868Y-77923445D01*
X145063769Y-77927869D01*
X145063762Y-77927879D01*
X144942965Y-78100395D01*
X144942962Y-78100399D01*
X144939858Y-78104833D01*
X144937570Y-78109738D01*
X144937568Y-78109743D01*
X144882382Y-78228092D01*
X144836625Y-78280268D01*
X144770000Y-78299687D01*
X144703375Y-78280268D01*
X144657618Y-78228092D01*
X144602433Y-78109747D01*
X144600142Y-78104833D01*
X144499124Y-77960565D01*
X144476237Y-77927879D01*
X144476235Y-77927877D01*
X144473132Y-77923445D01*
X144316555Y-77766868D01*
X144312124Y-77763765D01*
X144312120Y-77763762D01*
X144139604Y-77642965D01*
X144139605Y-77642965D01*
X144135167Y-77639858D01*
X144075727Y-77612141D01*
X143939383Y-77548563D01*
X143939380Y-77548561D01*
X143934480Y-77546277D01*
X143929265Y-77544879D01*
X143929258Y-77544877D01*
X143725823Y-77490366D01*
X143725812Y-77490364D01*
X143720591Y-77488965D01*
X143715199Y-77488493D01*
X143715192Y-77488492D01*
X143505395Y-77470138D01*
X143500000Y-77469666D01*
X143494605Y-77470138D01*
X143284807Y-77488492D01*
X143284798Y-77488493D01*
X143279409Y-77488965D01*
X143274189Y-77490363D01*
X143274176Y-77490366D01*
X143070741Y-77544877D01*
X143070730Y-77544880D01*
X143065520Y-77546277D01*
X143060623Y-77548560D01*
X143060616Y-77548563D01*
X142869747Y-77637566D01*
X142869741Y-77637569D01*
X142864833Y-77639858D01*
X142860399Y-77642962D01*
X142860395Y-77642965D01*
X142687879Y-77763762D01*
X142687869Y-77763769D01*
X142683445Y-77766868D01*
X142679619Y-77770693D01*
X142679613Y-77770699D01*
X142530699Y-77919613D01*
X142530693Y-77919619D01*
X142526868Y-77923445D01*
X142523769Y-77927869D01*
X142523762Y-77927879D01*
X142451074Y-78031689D01*
X142403857Y-78072016D01*
X142343009Y-78084395D01*
X142283789Y-78065723D01*
X142241046Y-78020681D01*
X142225499Y-77960565D01*
X142225499Y-77930439D01*
X142225499Y-77927128D01*
X142219091Y-77867517D01*
X142168796Y-77732669D01*
X142082546Y-77617454D01*
X141967331Y-77531204D01*
X141857839Y-77490366D01*
X141839752Y-77483620D01*
X141839750Y-77483619D01*
X141832483Y-77480909D01*
X141824770Y-77480079D01*
X141824767Y-77480079D01*
X141776180Y-77474855D01*
X141776169Y-77474854D01*
X141772873Y-77474500D01*
X141769550Y-77474500D01*
X140150439Y-77474500D01*
X140150420Y-77474500D01*
X140147128Y-77474501D01*
X140143850Y-77474853D01*
X140143838Y-77474854D01*
X140095231Y-77480079D01*
X140095225Y-77480080D01*
X140087517Y-77480909D01*
X140080252Y-77483618D01*
X140080246Y-77483620D01*
X139960980Y-77528104D01*
X139960978Y-77528104D01*
X139952669Y-77531204D01*
X139945572Y-77536516D01*
X139945568Y-77536519D01*
X139844550Y-77612141D01*
X139844546Y-77612144D01*
X139837454Y-77617454D01*
X139832144Y-77624546D01*
X139832141Y-77624550D01*
X139756519Y-77725568D01*
X139756516Y-77725572D01*
X139751204Y-77732669D01*
X139748104Y-77740978D01*
X139748104Y-77740980D01*
X139703620Y-77860247D01*
X139703619Y-77860250D01*
X139700909Y-77867517D01*
X139700079Y-77875227D01*
X139700079Y-77875232D01*
X139694855Y-77923819D01*
X139694854Y-77923831D01*
X139694500Y-77927127D01*
X139694500Y-77930448D01*
X139694500Y-77930449D01*
X139694500Y-79549560D01*
X139694500Y-79549578D01*
X119310000Y-79549578D01*
X119310000Y-76159578D01*
X139694500Y-76159578D01*
X139694501Y-76162872D01*
X139694853Y-76166150D01*
X139694854Y-76166161D01*
X139700079Y-76214768D01*
X139700080Y-76214773D01*
X139700909Y-76222483D01*
X139703619Y-76229749D01*
X139703620Y-76229753D01*
X139737019Y-76319300D01*
X139751204Y-76357331D01*
X139837454Y-76472546D01*
X139952669Y-76558796D01*
X140087517Y-76609091D01*
X140147127Y-76615500D01*
X141772872Y-76615499D01*
X141832483Y-76609091D01*
X141967331Y-76558796D01*
X142082546Y-76472546D01*
X142168796Y-76357331D01*
X142219091Y-76222483D01*
X142225500Y-76162873D01*
X142225499Y-76129435D01*
X142241045Y-76069321D01*
X142283787Y-76024278D01*
X142343008Y-76005605D01*
X142403856Y-76017984D01*
X142451074Y-76058311D01*
X142523762Y-76162120D01*
X142523765Y-76162124D01*
X142526868Y-76166555D01*
X142683445Y-76323132D01*
X142864833Y-76450142D01*
X143065520Y-76543723D01*
X143070740Y-76545121D01*
X143070741Y-76545122D01*
X143274176Y-76599633D01*
X143274178Y-76599633D01*
X143279409Y-76601035D01*
X143500000Y-76620334D01*
X143720591Y-76601035D01*
X143934480Y-76543723D01*
X144135167Y-76450142D01*
X144316555Y-76323132D01*
X144473132Y-76166555D01*
X144600142Y-75985167D01*
X144657618Y-75861907D01*
X144703375Y-75809732D01*
X144770000Y-75790312D01*
X144836625Y-75809732D01*
X144882381Y-75861907D01*
X144939858Y-75985167D01*
X144942965Y-75989604D01*
X145063762Y-76162120D01*
X145063765Y-76162124D01*
X145066868Y-76166555D01*
X145223445Y-76323132D01*
X145404833Y-76450142D01*
X145605520Y-76543723D01*
X145610740Y-76545121D01*
X145610741Y-76545122D01*
X145814176Y-76599633D01*
X145814178Y-76599633D01*
X145819409Y-76601035D01*
X146040000Y-76620334D01*
X146260591Y-76601035D01*
X146474480Y-76543723D01*
X146675167Y-76450142D01*
X146856555Y-76323132D01*
X147013132Y-76166555D01*
X147140142Y-75985167D01*
X147197618Y-75861907D01*
X147243375Y-75809732D01*
X147310000Y-75790312D01*
X147376625Y-75809732D01*
X147422381Y-75861907D01*
X147479858Y-75985167D01*
X147482965Y-75989604D01*
X147603762Y-76162120D01*
X147603765Y-76162124D01*
X147606868Y-76166555D01*
X147763445Y-76323132D01*
X147944833Y-76450142D01*
X148145520Y-76543723D01*
X148150740Y-76545121D01*
X148150741Y-76545122D01*
X148354176Y-76599633D01*
X148354178Y-76599633D01*
X148359409Y-76601035D01*
X148580000Y-76620334D01*
X148800591Y-76601035D01*
X149014480Y-76543723D01*
X149215167Y-76450142D01*
X149396555Y-76323132D01*
X149553132Y-76166555D01*
X149680142Y-75985167D01*
X149737618Y-75861907D01*
X149783375Y-75809732D01*
X149850000Y-75790312D01*
X149916625Y-75809732D01*
X149962381Y-75861907D01*
X150019858Y-75985167D01*
X150022965Y-75989604D01*
X150143762Y-76162120D01*
X150143765Y-76162124D01*
X150146868Y-76166555D01*
X150303445Y-76323132D01*
X150484833Y-76450142D01*
X150685520Y-76543723D01*
X150690740Y-76545121D01*
X150690741Y-76545122D01*
X150894176Y-76599633D01*
X150894178Y-76599633D01*
X150899409Y-76601035D01*
X151120000Y-76620334D01*
X151340591Y-76601035D01*
X151554480Y-76543723D01*
X151755167Y-76450142D01*
X151936555Y-76323132D01*
X152093132Y-76166555D01*
X152220142Y-75985167D01*
X152277618Y-75861907D01*
X152323375Y-75809732D01*
X152390000Y-75790312D01*
X152456625Y-75809732D01*
X152502381Y-75861907D01*
X152559858Y-75985167D01*
X152562965Y-75989604D01*
X152683762Y-76162120D01*
X152683765Y-76162124D01*
X152686868Y-76166555D01*
X152843445Y-76323132D01*
X153024833Y-76450142D01*
X153225520Y-76543723D01*
X153230740Y-76545121D01*
X153230741Y-76545122D01*
X153434176Y-76599633D01*
X153434178Y-76599633D01*
X153439409Y-76601035D01*
X153660000Y-76620334D01*
X153880591Y-76601035D01*
X154094480Y-76543723D01*
X154295167Y-76450142D01*
X154476555Y-76323132D01*
X154633132Y-76166555D01*
X154760142Y-75985167D01*
X154817618Y-75861907D01*
X154863375Y-75809732D01*
X154930000Y-75790312D01*
X154996625Y-75809732D01*
X155042381Y-75861907D01*
X155099858Y-75985167D01*
X155102965Y-75989604D01*
X155223762Y-76162120D01*
X155223765Y-76162124D01*
X155226868Y-76166555D01*
X155383445Y-76323132D01*
X155564833Y-76450142D01*
X155765520Y-76543723D01*
X155770740Y-76545121D01*
X155770741Y-76545122D01*
X155974176Y-76599633D01*
X155974178Y-76599633D01*
X155979409Y-76601035D01*
X156200000Y-76620334D01*
X156420591Y-76601035D01*
X156634480Y-76543723D01*
X156835167Y-76450142D01*
X157016555Y-76323132D01*
X157173132Y-76166555D01*
X157300142Y-75985167D01*
X157357618Y-75861907D01*
X157403375Y-75809732D01*
X157470000Y-75790312D01*
X157536625Y-75809732D01*
X157582381Y-75861907D01*
X157639858Y-75985167D01*
X157642965Y-75989604D01*
X157763762Y-76162120D01*
X157763765Y-76162124D01*
X157766868Y-76166555D01*
X157923445Y-76323132D01*
X158104833Y-76450142D01*
X158305520Y-76543723D01*
X158310740Y-76545121D01*
X158310741Y-76545122D01*
X158514176Y-76599633D01*
X158514178Y-76599633D01*
X158519409Y-76601035D01*
X158740000Y-76620334D01*
X158960591Y-76601035D01*
X159174480Y-76543723D01*
X159375167Y-76450142D01*
X159556555Y-76323132D01*
X159713132Y-76166555D01*
X159840142Y-75985167D01*
X159897618Y-75861907D01*
X159943375Y-75809732D01*
X160010000Y-75790312D01*
X160076625Y-75809732D01*
X160122381Y-75861907D01*
X160179858Y-75985167D01*
X160182965Y-75989604D01*
X160303762Y-76162120D01*
X160303765Y-76162124D01*
X160306868Y-76166555D01*
X160463445Y-76323132D01*
X160644833Y-76450142D01*
X160845520Y-76543723D01*
X160850740Y-76545121D01*
X160850741Y-76545122D01*
X161054176Y-76599633D01*
X161054178Y-76599633D01*
X161059409Y-76601035D01*
X161280000Y-76620334D01*
X161500591Y-76601035D01*
X161714480Y-76543723D01*
X161915167Y-76450142D01*
X162096555Y-76323132D01*
X162253132Y-76166555D01*
X162380142Y-75985167D01*
X162437618Y-75861907D01*
X162483375Y-75809732D01*
X162550000Y-75790312D01*
X162616625Y-75809732D01*
X162662381Y-75861907D01*
X162719858Y-75985167D01*
X162722965Y-75989604D01*
X162843762Y-76162120D01*
X162843765Y-76162124D01*
X162846868Y-76166555D01*
X163003445Y-76323132D01*
X163184833Y-76450142D01*
X163385520Y-76543723D01*
X163390740Y-76545121D01*
X163390741Y-76545122D01*
X163594176Y-76599633D01*
X163594178Y-76599633D01*
X163599409Y-76601035D01*
X163820000Y-76620334D01*
X164040591Y-76601035D01*
X164254480Y-76543723D01*
X164455167Y-76450142D01*
X164636555Y-76323132D01*
X164793132Y-76166555D01*
X164920142Y-75985167D01*
X164977618Y-75861907D01*
X165023375Y-75809732D01*
X165090000Y-75790312D01*
X165156625Y-75809732D01*
X165202381Y-75861907D01*
X165259858Y-75985167D01*
X165262965Y-75989604D01*
X165383762Y-76162120D01*
X165383765Y-76162124D01*
X165386868Y-76166555D01*
X165543445Y-76323132D01*
X165724833Y-76450142D01*
X165925520Y-76543723D01*
X165930740Y-76545121D01*
X165930741Y-76545122D01*
X166134176Y-76599633D01*
X166134178Y-76599633D01*
X166139409Y-76601035D01*
X166360000Y-76620334D01*
X166580591Y-76601035D01*
X166794480Y-76543723D01*
X166995167Y-76450142D01*
X167176555Y-76323132D01*
X167333132Y-76166555D01*
X167460142Y-75985167D01*
X167517618Y-75861907D01*
X167563375Y-75809732D01*
X167630000Y-75790312D01*
X167696625Y-75809732D01*
X167742381Y-75861907D01*
X167799858Y-75985167D01*
X167802965Y-75989604D01*
X167923762Y-76162120D01*
X167923765Y-76162124D01*
X167926868Y-76166555D01*
X168083445Y-76323132D01*
X168264833Y-76450142D01*
X168465520Y-76543723D01*
X168470740Y-76545121D01*
X168470741Y-76545122D01*
X168674176Y-76599633D01*
X168674178Y-76599633D01*
X168679409Y-76601035D01*
X168900000Y-76620334D01*
X169120591Y-76601035D01*
X169334480Y-76543723D01*
X169535167Y-76450142D01*
X169716555Y-76323132D01*
X169873132Y-76166555D01*
X170000142Y-75985167D01*
X170093723Y-75784480D01*
X170151035Y-75570591D01*
X170170334Y-75350000D01*
X170151035Y-75129409D01*
X170148504Y-75119965D01*
X170095122Y-74920741D01*
X170095121Y-74920740D01*
X170093723Y-74915520D01*
X170000142Y-74714833D01*
X169899124Y-74570565D01*
X169876237Y-74537879D01*
X169876235Y-74537877D01*
X169873132Y-74533445D01*
X169716555Y-74376868D01*
X169712124Y-74373765D01*
X169712120Y-74373762D01*
X169539604Y-74252965D01*
X169539605Y-74252965D01*
X169535167Y-74249858D01*
X169502339Y-74234550D01*
X169339383Y-74158563D01*
X169339380Y-74158561D01*
X169334480Y-74156277D01*
X169329265Y-74154879D01*
X169329258Y-74154877D01*
X169125823Y-74100366D01*
X169125812Y-74100364D01*
X169120591Y-74098965D01*
X169115199Y-74098493D01*
X169115192Y-74098492D01*
X168905395Y-74080138D01*
X168900000Y-74079666D01*
X168894605Y-74080138D01*
X168684807Y-74098492D01*
X168684798Y-74098493D01*
X168679409Y-74098965D01*
X168674189Y-74100363D01*
X168674176Y-74100366D01*
X168470741Y-74154877D01*
X168470730Y-74154880D01*
X168465520Y-74156277D01*
X168460623Y-74158560D01*
X168460616Y-74158563D01*
X168269747Y-74247566D01*
X168269741Y-74247569D01*
X168264833Y-74249858D01*
X168260399Y-74252962D01*
X168260395Y-74252965D01*
X168087879Y-74373762D01*
X168087869Y-74373769D01*
X168083445Y-74376868D01*
X168079619Y-74380693D01*
X168079613Y-74380699D01*
X167930699Y-74529613D01*
X167930693Y-74529619D01*
X167926868Y-74533445D01*
X167923769Y-74537869D01*
X167923762Y-74537879D01*
X167802965Y-74710395D01*
X167802962Y-74710399D01*
X167799858Y-74714833D01*
X167797570Y-74719738D01*
X167797568Y-74719743D01*
X167742382Y-74838092D01*
X167696625Y-74890268D01*
X167630000Y-74909687D01*
X167563375Y-74890268D01*
X167517618Y-74838092D01*
X167460142Y-74714833D01*
X167359124Y-74570565D01*
X167336237Y-74537879D01*
X167336235Y-74537877D01*
X167333132Y-74533445D01*
X167176555Y-74376868D01*
X167172124Y-74373765D01*
X167172120Y-74373762D01*
X166999604Y-74252965D01*
X166999605Y-74252965D01*
X166995167Y-74249858D01*
X166962339Y-74234550D01*
X166799383Y-74158563D01*
X166799380Y-74158561D01*
X166794480Y-74156277D01*
X166789265Y-74154879D01*
X166789258Y-74154877D01*
X166585823Y-74100366D01*
X166585812Y-74100364D01*
X166580591Y-74098965D01*
X166575199Y-74098493D01*
X166575192Y-74098492D01*
X166365395Y-74080138D01*
X166360000Y-74079666D01*
X166354605Y-74080138D01*
X166144807Y-74098492D01*
X166144798Y-74098493D01*
X166139409Y-74098965D01*
X166134189Y-74100363D01*
X166134176Y-74100366D01*
X165930741Y-74154877D01*
X165930730Y-74154880D01*
X165925520Y-74156277D01*
X165920623Y-74158560D01*
X165920616Y-74158563D01*
X165729747Y-74247566D01*
X165729741Y-74247569D01*
X165724833Y-74249858D01*
X165720399Y-74252962D01*
X165720395Y-74252965D01*
X165547879Y-74373762D01*
X165547869Y-74373769D01*
X165543445Y-74376868D01*
X165539619Y-74380693D01*
X165539613Y-74380699D01*
X165390699Y-74529613D01*
X165390693Y-74529619D01*
X165386868Y-74533445D01*
X165383769Y-74537869D01*
X165383762Y-74537879D01*
X165262965Y-74710395D01*
X165262962Y-74710399D01*
X165259858Y-74714833D01*
X165257570Y-74719738D01*
X165257568Y-74719743D01*
X165202382Y-74838092D01*
X165156625Y-74890268D01*
X165090000Y-74909687D01*
X165023375Y-74890268D01*
X164977618Y-74838092D01*
X164920142Y-74714833D01*
X164819124Y-74570565D01*
X164796237Y-74537879D01*
X164796235Y-74537877D01*
X164793132Y-74533445D01*
X164636555Y-74376868D01*
X164632124Y-74373765D01*
X164632120Y-74373762D01*
X164459604Y-74252965D01*
X164459605Y-74252965D01*
X164455167Y-74249858D01*
X164422339Y-74234550D01*
X164259383Y-74158563D01*
X164259380Y-74158561D01*
X164254480Y-74156277D01*
X164249265Y-74154879D01*
X164249258Y-74154877D01*
X164045823Y-74100366D01*
X164045812Y-74100364D01*
X164040591Y-74098965D01*
X164035199Y-74098493D01*
X164035192Y-74098492D01*
X163825395Y-74080138D01*
X163820000Y-74079666D01*
X163814605Y-74080138D01*
X163604807Y-74098492D01*
X163604798Y-74098493D01*
X163599409Y-74098965D01*
X163594189Y-74100363D01*
X163594176Y-74100366D01*
X163390741Y-74154877D01*
X163390730Y-74154880D01*
X163385520Y-74156277D01*
X163380623Y-74158560D01*
X163380616Y-74158563D01*
X163189747Y-74247566D01*
X163189741Y-74247569D01*
X163184833Y-74249858D01*
X163180399Y-74252962D01*
X163180395Y-74252965D01*
X163007879Y-74373762D01*
X163007869Y-74373769D01*
X163003445Y-74376868D01*
X162999619Y-74380693D01*
X162999613Y-74380699D01*
X162850699Y-74529613D01*
X162850693Y-74529619D01*
X162846868Y-74533445D01*
X162843769Y-74537869D01*
X162843762Y-74537879D01*
X162722965Y-74710395D01*
X162722962Y-74710399D01*
X162719858Y-74714833D01*
X162717570Y-74719738D01*
X162717568Y-74719743D01*
X162662382Y-74838092D01*
X162616625Y-74890268D01*
X162550000Y-74909687D01*
X162483375Y-74890268D01*
X162437618Y-74838092D01*
X162380142Y-74714833D01*
X162279124Y-74570565D01*
X162256237Y-74537879D01*
X162256235Y-74537877D01*
X162253132Y-74533445D01*
X162096555Y-74376868D01*
X162092124Y-74373765D01*
X162092120Y-74373762D01*
X161919604Y-74252965D01*
X161919605Y-74252965D01*
X161915167Y-74249858D01*
X161882339Y-74234550D01*
X161719383Y-74158563D01*
X161719380Y-74158561D01*
X161714480Y-74156277D01*
X161709265Y-74154879D01*
X161709258Y-74154877D01*
X161505823Y-74100366D01*
X161505812Y-74100364D01*
X161500591Y-74098965D01*
X161495199Y-74098493D01*
X161495192Y-74098492D01*
X161285395Y-74080138D01*
X161280000Y-74079666D01*
X161274605Y-74080138D01*
X161064807Y-74098492D01*
X161064798Y-74098493D01*
X161059409Y-74098965D01*
X161054189Y-74100363D01*
X161054176Y-74100366D01*
X160850741Y-74154877D01*
X160850730Y-74154880D01*
X160845520Y-74156277D01*
X160840623Y-74158560D01*
X160840616Y-74158563D01*
X160649747Y-74247566D01*
X160649741Y-74247569D01*
X160644833Y-74249858D01*
X160640399Y-74252962D01*
X160640395Y-74252965D01*
X160467879Y-74373762D01*
X160467869Y-74373769D01*
X160463445Y-74376868D01*
X160459619Y-74380693D01*
X160459613Y-74380699D01*
X160310699Y-74529613D01*
X160310693Y-74529619D01*
X160306868Y-74533445D01*
X160303769Y-74537869D01*
X160303762Y-74537879D01*
X160182965Y-74710395D01*
X160182962Y-74710399D01*
X160179858Y-74714833D01*
X160177570Y-74719738D01*
X160177568Y-74719743D01*
X160122382Y-74838092D01*
X160076625Y-74890268D01*
X160010000Y-74909687D01*
X159943375Y-74890268D01*
X159897618Y-74838092D01*
X159840142Y-74714833D01*
X159739124Y-74570565D01*
X159716237Y-74537879D01*
X159716235Y-74537877D01*
X159713132Y-74533445D01*
X159556555Y-74376868D01*
X159552124Y-74373765D01*
X159552120Y-74373762D01*
X159379604Y-74252965D01*
X159379605Y-74252965D01*
X159375167Y-74249858D01*
X159342339Y-74234550D01*
X159179383Y-74158563D01*
X159179380Y-74158561D01*
X159174480Y-74156277D01*
X159169265Y-74154879D01*
X159169258Y-74154877D01*
X158965823Y-74100366D01*
X158965812Y-74100364D01*
X158960591Y-74098965D01*
X158955199Y-74098493D01*
X158955192Y-74098492D01*
X158745395Y-74080138D01*
X158740000Y-74079666D01*
X158734605Y-74080138D01*
X158524807Y-74098492D01*
X158524798Y-74098493D01*
X158519409Y-74098965D01*
X158514189Y-74100363D01*
X158514176Y-74100366D01*
X158310741Y-74154877D01*
X158310730Y-74154880D01*
X158305520Y-74156277D01*
X158300623Y-74158560D01*
X158300616Y-74158563D01*
X158109747Y-74247566D01*
X158109741Y-74247569D01*
X158104833Y-74249858D01*
X158100399Y-74252962D01*
X158100395Y-74252965D01*
X157927879Y-74373762D01*
X157927869Y-74373769D01*
X157923445Y-74376868D01*
X157919619Y-74380693D01*
X157919613Y-74380699D01*
X157770699Y-74529613D01*
X157770693Y-74529619D01*
X157766868Y-74533445D01*
X157763769Y-74537869D01*
X157763762Y-74537879D01*
X157642965Y-74710395D01*
X157642962Y-74710399D01*
X157639858Y-74714833D01*
X157637570Y-74719738D01*
X157637568Y-74719743D01*
X157582382Y-74838092D01*
X157536625Y-74890268D01*
X157470000Y-74909687D01*
X157403375Y-74890268D01*
X157357618Y-74838092D01*
X157300142Y-74714833D01*
X157199124Y-74570565D01*
X157176237Y-74537879D01*
X157176235Y-74537877D01*
X157173132Y-74533445D01*
X157016555Y-74376868D01*
X157012124Y-74373765D01*
X157012120Y-74373762D01*
X156839604Y-74252965D01*
X156839605Y-74252965D01*
X156835167Y-74249858D01*
X156802339Y-74234550D01*
X156639383Y-74158563D01*
X156639380Y-74158561D01*
X156634480Y-74156277D01*
X156629265Y-74154879D01*
X156629258Y-74154877D01*
X156425823Y-74100366D01*
X156425812Y-74100364D01*
X156420591Y-74098965D01*
X156415199Y-74098493D01*
X156415192Y-74098492D01*
X156205395Y-74080138D01*
X156200000Y-74079666D01*
X156194605Y-74080138D01*
X155984807Y-74098492D01*
X155984798Y-74098493D01*
X155979409Y-74098965D01*
X155974189Y-74100363D01*
X155974176Y-74100366D01*
X155770741Y-74154877D01*
X155770730Y-74154880D01*
X155765520Y-74156277D01*
X155760623Y-74158560D01*
X155760616Y-74158563D01*
X155569747Y-74247566D01*
X155569741Y-74247569D01*
X155564833Y-74249858D01*
X155560399Y-74252962D01*
X155560395Y-74252965D01*
X155387879Y-74373762D01*
X155387869Y-74373769D01*
X155383445Y-74376868D01*
X155379619Y-74380693D01*
X155379613Y-74380699D01*
X155230699Y-74529613D01*
X155230693Y-74529619D01*
X155226868Y-74533445D01*
X155223769Y-74537869D01*
X155223762Y-74537879D01*
X155102965Y-74710395D01*
X155102962Y-74710399D01*
X155099858Y-74714833D01*
X155097570Y-74719738D01*
X155097568Y-74719743D01*
X155042382Y-74838092D01*
X154996625Y-74890268D01*
X154930000Y-74909687D01*
X154863375Y-74890268D01*
X154817618Y-74838092D01*
X154760142Y-74714833D01*
X154659124Y-74570565D01*
X154636237Y-74537879D01*
X154636235Y-74537877D01*
X154633132Y-74533445D01*
X154476555Y-74376868D01*
X154472124Y-74373765D01*
X154472120Y-74373762D01*
X154299604Y-74252965D01*
X154299605Y-74252965D01*
X154295167Y-74249858D01*
X154262339Y-74234550D01*
X154099383Y-74158563D01*
X154099380Y-74158561D01*
X154094480Y-74156277D01*
X154089265Y-74154879D01*
X154089258Y-74154877D01*
X153885823Y-74100366D01*
X153885812Y-74100364D01*
X153880591Y-74098965D01*
X153875199Y-74098493D01*
X153875192Y-74098492D01*
X153665395Y-74080138D01*
X153660000Y-74079666D01*
X153654605Y-74080138D01*
X153444807Y-74098492D01*
X153444798Y-74098493D01*
X153439409Y-74098965D01*
X153434189Y-74100363D01*
X153434176Y-74100366D01*
X153230741Y-74154877D01*
X153230730Y-74154880D01*
X153225520Y-74156277D01*
X153220623Y-74158560D01*
X153220616Y-74158563D01*
X153029747Y-74247566D01*
X153029741Y-74247569D01*
X153024833Y-74249858D01*
X153020399Y-74252962D01*
X153020395Y-74252965D01*
X152847879Y-74373762D01*
X152847869Y-74373769D01*
X152843445Y-74376868D01*
X152839619Y-74380693D01*
X152839613Y-74380699D01*
X152690699Y-74529613D01*
X152690693Y-74529619D01*
X152686868Y-74533445D01*
X152683769Y-74537869D01*
X152683762Y-74537879D01*
X152562965Y-74710395D01*
X152562962Y-74710399D01*
X152559858Y-74714833D01*
X152557570Y-74719738D01*
X152557568Y-74719743D01*
X152502382Y-74838092D01*
X152456625Y-74890268D01*
X152390000Y-74909687D01*
X152323375Y-74890268D01*
X152277618Y-74838092D01*
X152220142Y-74714833D01*
X152119124Y-74570565D01*
X152096237Y-74537879D01*
X152096235Y-74537877D01*
X152093132Y-74533445D01*
X151936555Y-74376868D01*
X151932124Y-74373765D01*
X151932120Y-74373762D01*
X151759604Y-74252965D01*
X151759605Y-74252965D01*
X151755167Y-74249858D01*
X151722339Y-74234550D01*
X151559383Y-74158563D01*
X151559380Y-74158561D01*
X151554480Y-74156277D01*
X151549265Y-74154879D01*
X151549258Y-74154877D01*
X151345823Y-74100366D01*
X151345812Y-74100364D01*
X151340591Y-74098965D01*
X151335199Y-74098493D01*
X151335192Y-74098492D01*
X151125395Y-74080138D01*
X151120000Y-74079666D01*
X151114605Y-74080138D01*
X150904807Y-74098492D01*
X150904798Y-74098493D01*
X150899409Y-74098965D01*
X150894189Y-74100363D01*
X150894176Y-74100366D01*
X150690741Y-74154877D01*
X150690730Y-74154880D01*
X150685520Y-74156277D01*
X150680623Y-74158560D01*
X150680616Y-74158563D01*
X150489747Y-74247566D01*
X150489741Y-74247569D01*
X150484833Y-74249858D01*
X150480399Y-74252962D01*
X150480395Y-74252965D01*
X150307879Y-74373762D01*
X150307869Y-74373769D01*
X150303445Y-74376868D01*
X150299619Y-74380693D01*
X150299613Y-74380699D01*
X150150699Y-74529613D01*
X150150693Y-74529619D01*
X150146868Y-74533445D01*
X150143769Y-74537869D01*
X150143762Y-74537879D01*
X150022965Y-74710395D01*
X150022962Y-74710399D01*
X150019858Y-74714833D01*
X150017570Y-74719738D01*
X150017568Y-74719743D01*
X149962382Y-74838092D01*
X149916625Y-74890268D01*
X149850000Y-74909687D01*
X149783375Y-74890268D01*
X149737618Y-74838092D01*
X149680142Y-74714833D01*
X149579124Y-74570565D01*
X149556237Y-74537879D01*
X149556235Y-74537877D01*
X149553132Y-74533445D01*
X149396555Y-74376868D01*
X149392124Y-74373765D01*
X149392120Y-74373762D01*
X149219604Y-74252965D01*
X149219605Y-74252965D01*
X149215167Y-74249858D01*
X149182339Y-74234550D01*
X149019383Y-74158563D01*
X149019380Y-74158561D01*
X149014480Y-74156277D01*
X149009265Y-74154879D01*
X149009258Y-74154877D01*
X148805823Y-74100366D01*
X148805812Y-74100364D01*
X148800591Y-74098965D01*
X148795199Y-74098493D01*
X148795192Y-74098492D01*
X148585395Y-74080138D01*
X148580000Y-74079666D01*
X148574605Y-74080138D01*
X148364807Y-74098492D01*
X148364798Y-74098493D01*
X148359409Y-74098965D01*
X148354189Y-74100363D01*
X148354176Y-74100366D01*
X148150741Y-74154877D01*
X148150730Y-74154880D01*
X148145520Y-74156277D01*
X148140623Y-74158560D01*
X148140616Y-74158563D01*
X147949747Y-74247566D01*
X147949741Y-74247569D01*
X147944833Y-74249858D01*
X147940399Y-74252962D01*
X147940395Y-74252965D01*
X147767879Y-74373762D01*
X147767869Y-74373769D01*
X147763445Y-74376868D01*
X147759619Y-74380693D01*
X147759613Y-74380699D01*
X147610699Y-74529613D01*
X147610693Y-74529619D01*
X147606868Y-74533445D01*
X147603769Y-74537869D01*
X147603762Y-74537879D01*
X147482965Y-74710395D01*
X147482962Y-74710399D01*
X147479858Y-74714833D01*
X147477570Y-74719738D01*
X147477568Y-74719743D01*
X147422382Y-74838092D01*
X147376625Y-74890268D01*
X147310000Y-74909687D01*
X147243375Y-74890268D01*
X147197618Y-74838092D01*
X147140142Y-74714833D01*
X147039124Y-74570565D01*
X147016237Y-74537879D01*
X147016235Y-74537877D01*
X147013132Y-74533445D01*
X146856555Y-74376868D01*
X146852124Y-74373765D01*
X146852120Y-74373762D01*
X146679604Y-74252965D01*
X146679605Y-74252965D01*
X146675167Y-74249858D01*
X146642339Y-74234550D01*
X146479383Y-74158563D01*
X146479380Y-74158561D01*
X146474480Y-74156277D01*
X146469265Y-74154879D01*
X146469258Y-74154877D01*
X146265823Y-74100366D01*
X146265812Y-74100364D01*
X146260591Y-74098965D01*
X146255199Y-74098493D01*
X146255192Y-74098492D01*
X146045395Y-74080138D01*
X146040000Y-74079666D01*
X146034605Y-74080138D01*
X145824807Y-74098492D01*
X145824798Y-74098493D01*
X145819409Y-74098965D01*
X145814189Y-74100363D01*
X145814176Y-74100366D01*
X145610741Y-74154877D01*
X145610730Y-74154880D01*
X145605520Y-74156277D01*
X145600623Y-74158560D01*
X145600616Y-74158563D01*
X145409747Y-74247566D01*
X145409741Y-74247569D01*
X145404833Y-74249858D01*
X145400399Y-74252962D01*
X145400395Y-74252965D01*
X145227879Y-74373762D01*
X145227869Y-74373769D01*
X145223445Y-74376868D01*
X145219619Y-74380693D01*
X145219613Y-74380699D01*
X145070699Y-74529613D01*
X145070693Y-74529619D01*
X145066868Y-74533445D01*
X145063769Y-74537869D01*
X145063762Y-74537879D01*
X144942965Y-74710395D01*
X144942962Y-74710399D01*
X144939858Y-74714833D01*
X144937570Y-74719738D01*
X144937568Y-74719743D01*
X144882382Y-74838092D01*
X144836625Y-74890268D01*
X144770000Y-74909687D01*
X144703375Y-74890268D01*
X144657618Y-74838092D01*
X144600142Y-74714833D01*
X144499124Y-74570565D01*
X144476237Y-74537879D01*
X144476235Y-74537877D01*
X144473132Y-74533445D01*
X144316555Y-74376868D01*
X144312124Y-74373765D01*
X144312120Y-74373762D01*
X144139604Y-74252965D01*
X144139605Y-74252965D01*
X144135167Y-74249858D01*
X144102339Y-74234550D01*
X143939383Y-74158563D01*
X143939380Y-74158561D01*
X143934480Y-74156277D01*
X143929265Y-74154879D01*
X143929258Y-74154877D01*
X143725823Y-74100366D01*
X143725812Y-74100364D01*
X143720591Y-74098965D01*
X143715199Y-74098493D01*
X143715192Y-74098492D01*
X143505395Y-74080138D01*
X143500000Y-74079666D01*
X143494605Y-74080138D01*
X143284807Y-74098492D01*
X143284798Y-74098493D01*
X143279409Y-74098965D01*
X143274189Y-74100363D01*
X143274176Y-74100366D01*
X143070741Y-74154877D01*
X143070730Y-74154880D01*
X143065520Y-74156277D01*
X143060623Y-74158560D01*
X143060616Y-74158563D01*
X142869747Y-74247566D01*
X142869741Y-74247569D01*
X142864833Y-74249858D01*
X142860399Y-74252962D01*
X142860395Y-74252965D01*
X142687879Y-74373762D01*
X142687869Y-74373769D01*
X142683445Y-74376868D01*
X142679619Y-74380693D01*
X142679613Y-74380699D01*
X142530699Y-74529613D01*
X142530693Y-74529619D01*
X142526868Y-74533445D01*
X142523769Y-74537869D01*
X142523762Y-74537879D01*
X142451074Y-74641689D01*
X142403857Y-74682016D01*
X142343009Y-74694395D01*
X142283789Y-74675723D01*
X142241046Y-74630681D01*
X142225499Y-74570565D01*
X142225499Y-74540439D01*
X142225499Y-74537128D01*
X142219091Y-74477517D01*
X142168796Y-74342669D01*
X142082546Y-74227454D01*
X141967331Y-74141204D01*
X141854412Y-74099088D01*
X141839752Y-74093620D01*
X141839750Y-74093619D01*
X141832483Y-74090909D01*
X141824770Y-74090079D01*
X141824767Y-74090079D01*
X141776180Y-74084855D01*
X141776169Y-74084854D01*
X141772873Y-74084500D01*
X141769550Y-74084500D01*
X140150439Y-74084500D01*
X140150420Y-74084500D01*
X140147128Y-74084501D01*
X140143850Y-74084853D01*
X140143838Y-74084854D01*
X140095231Y-74090079D01*
X140095225Y-74090080D01*
X140087517Y-74090909D01*
X140080252Y-74093618D01*
X140080246Y-74093620D01*
X139960980Y-74138104D01*
X139960978Y-74138104D01*
X139952669Y-74141204D01*
X139945572Y-74146516D01*
X139945568Y-74146519D01*
X139844550Y-74222141D01*
X139844546Y-74222144D01*
X139837454Y-74227454D01*
X139832144Y-74234546D01*
X139832141Y-74234550D01*
X139756519Y-74335568D01*
X139756516Y-74335572D01*
X139751204Y-74342669D01*
X139748104Y-74350978D01*
X139748104Y-74350980D01*
X139703620Y-74470247D01*
X139703619Y-74470250D01*
X139700909Y-74477517D01*
X139700079Y-74485227D01*
X139700079Y-74485232D01*
X139694855Y-74533819D01*
X139694854Y-74533831D01*
X139694500Y-74537127D01*
X139694500Y-74540448D01*
X139694500Y-74540449D01*
X139694500Y-76159560D01*
X139694500Y-76159578D01*
X119310000Y-76159578D01*
X119310000Y-73567765D01*
X121145788Y-73567765D01*
X121146282Y-73572262D01*
X121146283Y-73572267D01*
X121174917Y-73832506D01*
X121174918Y-73832513D01*
X121175414Y-73837018D01*
X121176559Y-73841398D01*
X121176561Y-73841408D01*
X121208830Y-73964838D01*
X121243928Y-74099088D01*
X121245693Y-74103242D01*
X121245696Y-74103250D01*
X121344421Y-74335568D01*
X121349870Y-74348390D01*
X121352226Y-74352251D01*
X121352229Y-74352256D01*
X121465514Y-74537879D01*
X121490982Y-74579610D01*
X121664255Y-74787820D01*
X121667630Y-74790844D01*
X121667631Y-74790845D01*
X121772330Y-74884656D01*
X121865998Y-74968582D01*
X122091910Y-75118044D01*
X122337176Y-75233020D01*
X122596569Y-75311060D01*
X122864561Y-75350500D01*
X123065369Y-75350500D01*
X123067631Y-75350500D01*
X123270156Y-75335677D01*
X123534553Y-75276780D01*
X123787558Y-75180014D01*
X124023777Y-75047441D01*
X124238177Y-74881888D01*
X124426186Y-74686881D01*
X124583799Y-74466579D01*
X124707656Y-74225675D01*
X124795118Y-73969305D01*
X124844319Y-73702933D01*
X124849259Y-73567765D01*
X174145788Y-73567765D01*
X174146282Y-73572262D01*
X174146283Y-73572267D01*
X174174917Y-73832506D01*
X174174918Y-73832513D01*
X174175414Y-73837018D01*
X174176559Y-73841398D01*
X174176561Y-73841408D01*
X174208830Y-73964838D01*
X174243928Y-74099088D01*
X174245693Y-74103242D01*
X174245696Y-74103250D01*
X174344421Y-74335568D01*
X174349870Y-74348390D01*
X174352226Y-74352251D01*
X174352229Y-74352256D01*
X174465514Y-74537879D01*
X174490982Y-74579610D01*
X174664255Y-74787820D01*
X174667630Y-74790844D01*
X174667631Y-74790845D01*
X174772330Y-74884656D01*
X174865998Y-74968582D01*
X175091910Y-75118044D01*
X175337176Y-75233020D01*
X175596569Y-75311060D01*
X175864561Y-75350500D01*
X176065369Y-75350500D01*
X176067631Y-75350500D01*
X176270156Y-75335677D01*
X176534553Y-75276780D01*
X176787558Y-75180014D01*
X177023777Y-75047441D01*
X177238177Y-74881888D01*
X177426186Y-74686881D01*
X177583799Y-74466579D01*
X177707656Y-74225675D01*
X177795118Y-73969305D01*
X177844319Y-73702933D01*
X177854212Y-73432235D01*
X177824586Y-73162982D01*
X177756072Y-72900912D01*
X177650130Y-72651610D01*
X177509018Y-72420390D01*
X177335745Y-72212180D01*
X177230759Y-72118112D01*
X177137382Y-72034446D01*
X177137378Y-72034442D01*
X177134002Y-72031418D01*
X176908090Y-71881956D01*
X176903996Y-71880036D01*
X176903991Y-71880034D01*
X176666929Y-71768904D01*
X176666925Y-71768902D01*
X176662824Y-71766980D01*
X176658477Y-71765672D01*
X176658474Y-71765671D01*
X176407772Y-71690246D01*
X176407771Y-71690245D01*
X176403431Y-71688940D01*
X176398957Y-71688281D01*
X176398950Y-71688280D01*
X176139913Y-71650158D01*
X176139907Y-71650157D01*
X176135439Y-71649500D01*
X175932369Y-71649500D01*
X175930120Y-71649664D01*
X175930109Y-71649665D01*
X175734363Y-71663992D01*
X175734359Y-71663992D01*
X175729844Y-71664323D01*
X175725426Y-71665307D01*
X175725420Y-71665308D01*
X175469877Y-71722232D01*
X175469861Y-71722236D01*
X175465447Y-71723220D01*
X175461216Y-71724838D01*
X175461210Y-71724840D01*
X175216673Y-71818367D01*
X175216663Y-71818371D01*
X175212442Y-71819986D01*
X175208494Y-71822201D01*
X175208489Y-71822204D01*
X174980176Y-71950340D01*
X174980171Y-71950343D01*
X174976223Y-71952559D01*
X174972639Y-71955325D01*
X174972635Y-71955329D01*
X174765407Y-72115343D01*
X174765394Y-72115354D01*
X174761823Y-72118112D01*
X174758685Y-72121366D01*
X174758678Y-72121373D01*
X174576958Y-72309857D01*
X174576952Y-72309864D01*
X174573814Y-72313119D01*
X174571189Y-72316787D01*
X174571179Y-72316800D01*
X174418834Y-72529740D01*
X174418830Y-72529745D01*
X174416201Y-72533421D01*
X174414132Y-72537444D01*
X174414129Y-72537450D01*
X174294416Y-72770293D01*
X174294411Y-72770304D01*
X174292344Y-72774325D01*
X174290884Y-72778602D01*
X174290879Y-72778616D01*
X174206348Y-73026395D01*
X174206344Y-73026407D01*
X174204882Y-73030695D01*
X174204057Y-73035159D01*
X174204057Y-73035161D01*
X174156504Y-73292606D01*
X174156502Y-73292619D01*
X174155681Y-73297067D01*
X174155515Y-73301593D01*
X174155515Y-73301599D01*
X174150576Y-73436762D01*
X174145788Y-73567765D01*
X124849259Y-73567765D01*
X124854212Y-73432235D01*
X124824586Y-73162982D01*
X124756072Y-72900912D01*
X124650130Y-72651610D01*
X124509018Y-72420390D01*
X124335745Y-72212180D01*
X124230759Y-72118112D01*
X124137382Y-72034446D01*
X124137378Y-72034442D01*
X124134002Y-72031418D01*
X123908090Y-71881956D01*
X123903996Y-71880036D01*
X123903991Y-71880034D01*
X123666929Y-71768904D01*
X123666925Y-71768902D01*
X123662824Y-71766980D01*
X123658477Y-71765672D01*
X123658474Y-71765671D01*
X123407772Y-71690246D01*
X123407771Y-71690245D01*
X123403431Y-71688940D01*
X123398957Y-71688281D01*
X123398950Y-71688280D01*
X123139913Y-71650158D01*
X123139907Y-71650157D01*
X123135439Y-71649500D01*
X122932369Y-71649500D01*
X122930120Y-71649664D01*
X122930109Y-71649665D01*
X122734363Y-71663992D01*
X122734359Y-71663992D01*
X122729844Y-71664323D01*
X122725426Y-71665307D01*
X122725420Y-71665308D01*
X122469877Y-71722232D01*
X122469861Y-71722236D01*
X122465447Y-71723220D01*
X122461216Y-71724838D01*
X122461210Y-71724840D01*
X122216673Y-71818367D01*
X122216663Y-71818371D01*
X122212442Y-71819986D01*
X122208494Y-71822201D01*
X122208489Y-71822204D01*
X121980176Y-71950340D01*
X121980171Y-71950343D01*
X121976223Y-71952559D01*
X121972639Y-71955325D01*
X121972635Y-71955329D01*
X121765407Y-72115343D01*
X121765394Y-72115354D01*
X121761823Y-72118112D01*
X121758685Y-72121366D01*
X121758678Y-72121373D01*
X121576958Y-72309857D01*
X121576952Y-72309864D01*
X121573814Y-72313119D01*
X121571189Y-72316787D01*
X121571179Y-72316800D01*
X121418834Y-72529740D01*
X121418830Y-72529745D01*
X121416201Y-72533421D01*
X121414132Y-72537444D01*
X121414129Y-72537450D01*
X121294416Y-72770293D01*
X121294411Y-72770304D01*
X121292344Y-72774325D01*
X121290884Y-72778602D01*
X121290879Y-72778616D01*
X121206348Y-73026395D01*
X121206344Y-73026407D01*
X121204882Y-73030695D01*
X121204057Y-73035159D01*
X121204057Y-73035161D01*
X121156504Y-73292606D01*
X121156502Y-73292619D01*
X121155681Y-73297067D01*
X121155515Y-73301593D01*
X121155515Y-73301599D01*
X121150576Y-73436762D01*
X121145788Y-73567765D01*
X119310000Y-73567765D01*
X119310000Y-70203545D01*
X119326537Y-70141677D01*
X119371737Y-70096310D01*
X119433544Y-70079546D01*
X179065970Y-69860492D01*
X179127980Y-69876849D01*
G37*
%TD.AperFunction*%
%TD*%
M02*
