M48
; DRILL file {KiCad (7.0.0)} date Tue Feb 28 10:19:30 2023
; FORMAT={-:-/ absolute / inch / decimal}
; #@! TF.CreationDate,2023-02-28T10:19:30+09:00
; #@! TF.GenerationSoftware,Kicad,Pcbnew,(7.0.0)
; #@! TF.FileFunction,Plated,1,2,PTH
FMAT,2
INCH
; #@! TA.AperFunction,Plated,PTH,ViaDrill
T1C0.0157
; #@! TA.AperFunction,Plated,PTH,ComponentDrill
T2C0.0394
; #@! TA.AperFunction,Plated,PTH,ComponentDrill
T3C0.0402
%
G90
G05
T1
X5.1181Y-3.1709
X5.2669Y-3.8138
X5.2701Y-3.5622
X5.2795Y-4.1457
X5.2992Y-3.311
X5.4276Y-4.7047
X5.4276Y-4.9709
X5.4717Y-3.165
X5.4949Y-3.685
X5.5079Y-4.3937
X5.5768Y-4.8362
X5.6575Y-4.1457
X5.7051Y-3.3169
X5.7142Y-3.5535
X5.7142Y-3.8138
X5.7287Y-4.7047
X5.7287Y-4.9709
X5.8031Y-4.3937
X5.8512Y-4.8362
X5.9244Y-3.1768
X5.9303Y-3.6969
X5.9945Y-4.7047
X5.9945Y-4.9709
X6.0787Y-4.1457
X6.1028Y-3.5622
X6.1173Y-3.3287
X6.1181Y-4.8425
X6.1201Y-3.8165
X6.2362Y-4.7087
X6.2402Y-4.9646
X6.2457Y-3.6969
X6.3543Y-4.8504
X6.3657Y-3.5654
X6.3661Y-4.5669
X6.3685Y-3.8165
X6.3701Y-4.4331
X6.4646Y-4.7087
X6.4764Y-4.9685
X6.5Y-3.6937
X6.6024Y-3.5622
X6.6083Y-3.2264
X6.6083Y-3.3811
X6.6693Y-4.311
X6.6732Y-4.4488
X6.7134Y-3.6937
T2
X5.2909Y-4.3031
X5.2909Y-4.4031
X5.2909Y-4.5031
X5.2909Y-4.6031
X5.2909Y-4.7031
X5.2909Y-4.8031
X5.2909Y-4.9031
X6.5409Y-4.3031
X6.5409Y-4.4043
X6.5409Y-4.5043
T3
X5.1496Y-3.9
X5.1512Y-4.0354
X5.1531Y-4.3016
X5.1531Y-4.4016
X5.1531Y-4.5016
X5.1531Y-4.6016
X5.1531Y-4.7016
X5.1531Y-4.8016
X5.1531Y-4.9016
X5.2496Y-3.9
X5.2512Y-4.0354
X5.3496Y-3.9
X5.3512Y-4.0354
X5.4496Y-3.9
X5.4512Y-4.0354
X5.5496Y-2.9665
X5.5496Y-3.1
X5.5496Y-3.9
X5.5512Y-4.0354
X5.6496Y-2.9665
X5.6496Y-3.1
X5.6496Y-3.9
X5.6512Y-4.0354
X5.7496Y-2.9665
X5.7496Y-3.1
X5.7496Y-3.9
X5.7512Y-4.0354
X5.8496Y-2.9665
X5.8496Y-3.1
X5.8496Y-3.9
X5.8512Y-4.0354
X5.9496Y-2.9665
X5.9496Y-3.1
X5.9496Y-3.9
X5.9512Y-4.0354
X6.0496Y-2.9665
X6.0496Y-3.1
X6.0496Y-3.9
X6.0512Y-4.0354
X6.1496Y-2.9665
X6.1496Y-3.1
X6.1496Y-3.9
X6.1512Y-4.0354
X6.2496Y-2.9665
X6.2496Y-3.1
X6.2496Y-3.9
X6.2512Y-4.0354
X6.3496Y-2.9665
X6.3496Y-3.1
X6.3496Y-3.9
X6.3512Y-4.0354
X6.4496Y-2.9665
X6.4496Y-3.1
X6.4496Y-3.9
X6.4512Y-4.0354
X6.5496Y-2.9665
X6.5496Y-3.1
X6.5496Y-3.9
X6.5512Y-4.0354
X6.6496Y-2.9665
X6.6496Y-3.1
X6.6496Y-3.9
X6.6512Y-4.0354
T0
M30
